<ttFont>
<head>
    <!-- Most of this table will be recalculated by the compiler -->
    <tableVersion value="1.0"/>
    <fontRevision value="5.0"/>
    <checkSumAdjustment value="0x634100"/>
    <magicNumber value="0x5f0f3cf5"/>
    <flags value="00000000 00001011"/>
    <unitsPerEm value="2048"/>
    <created value="Sun May 15 08:57:39 2005"/>
    <modified value="Fri Apr 15 06:55:42 2011"/>
    <xMin value="-207"/>
    <yMin value="-969"/>
    <xMax value="5475"/>
    <yMax value="1965"/>
    <macStyle value="00000000 00000000"/>
    <lowestRecPPEM value="8"/>
    <fontDirectionHint value="2"/>
    <indexToLocFormat value="0"/>
    <glyphDataFormat value="0"/>
  </head>
    <TTGlyph name=".notdef" xMin="142" yMin="226" xMax="842" yMax="1588">
      <contour>
        <pt x="142" y="226" on="1"/>
        <pt x="142" y="1588" on="1"/>
        <pt x="842" y="1588" on="1"/>
        <pt x="842" y="226" on="1"/>
      </contour>
      <contour>
        <pt x="284" y="368" on="1"/>
        <pt x="700" y="368" on="1"/>
        <pt x="700" y="1447" on="1"/>
        <pt x="284" y="1447" on="1"/>
      </contour>
    </TTGlyph>
    <TTGlyph name=".null" xMin="142" yMin="226" xMax="842" yMax="1588">
      <contour>
        <pt x="142" y="226" on="1"/>
        <pt x="142" y="1588" on="1"/>
        <pt x="842" y="1588" on="1"/>
        <pt x="842" y="226" on="1"/>
      </contour>
      <contour>
        <pt x="284" y="368" on="1"/>
        <pt x="700" y="368" on="1"/>
        <pt x="700" y="1447" on="1"/>
        <pt x="284" y="1447" on="1"/>
      </contour>
    </TTGlyph>
    <TTGlyph name="afii57381" xMin="142" yMin="226" xMax="842" yMax="1588">
      <contour>
        <pt x="142" y="226" on="1"/>
        <pt x="142" y="1588" on="1"/>
        <pt x="842" y="1588" on="1"/>
        <pt x="842" y="226" on="1"/>
      </contour>
      <contour>
        <pt x="284" y="368" on="1"/>
        <pt x="700" y="368" on="1"/>
        <pt x="700" y="1447" on="1"/>
        <pt x="284" y="1447" on="1"/>
      </contour>
    </TTGlyph>
    <TTGlyph name="afii57388" xMin="142" yMin="226" xMax="842" yMax="1588">
      <contour>
        <pt x="142" y="226" on="1"/>
        <pt x="142" y="1588" on="1"/>
        <pt x="842" y="1588" on="1"/>
        <pt x="842" y="226" on="1"/>
      </contour>
      <contour>
        <pt x="284" y="368" on="1"/>
        <pt x="700" y="368" on="1"/>
        <pt x="700" y="1447" on="1"/>
        <pt x="284" y="1447" on="1"/>
      </contour>
    </TTGlyph>
    <TTGlyph name="afii57396" xMin="142" yMin="226" xMax="842" yMax="1588">
      <contour>
        <pt x="142" y="226" on="1"/>
        <pt x="142" y="1588" on="1"/>
        <pt x="842" y="1588" on="1"/>
        <pt x="842" y="226" on="1"/>
      </contour>
      <contour>
        <pt x="284" y="368" on="1"/>
        <pt x="700" y="368" on="1"/>
        <pt x="700" y="1447" on="1"/>
        <pt x="284" y="1447" on="1"/>
      </contour>
    </TTGlyph>
    <TTGlyph name="afii57397" xMin="142" yMin="226" xMax="842" yMax="1588">
      <contour>
        <pt x="142" y="226" on="1"/>
        <pt x="142" y="1588" on="1"/>
        <pt x="842" y="1588" on="1"/>
        <pt x="842" y="226" on="1"/>
      </contour>
      <contour>
        <pt x="284" y="368" on="1"/>
        <pt x="700" y="368" on="1"/>
        <pt x="700" y="1447" on="1"/>
        <pt x="284" y="1447" on="1"/>
      </contour>
    </TTGlyph>
    <TTGlyph name="afii57398" xMin="142" yMin="226" xMax="842" yMax="1588">
      <contour>
        <pt x="142" y="226" on="1"/>
        <pt x="142" y="1588" on="1"/>
        <pt x="842" y="1588" on="1"/>
        <pt x="842" y="226" on="1"/>
      </contour>
      <contour>
        <pt x="284" y="368" on="1"/>
        <pt x="700" y="368" on="1"/>
        <pt x="700" y="1447" on="1"/>
        <pt x="284" y="1447" on="1"/>
      </contour>
    </TTGlyph>
    <TTGlyph name="afii57403" xMin="142" yMin="226" xMax="842" yMax="1588">
      <contour>
        <pt x="142" y="226" on="1"/>
        <pt x="142" y="1588" on="1"/>
        <pt x="842" y="1588" on="1"/>
        <pt x="842" y="226" on="1"/>
      </contour>
      <contour>
        <pt x="284" y="368" on="1"/>
        <pt x="700" y="368" on="1"/>
        <pt x="700" y="1447" on="1"/>
        <pt x="284" y="1447" on="1"/>
      </contour>
    </TTGlyph>
    <TTGlyph name="afii57407" xMin="142" yMin="226" xMax="842" yMax="1588">
      <contour>
        <pt x="142" y="226" on="1"/>
        <pt x="142" y="1588" on="1"/>
        <pt x="842" y="1588" on="1"/>
        <pt x="842" y="226" on="1"/>
      </contour>
      <contour>
        <pt x="284" y="368" on="1"/>
        <pt x="700" y="368" on="1"/>
        <pt x="700" y="1447" on="1"/>
        <pt x="284" y="1447" on="1"/>
      </contour>
    </TTGlyph>
    <TTGlyph name="afii57440" xMin="142" yMin="226" xMax="842" yMax="1588">
      <contour>
        <pt x="142" y="226" on="1"/>
        <pt x="142" y="1588" on="1"/>
        <pt x="842" y="1588" on="1"/>
        <pt x="842" y="226" on="1"/>
      </contour>
      <contour>
        <pt x="284" y="368" on="1"/>
        <pt x="700" y="368" on="1"/>
        <pt x="700" y="1447" on="1"/>
        <pt x="284" y="1447" on="1"/>
      </contour>
    </TTGlyph>
    <TTGlyph name="afii57451" xMin="142" yMin="226" xMax="842" yMax="1588">
      <contour>
        <pt x="142" y="226" on="1"/>
        <pt x="142" y="1588" on="1"/>
        <pt x="842" y="1588" on="1"/>
        <pt x="842" y="226" on="1"/>
      </contour>
      <contour>
        <pt x="284" y="368" on="1"/>
        <pt x="700" y="368" on="1"/>
        <pt x="700" y="1447" on="1"/>
        <pt x="284" y="1447" on="1"/>
      </contour>
    </TTGlyph>
    <TTGlyph name="afii57452" xMin="142" yMin="226" xMax="842" yMax="1588">
      <contour>
        <pt x="142" y="226" on="1"/>
        <pt x="142" y="1588" on="1"/>
        <pt x="842" y="1588" on="1"/>
        <pt x="842" y="226" on="1"/>
      </contour>
      <contour>
        <pt x="284" y="368" on="1"/>
        <pt x="700" y="368" on="1"/>
        <pt x="700" y="1447" on="1"/>
        <pt x="284" y="1447" on="1"/>
      </contour>
    </TTGlyph>
    <TTGlyph name="afii57453" xMin="142" yMin="226" xMax="842" yMax="1588">
      <contour>
        <pt x="142" y="226" on="1"/>
        <pt x="142" y="1588" on="1"/>
        <pt x="842" y="1588" on="1"/>
        <pt x="842" y="226" on="1"/>
      </contour>
      <contour>
        <pt x="284" y="368" on="1"/>
        <pt x="700" y="368" on="1"/>
        <pt x="700" y="1447" on="1"/>
        <pt x="284" y="1447" on="1"/>
      </contour>
    </TTGlyph>
    <TTGlyph name="afii57454" xMin="142" yMin="226" xMax="842" yMax="1588">
      <contour>
        <pt x="142" y="226" on="1"/>
        <pt x="142" y="1588" on="1"/>
        <pt x="842" y="1588" on="1"/>
        <pt x="842" y="226" on="1"/>
      </contour>
      <contour>
        <pt x="284" y="368" on="1"/>
        <pt x="700" y="368" on="1"/>
        <pt x="700" y="1447" on="1"/>
        <pt x="284" y="1447" on="1"/>
      </contour>
    </TTGlyph>
    <TTGlyph name="afii57455" xMin="142" yMin="226" xMax="842" yMax="1588">
      <contour>
        <pt x="142" y="226" on="1"/>
        <pt x="142" y="1588" on="1"/>
        <pt x="842" y="1588" on="1"/>
        <pt x="842" y="226" on="1"/>
      </contour>
      <contour>
        <pt x="284" y="368" on="1"/>
        <pt x="700" y="368" on="1"/>
        <pt x="700" y="1447" on="1"/>
        <pt x="284" y="1447" on="1"/>
      </contour>
    </TTGlyph>
    <TTGlyph name="afii57456" xMin="142" yMin="226" xMax="842" yMax="1588">
      <contour>
        <pt x="142" y="226" on="1"/>
        <pt x="142" y="1588" on="1"/>
        <pt x="842" y="1588" on="1"/>
        <pt x="842" y="226" on="1"/>
      </contour>
      <contour>
        <pt x="284" y="368" on="1"/>
        <pt x="700" y="368" on="1"/>
        <pt x="700" y="1447" on="1"/>
        <pt x="284" y="1447" on="1"/>
      </contour>
    </TTGlyph>
    <TTGlyph name="afii57457" xMin="142" yMin="226" xMax="842" yMax="1588">
      <contour>
        <pt x="142" y="226" on="1"/>
        <pt x="142" y="1588" on="1"/>
        <pt x="842" y="1588" on="1"/>
        <pt x="842" y="226" on="1"/>
      </contour>
      <contour>
        <pt x="284" y="368" on="1"/>
        <pt x="700" y="368" on="1"/>
        <pt x="700" y="1447" on="1"/>
        <pt x="284" y="1447" on="1"/>
      </contour>
    </TTGlyph>
    <TTGlyph name="afii57458" xMin="142" yMin="226" xMax="842" yMax="1588">
      <contour>
        <pt x="142" y="226" on="1"/>
        <pt x="142" y="1588" on="1"/>
        <pt x="842" y="1588" on="1"/>
        <pt x="842" y="226" on="1"/>
      </contour>
      <contour>
        <pt x="284" y="368" on="1"/>
        <pt x="700" y="368" on="1"/>
        <pt x="700" y="1447" on="1"/>
        <pt x="284" y="1447" on="1"/>
      </contour>
    </TTGlyph>
    <TTGlyph name="afii57505" xMin="142" yMin="226" xMax="842" yMax="1588">
      <contour>
        <pt x="142" y="226" on="1"/>
        <pt x="142" y="1588" on="1"/>
        <pt x="842" y="1588" on="1"/>
        <pt x="842" y="226" on="1"/>
      </contour>
      <contour>
        <pt x="284" y="368" on="1"/>
        <pt x="700" y="368" on="1"/>
        <pt x="700" y="1447" on="1"/>
        <pt x="284" y="1447" on="1"/>
      </contour>
    </TTGlyph>
    <TTGlyph name="afii57506" xMin="142" yMin="226" xMax="842" yMax="1588">
      <contour>
        <pt x="142" y="226" on="1"/>
        <pt x="142" y="1588" on="1"/>
        <pt x="842" y="1588" on="1"/>
        <pt x="842" y="226" on="1"/>
      </contour>
      <contour>
        <pt x="284" y="368" on="1"/>
        <pt x="700" y="368" on="1"/>
        <pt x="700" y="1447" on="1"/>
        <pt x="284" y="1447" on="1"/>
      </contour>
    </TTGlyph>
    <TTGlyph name="afii57507" xMin="142" yMin="226" xMax="842" yMax="1588">
      <contour>
        <pt x="142" y="226" on="1"/>
        <pt x="142" y="1588" on="1"/>
        <pt x="842" y="1588" on="1"/>
        <pt x="842" y="226" on="1"/>
      </contour>
      <contour>
        <pt x="284" y="368" on="1"/>
        <pt x="700" y="368" on="1"/>
        <pt x="700" y="1447" on="1"/>
        <pt x="284" y="1447" on="1"/>
      </contour>
    </TTGlyph>
    <TTGlyph name="afii57508" xMin="142" yMin="226" xMax="842" yMax="1588">
      <contour>
        <pt x="142" y="226" on="1"/>
        <pt x="142" y="1588" on="1"/>
        <pt x="842" y="1588" on="1"/>
        <pt x="842" y="226" on="1"/>
      </contour>
      <contour>
        <pt x="284" y="368" on="1"/>
        <pt x="700" y="368" on="1"/>
        <pt x="700" y="1447" on="1"/>
        <pt x="284" y="1447" on="1"/>
      </contour>
    </TTGlyph>
    <TTGlyph name="afii57509" xMin="142" yMin="226" xMax="842" yMax="1588">
      <contour>
        <pt x="142" y="226" on="1"/>
        <pt x="142" y="1588" on="1"/>
        <pt x="842" y="1588" on="1"/>
        <pt x="842" y="226" on="1"/>
      </contour>
      <contour>
        <pt x="284" y="368" on="1"/>
        <pt x="700" y="368" on="1"/>
        <pt x="700" y="1447" on="1"/>
        <pt x="284" y="1447" on="1"/>
      </contour>
    </TTGlyph>
    <TTGlyph name="afii57511" xMin="142" yMin="226" xMax="842" yMax="1588">
      <contour>
        <pt x="142" y="226" on="1"/>
        <pt x="142" y="1588" on="1"/>
        <pt x="842" y="1588" on="1"/>
        <pt x="842" y="226" on="1"/>
      </contour>
      <contour>
        <pt x="284" y="368" on="1"/>
        <pt x="700" y="368" on="1"/>
        <pt x="700" y="1447" on="1"/>
        <pt x="284" y="1447" on="1"/>
      </contour>
    </TTGlyph>
    <TTGlyph name="afii57512" xMin="142" yMin="226" xMax="842" yMax="1588">
      <contour>
        <pt x="142" y="226" on="1"/>
        <pt x="142" y="1588" on="1"/>
        <pt x="842" y="1588" on="1"/>
        <pt x="842" y="226" on="1"/>
      </contour>
      <contour>
        <pt x="284" y="368" on="1"/>
        <pt x="700" y="368" on="1"/>
        <pt x="700" y="1447" on="1"/>
        <pt x="284" y="1447" on="1"/>
      </contour>
    </TTGlyph>
    <TTGlyph name="afii57513" xMin="142" yMin="226" xMax="842" yMax="1588">
      <contour>
        <pt x="142" y="226" on="1"/>
        <pt x="142" y="1588" on="1"/>
        <pt x="842" y="1588" on="1"/>
        <pt x="842" y="226" on="1"/>
      </contour>
      <contour>
        <pt x="284" y="368" on="1"/>
        <pt x="700" y="368" on="1"/>
        <pt x="700" y="1447" on="1"/>
        <pt x="284" y="1447" on="1"/>
      </contour>
    </TTGlyph>
    <TTGlyph name="afii57514" xMin="142" yMin="226" xMax="842" yMax="1588">
      <contour>
        <pt x="142" y="226" on="1"/>
        <pt x="142" y="1588" on="1"/>
        <pt x="842" y="1588" on="1"/>
        <pt x="842" y="226" on="1"/>
      </contour>
      <contour>
        <pt x="284" y="368" on="1"/>
        <pt x="700" y="368" on="1"/>
        <pt x="700" y="1447" on="1"/>
        <pt x="284" y="1447" on="1"/>
      </contour>
    </TTGlyph>
    <TTGlyph name="afii57519" xMin="142" yMin="226" xMax="842" yMax="1588">
      <contour>
        <pt x="142" y="226" on="1"/>
        <pt x="142" y="1588" on="1"/>
        <pt x="842" y="1588" on="1"/>
        <pt x="842" y="226" on="1"/>
      </contour>
      <contour>
        <pt x="284" y="368" on="1"/>
        <pt x="700" y="368" on="1"/>
        <pt x="700" y="1447" on="1"/>
        <pt x="284" y="1447" on="1"/>
      </contour>
    </TTGlyph>
    <TTGlyph name="afii57534" xMin="142" yMin="226" xMax="842" yMax="1588">
      <contour>
        <pt x="142" y="226" on="1"/>
        <pt x="142" y="1588" on="1"/>
        <pt x="842" y="1588" on="1"/>
        <pt x="842" y="226" on="1"/>
      </contour>
      <contour>
        <pt x="284" y="368" on="1"/>
        <pt x="700" y="368" on="1"/>
        <pt x="700" y="1447" on="1"/>
        <pt x="284" y="1447" on="1"/>
      </contour>
    </TTGlyph>
    <TTGlyph name="afii63167" xMin="142" yMin="226" xMax="842" yMax="1588">
      <contour>
        <pt x="142" y="226" on="1"/>
        <pt x="142" y="1588" on="1"/>
        <pt x="842" y="1588" on="1"/>
        <pt x="842" y="226" on="1"/>
      </contour>
      <contour>
        <pt x="284" y="368" on="1"/>
        <pt x="700" y="368" on="1"/>
        <pt x="700" y="1447" on="1"/>
        <pt x="284" y="1447" on="1"/>
      </contour>
    </TTGlyph>
    <TTGlyph name="alefmaksurainitial" xMin="142" yMin="226" xMax="842" yMax="1588">
      <contour>
        <pt x="142" y="226" on="1"/>
        <pt x="142" y="1588" on="1"/>
        <pt x="842" y="1588" on="1"/>
        <pt x="842" y="226" on="1"/>
      </contour>
      <contour>
        <pt x="284" y="368" on="1"/>
        <pt x="700" y="368" on="1"/>
        <pt x="700" y="1447" on="1"/>
        <pt x="284" y="1447" on="1"/>
      </contour>
    </TTGlyph>
    <TTGlyph name="alefwaslafinalarabic" xMin="142" yMin="226" xMax="842" yMax="1588">
      <contour>
        <pt x="142" y="226" on="1"/>
        <pt x="142" y="1588" on="1"/>
        <pt x="842" y="1588" on="1"/>
        <pt x="842" y="226" on="1"/>
      </contour>
      <contour>
        <pt x="284" y="368" on="1"/>
        <pt x="700" y="368" on="1"/>
        <pt x="700" y="1447" on="1"/>
        <pt x="284" y="1447" on="1"/>
      </contour>
    </TTGlyph>
    <TTGlyph name="ampersand" xMin="142" yMin="226" xMax="842" yMax="1588">
      <contour>
        <pt x="142" y="226" on="1"/>
        <pt x="142" y="1588" on="1"/>
        <pt x="842" y="1588" on="1"/>
        <pt x="842" y="226" on="1"/>
      </contour>
      <contour>
        <pt x="284" y="368" on="1"/>
        <pt x="700" y="368" on="1"/>
        <pt x="700" y="1447" on="1"/>
        <pt x="284" y="1447" on="1"/>
      </contour>
    </TTGlyph>
    <TTGlyph name="asterisk" xMin="142" yMin="226" xMax="842" yMax="1588">
      <contour>
        <pt x="142" y="226" on="1"/>
        <pt x="142" y="1588" on="1"/>
        <pt x="842" y="1588" on="1"/>
        <pt x="842" y="226" on="1"/>
      </contour>
      <contour>
        <pt x="284" y="368" on="1"/>
        <pt x="700" y="368" on="1"/>
        <pt x="700" y="1447" on="1"/>
        <pt x="284" y="1447" on="1"/>
      </contour>
    </TTGlyph>
    <TTGlyph name="behmeemisolatedarabic" xMin="142" yMin="226" xMax="842" yMax="1588">
      <contour>
        <pt x="142" y="226" on="1"/>
        <pt x="142" y="1588" on="1"/>
        <pt x="842" y="1588" on="1"/>
        <pt x="842" y="226" on="1"/>
      </contour>
      <contour>
        <pt x="284" y="368" on="1"/>
        <pt x="700" y="368" on="1"/>
        <pt x="700" y="1447" on="1"/>
        <pt x="284" y="1447" on="1"/>
      </contour>
    </TTGlyph>
    <TTGlyph name="behnoonfinalarabic" xMin="142" yMin="226" xMax="842" yMax="1588">
      <contour>
        <pt x="142" y="226" on="1"/>
        <pt x="142" y="1588" on="1"/>
        <pt x="842" y="1588" on="1"/>
        <pt x="842" y="226" on="1"/>
      </contour>
      <contour>
        <pt x="284" y="368" on="1"/>
        <pt x="700" y="368" on="1"/>
        <pt x="700" y="1447" on="1"/>
        <pt x="284" y="1447" on="1"/>
      </contour>
    </TTGlyph>
    <TTGlyph name="colon" xMin="142" yMin="226" xMax="842" yMax="1588">
      <contour>
        <pt x="142" y="226" on="1"/>
        <pt x="142" y="1588" on="1"/>
        <pt x="842" y="1588" on="1"/>
        <pt x="842" y="226" on="1"/>
      </contour>
      <contour>
        <pt x="284" y="368" on="1"/>
        <pt x="700" y="368" on="1"/>
        <pt x="700" y="1447" on="1"/>
        <pt x="284" y="1447" on="1"/>
      </contour>
    </TTGlyph>
    <TTGlyph name="dagger" xMin="142" yMin="226" xMax="842" yMax="1588">
      <contour>
        <pt x="142" y="226" on="1"/>
        <pt x="142" y="1588" on="1"/>
        <pt x="842" y="1588" on="1"/>
        <pt x="842" y="226" on="1"/>
      </contour>
      <contour>
        <pt x="284" y="368" on="1"/>
        <pt x="700" y="368" on="1"/>
        <pt x="700" y="1447" on="1"/>
        <pt x="284" y="1447" on="1"/>
      </contour>
    </TTGlyph>
    <TTGlyph name="dalringfinal" xMin="142" yMin="226" xMax="842" yMax="1588">
      <contour>
        <pt x="142" y="226" on="1"/>
        <pt x="142" y="1588" on="1"/>
        <pt x="842" y="1588" on="1"/>
        <pt x="842" y="226" on="1"/>
      </contour>
      <contour>
        <pt x="284" y="368" on="1"/>
        <pt x="700" y="368" on="1"/>
        <pt x="700" y="1447" on="1"/>
        <pt x="284" y="1447" on="1"/>
      </contour>
    </TTGlyph>
    <TTGlyph name="ddalfinalarabic" xMin="142" yMin="226" xMax="842" yMax="1588">
      <contour>
        <pt x="142" y="226" on="1"/>
        <pt x="142" y="1588" on="1"/>
        <pt x="842" y="1588" on="1"/>
        <pt x="842" y="226" on="1"/>
      </contour>
      <contour>
        <pt x="284" y="368" on="1"/>
        <pt x="700" y="368" on="1"/>
        <pt x="700" y="1447" on="1"/>
        <pt x="284" y="1447" on="1"/>
      </contour>
    </TTGlyph>
    <TTGlyph name="divide" xMin="142" yMin="226" xMax="842" yMax="1588">
      <contour>
        <pt x="142" y="226" on="1"/>
        <pt x="142" y="1588" on="1"/>
        <pt x="842" y="1588" on="1"/>
        <pt x="842" y="226" on="1"/>
      </contour>
      <contour>
        <pt x="284" y="368" on="1"/>
        <pt x="700" y="368" on="1"/>
        <pt x="700" y="1447" on="1"/>
        <pt x="284" y="1447" on="1"/>
      </contour>
    </TTGlyph>
    <TTGlyph name="dollar" xMin="142" yMin="226" xMax="842" yMax="1588">
      <contour>
        <pt x="142" y="226" on="1"/>
        <pt x="142" y="1588" on="1"/>
        <pt x="842" y="1588" on="1"/>
        <pt x="842" y="226" on="1"/>
      </contour>
      <contour>
        <pt x="284" y="368" on="1"/>
        <pt x="700" y="368" on="1"/>
        <pt x="700" y="1447" on="1"/>
        <pt x="284" y="1447" on="1"/>
      </contour>
    </TTGlyph>
    <TTGlyph name="dotlessyehfinalarabic" xMin="142" yMin="226" xMax="842" yMax="1588">
      <contour>
        <pt x="142" y="226" on="1"/>
        <pt x="142" y="1588" on="1"/>
        <pt x="842" y="1588" on="1"/>
        <pt x="842" y="226" on="1"/>
      </contour>
      <contour>
        <pt x="284" y="368" on="1"/>
        <pt x="700" y="368" on="1"/>
        <pt x="700" y="1447" on="1"/>
        <pt x="284" y="1447" on="1"/>
      </contour>
    </TTGlyph>
    <TTGlyph name="dotlessyehinitialarabic" xMin="142" yMin="226" xMax="842" yMax="1588">
      <contour>
        <pt x="142" y="226" on="1"/>
        <pt x="142" y="1588" on="1"/>
        <pt x="842" y="1588" on="1"/>
        <pt x="842" y="226" on="1"/>
      </contour>
      <contour>
        <pt x="284" y="368" on="1"/>
        <pt x="700" y="368" on="1"/>
        <pt x="700" y="1447" on="1"/>
        <pt x="284" y="1447" on="1"/>
      </contour>
    </TTGlyph>
    <TTGlyph name="dotlessyehmedialarabic" xMin="142" yMin="226" xMax="842" yMax="1588">
      <contour>
        <pt x="142" y="226" on="1"/>
        <pt x="142" y="1588" on="1"/>
        <pt x="842" y="1588" on="1"/>
        <pt x="842" y="226" on="1"/>
      </contour>
      <contour>
        <pt x="284" y="368" on="1"/>
        <pt x="700" y="368" on="1"/>
        <pt x="700" y="1447" on="1"/>
        <pt x="284" y="1447" on="1"/>
      </contour>
    </TTGlyph>
    <TTGlyph name="elefmaksuramedial" xMin="142" yMin="226" xMax="842" yMax="1588">
      <contour>
        <pt x="142" y="226" on="1"/>
        <pt x="142" y="1588" on="1"/>
        <pt x="842" y="1588" on="1"/>
        <pt x="842" y="226" on="1"/>
      </contour>
      <contour>
        <pt x="284" y="368" on="1"/>
        <pt x="700" y="368" on="1"/>
        <pt x="700" y="1447" on="1"/>
        <pt x="284" y="1447" on="1"/>
      </contour>
    </TTGlyph>
    <TTGlyph name="ellipsis" xMin="142" yMin="226" xMax="842" yMax="1588">
      <contour>
        <pt x="142" y="226" on="1"/>
        <pt x="142" y="1588" on="1"/>
        <pt x="842" y="1588" on="1"/>
        <pt x="842" y="226" on="1"/>
      </contour>
      <contour>
        <pt x="284" y="368" on="1"/>
        <pt x="700" y="368" on="1"/>
        <pt x="700" y="1447" on="1"/>
        <pt x="284" y="1447" on="1"/>
      </contour>
    </TTGlyph>
    <TTGlyph name="emdash" xMin="30" yMin="-122" xMax="2078" yMax="1781">
      <contour>
        <pt x="1812" y="1443" on="1"/>
        <pt x="1812" y="1410" on="0"/>
        <pt x="1600" y="1306" on="1"/>
        <pt x="1450" y="1232" on="0"/>
        <pt x="1341" y="1189" on="1"/>
        <pt x="1281" y="1189" on="1"/>
        <pt x="1294" y="1217" on="0"/>
        <pt x="1311" y="1257" on="1"/>
        <pt x="1530" y="1392" on="0"/>
        <pt x="1793" y="1474" on="1"/>
        <pt x="1812" y="1460" on="0"/>
      </contour>
      <contour>
        <pt x="1187" y="1751" on="1"/>
        <pt x="1187" y="1706" on="0"/>
        <pt x="933" y="1602" on="1"/>
        <pt x="758" y="1534" on="0"/>
        <pt x="584" y="1466" on="1"/>
        <pt x="523" y="1466" on="1"/>
        <pt x="546" y="1538" on="0"/>
        <pt x="578" y="1552" on="1"/>
        <pt x="837" y="1662" on="0"/>
        <pt x="1168" y="1781" on="1"/>
        <pt x="1187" y="1767" on="0"/>
      </contour>
      <contour>
        <pt x="1161" y="1362" on="1"/>
        <pt x="1161" y="1280" on="0"/>
        <pt x="1024" y="1223" on="1"/>
        <pt x="915" y="1177" on="0"/>
        <pt x="828" y="1177" on="1"/>
        <pt x="785" y="1177" on="0"/>
        <pt x="758" y="1202" on="1"/>
        <pt x="734" y="1221" on="0"/>
        <pt x="734" y="1244" on="1"/>
        <pt x="734" y="1275" on="0"/>
        <pt x="792" y="1340" on="1"/>
        <pt x="804" y="1340" on="0"/>
        <pt x="871" y="1311" on="0"/>
        <pt x="886" y="1310" on="1"/>
        <pt x="897" y="1319" on="0"/>
        <pt x="953" y="1371" on="0"/>
        <pt x="967" y="1382" on="1"/>
        <pt x="980" y="1377" on="0"/>
        <pt x="1022" y="1357" on="0"/>
        <pt x="1035" y="1352" on="1"/>
        <pt x="1068" y="1364" on="0"/>
        <pt x="1097" y="1411" on="1"/>
        <pt x="1146" y="1411" on="1"/>
        <pt x="1146" y="1408" on="0"/>
        <pt x="1161" y="1376" on="0"/>
      </contour>
      <contour>
        <pt x="2078" y="1130" on="1"/>
        <pt x="2078" y="1062" on="0"/>
        <pt x="1942" y="994" on="1"/>
        <pt x="1828" y="940" on="0"/>
        <pt x="1717" y="888" on="1"/>
        <pt x="1678" y="865" on="0"/>
        <pt x="1479" y="765" on="1"/>
        <pt x="1335" y="692" on="0"/>
        <pt x="1240" y="618" on="1"/>
        <pt x="1281" y="569" on="0"/>
        <pt x="1363" y="531" on="1"/>
        <pt x="1433" y="498" on="0"/>
        <pt x="1504" y="466" on="1"/>
        <pt x="1652" y="383" on="0"/>
        <pt x="1652" y="235" on="1"/>
        <pt x="1652" y="101" on="0"/>
        <pt x="1531" y="29" on="1"/>
        <pt x="1428" y="-31" on="0"/>
        <pt x="1274" y="-31" on="1"/>
        <pt x="1157" y="-31" on="0"/>
        <pt x="1112" y="11" on="1"/>
        <pt x="1085" y="37" on="0"/>
        <pt x="1072" y="113" on="1"/>
        <pt x="1057" y="202" on="0"/>
        <pt x="1031" y="247" on="1"/>
        <pt x="985" y="240" on="0"/>
        <pt x="955" y="183" on="1"/>
        <pt x="906" y="89" on="0"/>
        <pt x="902" y="84" on="1"/>
        <pt x="816" y="-21" on="0"/>
        <pt x="663" y="-58" on="1"/>
        <pt x="576" y="-80" on="0"/>
        <pt x="428" y="-103" on="1"/>
        <pt x="294" y="-122" on="0"/>
        <pt x="263" y="-122" on="1"/>
        <pt x="243" y="-122" on="0"/>
        <pt x="221" y="-111" on="0"/>
        <pt x="217" y="-111" on="1"/>
        <pt x="217" y="-79" on="0"/>
        <pt x="246" y="-66" on="1"/>
        <pt x="386" y="-22" on="0"/>
        <pt x="528" y="20" on="1"/>
        <pt x="703" y="83" on="0"/>
        <pt x="811" y="183" on="1"/>
        <pt x="838" y="207" on="0"/>
        <pt x="898" y="334" on="1"/>
        <pt x="963" y="472" on="0"/>
        <pt x="975" y="663" on="1"/>
        <pt x="992" y="921" on="0"/>
        <pt x="1005" y="978" on="1"/>
        <pt x="1010" y="1008" on="0"/>
        <pt x="1062" y="1044" on="1"/>
        <pt x="1097" y="1008" on="0"/>
        <pt x="1110" y="871" on="1"/>
        <pt x="1122" y="745" on="0"/>
        <pt x="1181" y="717" on="1"/>
        <pt x="2030" y="1166" on="1"/>
        <pt x="2078" y="1166" on="1"/>
      </contour>
      <contour>
        <pt x="802" y="312" on="1"/>
        <pt x="802" y="301" on="0"/>
        <pt x="788" y="269" on="0"/>
        <pt x="788" y="259" on="1"/>
        <pt x="786" y="257" on="0"/>
        <pt x="785" y="256" on="1"/>
        <pt x="772" y="246" on="0"/>
        <pt x="749" y="246" on="1"/>
        <pt x="725" y="246" on="0"/>
        <pt x="712" y="259" on="1"/>
        <pt x="671" y="359" on="0"/>
        <pt x="563" y="471" on="1"/>
        <pt x="447" y="589" on="0"/>
        <pt x="312" y="663" on="1"/>
        <pt x="243" y="676" on="0"/>
        <pt x="174" y="688" on="1"/>
        <pt x="57" y="714" on="0"/>
        <pt x="33" y="772" on="1"/>
        <pt x="30" y="780" on="0"/>
        <pt x="30" y="850" on="1"/>
        <pt x="30" y="904" on="0"/>
        <pt x="30" y="907" on="1"/>
        <pt x="40" y="952" on="0"/>
        <pt x="90" y="952" on="1"/>
        <pt x="124" y="952" on="0"/>
        <pt x="239" y="892" on="1"/>
        <pt x="415" y="802" on="0"/>
        <pt x="603" y="614" on="1"/>
        <pt x="802" y="416" on="0"/>
      </contour>
      <contour>
        <pt x="1547" y="210" on="1"/>
        <pt x="1547" y="254" on="0"/>
        <pt x="1397" y="339" on="1"/>
        <pt x="1257" y="419" on="0"/>
        <pt x="1214" y="419" on="1"/>
        <pt x="1161" y="419" on="0"/>
        <pt x="1161" y="287" on="1"/>
        <pt x="1161" y="215" on="0"/>
        <pt x="1174" y="187" on="1"/>
        <pt x="1205" y="123" on="0"/>
        <pt x="1306" y="123" on="1"/>
        <pt x="1354" y="123" on="0"/>
        <pt x="1439" y="145" on="1"/>
        <pt x="1547" y="173" on="0"/>
      </contour>
    </TTGlyph>
    <TTGlyph name="endash" xMin="30" yMin="-122" xMax="1054" yMax="1781">
      <contour>
        <pt x="921" y="1443" on="1"/>
        <pt x="921" y="1410" on="0"/>
        <pt x="815" y="1306" on="1"/>
        <pt x="740" y="1232" on="0"/>
        <pt x="686" y="1189" on="1"/>
        <pt x="656" y="1189" on="1"/>
        <pt x="662" y="1217" on="0"/>
        <pt x="671" y="1257" on="1"/>
        <pt x="780" y="1392" on="0"/>
        <pt x="912" y="1474" on="1"/>
        <pt x="921" y="1460" on="0"/>
      </contour>
      <contour>
        <pt x="608" y="1751" on="1"/>
        <pt x="608" y="1706" on="0"/>
        <pt x="482" y="1602" on="1"/>
        <pt x="394" y="1534" on="0"/>
        <pt x="307" y="1466" on="1"/>
        <pt x="276" y="1466" on="1"/>
        <pt x="288" y="1538" on="0"/>
        <pt x="304" y="1552" on="1"/>
        <pt x="433" y="1662" on="0"/>
        <pt x="599" y="1781" on="1"/>
        <pt x="608" y="1767" on="0"/>
      </contour>
      <contour>
        <pt x="595" y="1362" on="1"/>
        <pt x="595" y="1280" on="0"/>
        <pt x="527" y="1223" on="1"/>
        <pt x="472" y="1177" on="0"/>
        <pt x="429" y="1177" on="1"/>
        <pt x="408" y="1177" on="0"/>
        <pt x="394" y="1202" on="1"/>
        <pt x="382" y="1221" on="0"/>
        <pt x="382" y="1244" on="1"/>
        <pt x="382" y="1275" on="0"/>
        <pt x="411" y="1340" on="1"/>
        <pt x="417" y="1340" on="0"/>
        <pt x="450" y="1311" on="0"/>
        <pt x="458" y="1310" on="1"/>
        <pt x="463" y="1319" on="0"/>
        <pt x="491" y="1371" on="0"/>
        <pt x="498" y="1382" on="1"/>
        <pt x="505" y="1377" on="0"/>
        <pt x="526" y="1357" on="0"/>
        <pt x="532" y="1352" on="1"/>
        <pt x="549" y="1364" on="0"/>
        <pt x="563" y="1411" on="1"/>
        <pt x="588" y="1411" on="1"/>
        <pt x="588" y="1408" on="0"/>
        <pt x="595" y="1376" on="0"/>
      </contour>
      <contour>
        <pt x="1054" y="1130" on="1"/>
        <pt x="1054" y="1062" on="0"/>
        <pt x="986" y="994" on="1"/>
        <pt x="929" y="940" on="0"/>
        <pt x="873" y="888" on="1"/>
        <pt x="854" y="865" on="0"/>
        <pt x="754" y="765" on="1"/>
        <pt x="682" y="692" on="0"/>
        <pt x="635" y="618" on="1"/>
        <pt x="656" y="569" on="0"/>
        <pt x="697" y="531" on="1"/>
        <pt x="732" y="498" on="0"/>
        <pt x="767" y="466" on="1"/>
        <pt x="841" y="383" on="0"/>
        <pt x="841" y="235" on="1"/>
        <pt x="841" y="101" on="0"/>
        <pt x="780" y="29" on="1"/>
        <pt x="729" y="-31" on="0"/>
        <pt x="652" y="-31" on="1"/>
        <pt x="593" y="-31" on="0"/>
        <pt x="571" y="11" on="1"/>
        <pt x="558" y="37" on="0"/>
        <pt x="551" y="113" on="1"/>
        <pt x="543" y="202" on="0"/>
        <pt x="530" y="247" on="1"/>
        <pt x="508" y="240" on="0"/>
        <pt x="493" y="183" on="1"/>
        <pt x="468" y="89" on="0"/>
        <pt x="466" y="84" on="1"/>
        <pt x="423" y="-21" on="0"/>
        <pt x="346" y="-58" on="1"/>
        <pt x="303" y="-80" on="0"/>
        <pt x="229" y="-103" on="1"/>
        <pt x="162" y="-122" on="0"/>
        <pt x="146" y="-122" on="1"/>
        <pt x="137" y="-122" on="0"/>
        <pt x="126" y="-111" on="0"/>
        <pt x="124" y="-111" on="1"/>
        <pt x="124" y="-79" on="0"/>
        <pt x="138" y="-66" on="1"/>
        <pt x="208" y="-22" on="0"/>
        <pt x="279" y="20" on="1"/>
        <pt x="367" y="83" on="0"/>
        <pt x="420" y="183" on="1"/>
        <pt x="434" y="207" on="0"/>
        <pt x="464" y="334" on="1"/>
        <pt x="497" y="472" on="0"/>
        <pt x="502" y="663" on="1"/>
        <pt x="511" y="921" on="0"/>
        <pt x="517" y="978" on="1"/>
        <pt x="520" y="1008" on="0"/>
        <pt x="546" y="1044" on="1"/>
        <pt x="563" y="1008" on="0"/>
        <pt x="570" y="871" on="1"/>
        <pt x="576" y="745" on="0"/>
        <pt x="606" y="717" on="1"/>
        <pt x="1030" y="1166" on="1"/>
        <pt x="1054" y="1166" on="1"/>
      </contour>
      <contour>
        <pt x="416" y="312" on="1"/>
        <pt x="416" y="301" on="0"/>
        <pt x="409" y="269" on="0"/>
        <pt x="409" y="259" on="1"/>
        <pt x="408" y="257" on="0"/>
        <pt x="408" y="256" on="1"/>
        <pt x="401" y="246" on="0"/>
        <pt x="389" y="246" on="1"/>
        <pt x="378" y="246" on="0"/>
        <pt x="371" y="259" on="1"/>
        <pt x="350" y="359" on="0"/>
        <pt x="296" y="471" on="1"/>
        <pt x="239" y="589" on="0"/>
        <pt x="171" y="663" on="1"/>
        <pt x="137" y="676" on="0"/>
        <pt x="102" y="688" on="1"/>
        <pt x="44" y="714" on="0"/>
        <pt x="31" y="772" on="1"/>
        <pt x="30" y="780" on="0"/>
        <pt x="30" y="850" on="1"/>
        <pt x="30" y="904" on="0"/>
        <pt x="30" y="907" on="1"/>
        <pt x="35" y="952" on="0"/>
        <pt x="60" y="952" on="1"/>
        <pt x="77" y="952" on="0"/>
        <pt x="135" y="892" on="1"/>
        <pt x="222" y="802" on="0"/>
        <pt x="317" y="614" on="1"/>
        <pt x="416" y="416" on="0"/>
      </contour>
      <contour>
        <pt x="788" y="210" on="1"/>
        <pt x="788" y="254" on="0"/>
        <pt x="714" y="339" on="1"/>
        <pt x="643" y="419" on="0"/>
        <pt x="622" y="419" on="1"/>
        <pt x="595" y="419" on="0"/>
        <pt x="595" y="287" on="1"/>
        <pt x="595" y="215" on="0"/>
        <pt x="602" y="187" on="1"/>
        <pt x="617" y="123" on="0"/>
        <pt x="668" y="123" on="1"/>
        <pt x="692" y="123" on="0"/>
        <pt x="734" y="145" on="1"/>
        <pt x="788" y="173" on="0"/>
      </contour>
    </TTGlyph>
    <TTGlyph name="equal" xMin="142" yMin="226" xMax="842" yMax="1588">
      <contour>
        <pt x="142" y="226" on="1"/>
        <pt x="142" y="1588" on="1"/>
        <pt x="842" y="1588" on="1"/>
        <pt x="842" y="226" on="1"/>
      </contour>
      <contour>
        <pt x="284" y="368" on="1"/>
        <pt x="700" y="368" on="1"/>
        <pt x="700" y="1447" on="1"/>
        <pt x="284" y="1447" on="1"/>
      </contour>
    </TTGlyph>
    <TTGlyph name="exclam" xMin="142" yMin="226" xMax="842" yMax="1588">
      <contour>
        <pt x="142" y="226" on="1"/>
        <pt x="142" y="1588" on="1"/>
        <pt x="842" y="1588" on="1"/>
        <pt x="842" y="226" on="1"/>
      </contour>
      <contour>
        <pt x="284" y="368" on="1"/>
        <pt x="700" y="368" on="1"/>
        <pt x="700" y="1447" on="1"/>
        <pt x="284" y="1447" on="1"/>
      </contour>
    </TTGlyph>
    <TTGlyph name="figuredash" xMin="30" yMin="-122" xMax="1606" yMax="1781">
      <contour>
        <pt x="1401" y="1443" on="1"/>
        <pt x="1401" y="1410" on="0"/>
        <pt x="1238" y="1306" on="1"/>
        <pt x="1123" y="1232" on="0"/>
        <pt x="1039" y="1189" on="1"/>
        <pt x="993" y="1189" on="1"/>
        <pt x="1003" y="1217" on="0"/>
        <pt x="1016" y="1257" on="1"/>
        <pt x="1184" y="1392" on="0"/>
        <pt x="1387" y="1474" on="1"/>
        <pt x="1401" y="1460" on="0"/>
      </contour>
      <contour>
        <pt x="920" y="1751" on="1"/>
        <pt x="920" y="1706" on="0"/>
        <pt x="725" y="1602" on="1"/>
        <pt x="590" y="1534" on="0"/>
        <pt x="456" y="1466" on="1"/>
        <pt x="409" y="1466" on="1"/>
        <pt x="427" y="1538" on="0"/>
        <pt x="452" y="1552" on="1"/>
        <pt x="651" y="1662" on="0"/>
        <pt x="906" y="1781" on="1"/>
        <pt x="920" y="1767" on="0"/>
      </contour>
      <contour>
        <pt x="900" y="1362" on="1"/>
        <pt x="900" y="1280" on="0"/>
        <pt x="795" y="1223" on="1"/>
        <pt x="711" y="1177" on="0"/>
        <pt x="644" y="1177" on="1"/>
        <pt x="611" y="1177" on="0"/>
        <pt x="590" y="1202" on="1"/>
        <pt x="572" y="1221" on="0"/>
        <pt x="572" y="1244" on="1"/>
        <pt x="572" y="1275" on="0"/>
        <pt x="616" y="1340" on="1"/>
        <pt x="626" y="1340" on="0"/>
        <pt x="677" y="1311" on="0"/>
        <pt x="689" y="1310" on="1"/>
        <pt x="697" y="1319" on="0"/>
        <pt x="740" y="1371" on="0"/>
        <pt x="751" y="1382" on="1"/>
        <pt x="761" y="1377" on="0"/>
        <pt x="793" y="1357" on="0"/>
        <pt x="803" y="1352" on="1"/>
        <pt x="829" y="1364" on="0"/>
        <pt x="851" y="1411" on="1"/>
        <pt x="889" y="1411" on="1"/>
        <pt x="889" y="1408" on="0"/>
        <pt x="900" y="1376" on="0"/>
      </contour>
      <contour>
        <pt x="1606" y="1130" on="1"/>
        <pt x="1606" y="1062" on="0"/>
        <pt x="1501" y="994" on="1"/>
        <pt x="1414" y="940" on="0"/>
        <pt x="1328" y="888" on="1"/>
        <pt x="1298" y="865" on="0"/>
        <pt x="1145" y="765" on="1"/>
        <pt x="1034" y="692" on="0"/>
        <pt x="961" y="618" on="1"/>
        <pt x="993" y="569" on="0"/>
        <pt x="1056" y="531" on="1"/>
        <pt x="1110" y="498" on="0"/>
        <pt x="1164" y="466" on="1"/>
        <pt x="1278" y="383" on="0"/>
        <pt x="1278" y="235" on="1"/>
        <pt x="1278" y="101" on="0"/>
        <pt x="1185" y="29" on="1"/>
        <pt x="1106" y="-31" on="0"/>
        <pt x="987" y="-31" on="1"/>
        <pt x="897" y="-31" on="0"/>
        <pt x="863" y="11" on="1"/>
        <pt x="842" y="37" on="0"/>
        <pt x="832" y="113" on="1"/>
        <pt x="820" y="202" on="0"/>
        <pt x="800" y="247" on="1"/>
        <pt x="765" y="240" on="0"/>
        <pt x="742" y="183" on="1"/>
        <pt x="704" y="89" on="0"/>
        <pt x="701" y="84" on="1"/>
        <pt x="635" y="-21" on="0"/>
        <pt x="517" y="-58" on="1"/>
        <pt x="450" y="-80" on="0"/>
        <pt x="336" y="-103" on="1"/>
        <pt x="233" y="-122" on="0"/>
        <pt x="209" y="-122" on="1"/>
        <pt x="194" y="-122" on="0"/>
        <pt x="177" y="-111" on="0"/>
        <pt x="174" y="-111" on="1"/>
        <pt x="174" y="-79" on="0"/>
        <pt x="196" y="-66" on="1"/>
        <pt x="304" y="-22" on="0"/>
        <pt x="413" y="20" on="1"/>
        <pt x="548" y="83" on="0"/>
        <pt x="631" y="183" on="1"/>
        <pt x="652" y="207" on="0"/>
        <pt x="698" y="334" on="1"/>
        <pt x="748" y="472" on="0"/>
        <pt x="757" y="663" on="1"/>
        <pt x="770" y="921" on="0"/>
        <pt x="780" y="978" on="1"/>
        <pt x="784" y="1008" on="0"/>
        <pt x="824" y="1044" on="1"/>
        <pt x="851" y="1008" on="0"/>
        <pt x="861" y="871" on="1"/>
        <pt x="870" y="745" on="0"/>
        <pt x="916" y="717" on="1"/>
        <pt x="1569" y="1166" on="1"/>
        <pt x="1606" y="1166" on="1"/>
      </contour>
      <contour>
        <pt x="624" y="312" on="1"/>
        <pt x="624" y="301" on="0"/>
        <pt x="613" y="269" on="0"/>
        <pt x="613" y="259" on="1"/>
        <pt x="612" y="257" on="0"/>
        <pt x="611" y="256" on="1"/>
        <pt x="601" y="246" on="0"/>
        <pt x="583" y="246" on="1"/>
        <pt x="565" y="246" on="0"/>
        <pt x="555" y="259" on="1"/>
        <pt x="523" y="359" on="0"/>
        <pt x="440" y="471" on="1"/>
        <pt x="351" y="589" on="0"/>
        <pt x="247" y="663" on="1"/>
        <pt x="194" y="676" on="0"/>
        <pt x="141" y="688" on="1"/>
        <pt x="51" y="714" on="0"/>
        <pt x="32" y="772" on="1"/>
        <pt x="30" y="780" on="0"/>
        <pt x="30" y="850" on="1"/>
        <pt x="30" y="904" on="0"/>
        <pt x="30" y="907" on="1"/>
        <pt x="38" y="952" on="0"/>
        <pt x="76" y="952" on="1"/>
        <pt x="102" y="952" on="0"/>
        <pt x="191" y="892" on="1"/>
        <pt x="326" y="802" on="0"/>
        <pt x="471" y="614" on="1"/>
        <pt x="624" y="416" on="0"/>
      </contour>
      <contour>
        <pt x="1197" y="210" on="1"/>
        <pt x="1197" y="254" on="0"/>
        <pt x="1082" y="339" on="1"/>
        <pt x="974" y="419" on="0"/>
        <pt x="941" y="419" on="1"/>
        <pt x="900" y="419" on="0"/>
        <pt x="900" y="287" on="1"/>
        <pt x="900" y="215" on="0"/>
        <pt x="910" y="187" on="1"/>
        <pt x="934" y="123" on="0"/>
        <pt x="1012" y="123" on="1"/>
        <pt x="1049" y="123" on="0"/>
        <pt x="1114" y="145" on="1"/>
        <pt x="1197" y="173" on="0"/>
      </contour>
    </TTGlyph>
    <TTGlyph name="gaffinalarabic" xMin="142" yMin="226" xMax="842" yMax="1588">
      <contour>
        <pt x="142" y="226" on="1"/>
        <pt x="142" y="1588" on="1"/>
        <pt x="842" y="1588" on="1"/>
        <pt x="842" y="226" on="1"/>
      </contour>
      <contour>
        <pt x="284" y="368" on="1"/>
        <pt x="700" y="368" on="1"/>
        <pt x="700" y="1447" on="1"/>
        <pt x="284" y="1447" on="1"/>
      </contour>
    </TTGlyph>
    <TTGlyph name="gafinitialarabic" xMin="142" yMin="226" xMax="842" yMax="1588">
      <contour>
        <pt x="142" y="226" on="1"/>
        <pt x="142" y="1588" on="1"/>
        <pt x="842" y="1588" on="1"/>
        <pt x="842" y="226" on="1"/>
      </contour>
      <contour>
        <pt x="284" y="368" on="1"/>
        <pt x="700" y="368" on="1"/>
        <pt x="700" y="1447" on="1"/>
        <pt x="284" y="1447" on="1"/>
      </contour>
    </TTGlyph>
    <TTGlyph name="gafmedialarabic" xMin="142" yMin="226" xMax="842" yMax="1588">
      <contour>
        <pt x="142" y="226" on="1"/>
        <pt x="142" y="1588" on="1"/>
        <pt x="842" y="1588" on="1"/>
        <pt x="842" y="226" on="1"/>
      </contour>
      <contour>
        <pt x="284" y="368" on="1"/>
        <pt x="700" y="368" on="1"/>
        <pt x="700" y="1447" on="1"/>
        <pt x="284" y="1447" on="1"/>
      </contour>
    </TTGlyph>
    <TTGlyph name="glyph41" xMin="142" yMin="226" xMax="842" yMax="1588">
      <contour>
        <pt x="142" y="226" on="1"/>
        <pt x="142" y="1588" on="1"/>
        <pt x="842" y="1588" on="1"/>
        <pt x="842" y="226" on="1"/>
      </contour>
      <contour>
        <pt x="284" y="368" on="1"/>
        <pt x="700" y="368" on="1"/>
        <pt x="700" y="1447" on="1"/>
        <pt x="284" y="1447" on="1"/>
      </contour>
    </TTGlyph>
    <TTGlyph name="glyph42" xMin="142" yMin="226" xMax="842" yMax="1588">
      <contour>
        <pt x="142" y="226" on="1"/>
        <pt x="142" y="1588" on="1"/>
        <pt x="842" y="1588" on="1"/>
        <pt x="842" y="226" on="1"/>
      </contour>
      <contour>
        <pt x="284" y="368" on="1"/>
        <pt x="700" y="368" on="1"/>
        <pt x="700" y="1447" on="1"/>
        <pt x="284" y="1447" on="1"/>
      </contour>
    </TTGlyph>
    <TTGlyph name="glyph43" xMin="142" yMin="226" xMax="842" yMax="1588">
      <contour>
        <pt x="142" y="226" on="1"/>
        <pt x="142" y="1588" on="1"/>
        <pt x="842" y="1588" on="1"/>
        <pt x="842" y="226" on="1"/>
      </contour>
      <contour>
        <pt x="284" y="368" on="1"/>
        <pt x="700" y="368" on="1"/>
        <pt x="700" y="1447" on="1"/>
        <pt x="284" y="1447" on="1"/>
      </contour>
    </TTGlyph>
    <TTGlyph name="glyph44" xMin="142" yMin="226" xMax="842" yMax="1588">
      <contour>
        <pt x="142" y="226" on="1"/>
        <pt x="142" y="1588" on="1"/>
        <pt x="842" y="1588" on="1"/>
        <pt x="842" y="226" on="1"/>
      </contour>
      <contour>
        <pt x="284" y="368" on="1"/>
        <pt x="700" y="368" on="1"/>
        <pt x="700" y="1447" on="1"/>
        <pt x="284" y="1447" on="1"/>
      </contour>
    </TTGlyph>
    <TTGlyph name="glyph45" xMin="142" yMin="226" xMax="842" yMax="1588">
      <contour>
        <pt x="142" y="226" on="1"/>
        <pt x="142" y="1588" on="1"/>
        <pt x="842" y="1588" on="1"/>
        <pt x="842" y="226" on="1"/>
      </contour>
      <contour>
        <pt x="284" y="368" on="1"/>
        <pt x="700" y="368" on="1"/>
        <pt x="700" y="1447" on="1"/>
        <pt x="284" y="1447" on="1"/>
      </contour>
    </TTGlyph>
    <TTGlyph name="glyph46" xMin="142" yMin="226" xMax="842" yMax="1588">
      <contour>
        <pt x="142" y="226" on="1"/>
        <pt x="142" y="1588" on="1"/>
        <pt x="842" y="1588" on="1"/>
        <pt x="842" y="226" on="1"/>
      </contour>
      <contour>
        <pt x="284" y="368" on="1"/>
        <pt x="700" y="368" on="1"/>
        <pt x="700" y="1447" on="1"/>
        <pt x="284" y="1447" on="1"/>
      </contour>
    </TTGlyph>
    <TTGlyph name="glyph47" xMin="142" yMin="226" xMax="842" yMax="1588">
      <contour>
        <pt x="142" y="226" on="1"/>
        <pt x="142" y="1588" on="1"/>
        <pt x="842" y="1588" on="1"/>
        <pt x="842" y="226" on="1"/>
      </contour>
      <contour>
        <pt x="284" y="368" on="1"/>
        <pt x="700" y="368" on="1"/>
        <pt x="700" y="1447" on="1"/>
        <pt x="284" y="1447" on="1"/>
      </contour>
    </TTGlyph>
    <TTGlyph name="glyph48" xMin="142" yMin="226" xMax="842" yMax="1588">
      <contour>
        <pt x="142" y="226" on="1"/>
        <pt x="142" y="1588" on="1"/>
        <pt x="842" y="1588" on="1"/>
        <pt x="842" y="226" on="1"/>
      </contour>
      <contour>
        <pt x="284" y="368" on="1"/>
        <pt x="700" y="368" on="1"/>
        <pt x="700" y="1447" on="1"/>
        <pt x="284" y="1447" on="1"/>
      </contour>
    </TTGlyph>
    <TTGlyph name="glyph50" xMin="142" yMin="226" xMax="842" yMax="1588">
      <contour>
        <pt x="142" y="226" on="1"/>
        <pt x="142" y="1588" on="1"/>
        <pt x="842" y="1588" on="1"/>
        <pt x="842" y="226" on="1"/>
      </contour>
      <contour>
        <pt x="284" y="368" on="1"/>
        <pt x="700" y="368" on="1"/>
        <pt x="700" y="1447" on="1"/>
        <pt x="284" y="1447" on="1"/>
      </contour>
    </TTGlyph>
    <TTGlyph name="glyph51" xMin="142" yMin="226" xMax="842" yMax="1588">
      <contour>
        <pt x="142" y="226" on="1"/>
        <pt x="142" y="1588" on="1"/>
        <pt x="842" y="1588" on="1"/>
        <pt x="842" y="226" on="1"/>
      </contour>
      <contour>
        <pt x="284" y="368" on="1"/>
        <pt x="700" y="368" on="1"/>
        <pt x="700" y="1447" on="1"/>
        <pt x="284" y="1447" on="1"/>
      </contour>
    </TTGlyph>
    <TTGlyph name="greater" xMin="142" yMin="226" xMax="842" yMax="1588">
      <contour>
        <pt x="142" y="226" on="1"/>
        <pt x="142" y="1588" on="1"/>
        <pt x="842" y="1588" on="1"/>
        <pt x="842" y="226" on="1"/>
      </contour>
      <contour>
        <pt x="284" y="368" on="1"/>
        <pt x="700" y="368" on="1"/>
        <pt x="700" y="1447" on="1"/>
        <pt x="284" y="1447" on="1"/>
      </contour>
    </TTGlyph>
    <TTGlyph name="hahhamzabovefinal" xMin="142" yMin="226" xMax="842" yMax="1588">
      <contour>
        <pt x="142" y="226" on="1"/>
        <pt x="142" y="1588" on="1"/>
        <pt x="842" y="1588" on="1"/>
        <pt x="842" y="226" on="1"/>
      </contour>
      <contour>
        <pt x="284" y="368" on="1"/>
        <pt x="700" y="368" on="1"/>
        <pt x="700" y="1447" on="1"/>
        <pt x="284" y="1447" on="1"/>
      </contour>
    </TTGlyph>
    <TTGlyph name="hahhamzaboveinitial" xMin="142" yMin="226" xMax="842" yMax="1588">
      <contour>
        <pt x="142" y="226" on="1"/>
        <pt x="142" y="1588" on="1"/>
        <pt x="842" y="1588" on="1"/>
        <pt x="842" y="226" on="1"/>
      </contour>
      <contour>
        <pt x="284" y="368" on="1"/>
        <pt x="700" y="368" on="1"/>
        <pt x="700" y="1447" on="1"/>
        <pt x="284" y="1447" on="1"/>
      </contour>
    </TTGlyph>
    <TTGlyph name="hahhamzabovemedial" xMin="142" yMin="226" xMax="842" yMax="1588">
      <contour>
        <pt x="142" y="226" on="1"/>
        <pt x="142" y="1588" on="1"/>
        <pt x="842" y="1588" on="1"/>
        <pt x="842" y="226" on="1"/>
      </contour>
      <contour>
        <pt x="284" y="368" on="1"/>
        <pt x="700" y="368" on="1"/>
        <pt x="700" y="1447" on="1"/>
        <pt x="284" y="1447" on="1"/>
      </contour>
    </TTGlyph>
    <TTGlyph name="hahthreedotsabovefinal" xMin="142" yMin="226" xMax="842" yMax="1588">
      <contour>
        <pt x="142" y="226" on="1"/>
        <pt x="142" y="1588" on="1"/>
        <pt x="842" y="1588" on="1"/>
        <pt x="842" y="226" on="1"/>
      </contour>
      <contour>
        <pt x="284" y="368" on="1"/>
        <pt x="700" y="368" on="1"/>
        <pt x="700" y="1447" on="1"/>
        <pt x="284" y="1447" on="1"/>
      </contour>
    </TTGlyph>
    <TTGlyph name="hahthreedotsaboveinitial" xMin="142" yMin="226" xMax="842" yMax="1588">
      <contour>
        <pt x="142" y="226" on="1"/>
        <pt x="142" y="1588" on="1"/>
        <pt x="842" y="1588" on="1"/>
        <pt x="842" y="226" on="1"/>
      </contour>
      <contour>
        <pt x="284" y="368" on="1"/>
        <pt x="700" y="368" on="1"/>
        <pt x="700" y="1447" on="1"/>
        <pt x="284" y="1447" on="1"/>
      </contour>
    </TTGlyph>
    <TTGlyph name="hahthreedotsabovemedial" xMin="142" yMin="226" xMax="842" yMax="1588">
      <contour>
        <pt x="142" y="226" on="1"/>
        <pt x="142" y="1588" on="1"/>
        <pt x="842" y="1588" on="1"/>
        <pt x="842" y="226" on="1"/>
      </contour>
      <contour>
        <pt x="284" y="368" on="1"/>
        <pt x="700" y="368" on="1"/>
        <pt x="700" y="1447" on="1"/>
        <pt x="284" y="1447" on="1"/>
      </contour>
    </TTGlyph>
    <TTGlyph name="hehdoachashmeefinalarabic" xMin="142" yMin="226" xMax="842" yMax="1588">
      <contour>
        <pt x="142" y="226" on="1"/>
        <pt x="142" y="1588" on="1"/>
        <pt x="842" y="1588" on="1"/>
        <pt x="842" y="226" on="1"/>
      </contour>
      <contour>
        <pt x="284" y="368" on="1"/>
        <pt x="700" y="368" on="1"/>
        <pt x="700" y="1447" on="1"/>
        <pt x="284" y="1447" on="1"/>
      </contour>
    </TTGlyph>
    <TTGlyph name="hehdoachashmeeinitialarabic" xMin="142" yMin="226" xMax="842" yMax="1588">
      <contour>
        <pt x="142" y="226" on="1"/>
        <pt x="142" y="1588" on="1"/>
        <pt x="842" y="1588" on="1"/>
        <pt x="842" y="226" on="1"/>
      </contour>
      <contour>
        <pt x="284" y="368" on="1"/>
        <pt x="700" y="368" on="1"/>
        <pt x="700" y="1447" on="1"/>
        <pt x="284" y="1447" on="1"/>
      </contour>
    </TTGlyph>
    <TTGlyph name="hehdoachashmeemedialarabic" xMin="142" yMin="226" xMax="842" yMax="1588">
      <contour>
        <pt x="142" y="226" on="1"/>
        <pt x="142" y="1588" on="1"/>
        <pt x="842" y="1588" on="1"/>
        <pt x="842" y="226" on="1"/>
      </contour>
      <contour>
        <pt x="284" y="368" on="1"/>
        <pt x="700" y="368" on="1"/>
        <pt x="700" y="1447" on="1"/>
        <pt x="284" y="1447" on="1"/>
      </contour>
    </TTGlyph>
    <TTGlyph name="hehfinalaltonearabic" xMin="142" yMin="226" xMax="842" yMax="1588">
      <contour>
        <pt x="142" y="226" on="1"/>
        <pt x="142" y="1588" on="1"/>
        <pt x="842" y="1588" on="1"/>
        <pt x="842" y="226" on="1"/>
      </contour>
      <contour>
        <pt x="284" y="368" on="1"/>
        <pt x="700" y="368" on="1"/>
        <pt x="700" y="1447" on="1"/>
        <pt x="284" y="1447" on="1"/>
      </contour>
    </TTGlyph>
    <TTGlyph name="hehhamzaabovefinalarabic" xMin="142" yMin="226" xMax="842" yMax="1588">
      <contour>
        <pt x="142" y="226" on="1"/>
        <pt x="142" y="1588" on="1"/>
        <pt x="842" y="1588" on="1"/>
        <pt x="842" y="226" on="1"/>
      </contour>
      <contour>
        <pt x="284" y="368" on="1"/>
        <pt x="700" y="368" on="1"/>
        <pt x="700" y="1447" on="1"/>
        <pt x="284" y="1447" on="1"/>
      </contour>
    </TTGlyph>
    <TTGlyph name="hehinitialaltonearabic" xMin="142" yMin="226" xMax="842" yMax="1588">
      <contour>
        <pt x="142" y="226" on="1"/>
        <pt x="142" y="1588" on="1"/>
        <pt x="842" y="1588" on="1"/>
        <pt x="842" y="226" on="1"/>
      </contour>
      <contour>
        <pt x="284" y="368" on="1"/>
        <pt x="700" y="368" on="1"/>
        <pt x="700" y="1447" on="1"/>
        <pt x="284" y="1447" on="1"/>
      </contour>
    </TTGlyph>
    <TTGlyph name="hehmedialaltonearabic" xMin="142" yMin="226" xMax="842" yMax="1588">
      <contour>
        <pt x="142" y="226" on="1"/>
        <pt x="142" y="1588" on="1"/>
        <pt x="842" y="1588" on="1"/>
        <pt x="842" y="226" on="1"/>
      </contour>
      <contour>
        <pt x="284" y="368" on="1"/>
        <pt x="700" y="368" on="1"/>
        <pt x="700" y="1447" on="1"/>
        <pt x="284" y="1447" on="1"/>
      </contour>
    </TTGlyph>
    <TTGlyph name="hyphen" xMin="30" yMin="-122" xMax="1606" yMax="1781">
      <contour>
        <pt x="1401" y="1443" on="1"/>
        <pt x="1401" y="1410" on="0"/>
        <pt x="1238" y="1306" on="1"/>
        <pt x="1123" y="1232" on="0"/>
        <pt x="1039" y="1189" on="1"/>
        <pt x="993" y="1189" on="1"/>
        <pt x="1003" y="1217" on="0"/>
        <pt x="1016" y="1257" on="1"/>
        <pt x="1184" y="1392" on="0"/>
        <pt x="1387" y="1474" on="1"/>
        <pt x="1401" y="1460" on="0"/>
      </contour>
      <contour>
        <pt x="920" y="1751" on="1"/>
        <pt x="920" y="1706" on="0"/>
        <pt x="725" y="1602" on="1"/>
        <pt x="590" y="1534" on="0"/>
        <pt x="456" y="1466" on="1"/>
        <pt x="409" y="1466" on="1"/>
        <pt x="427" y="1538" on="0"/>
        <pt x="452" y="1552" on="1"/>
        <pt x="651" y="1662" on="0"/>
        <pt x="906" y="1781" on="1"/>
        <pt x="920" y="1767" on="0"/>
      </contour>
      <contour>
        <pt x="900" y="1362" on="1"/>
        <pt x="900" y="1280" on="0"/>
        <pt x="795" y="1223" on="1"/>
        <pt x="711" y="1177" on="0"/>
        <pt x="644" y="1177" on="1"/>
        <pt x="611" y="1177" on="0"/>
        <pt x="590" y="1202" on="1"/>
        <pt x="572" y="1221" on="0"/>
        <pt x="572" y="1244" on="1"/>
        <pt x="572" y="1275" on="0"/>
        <pt x="616" y="1340" on="1"/>
        <pt x="626" y="1340" on="0"/>
        <pt x="677" y="1311" on="0"/>
        <pt x="689" y="1310" on="1"/>
        <pt x="697" y="1319" on="0"/>
        <pt x="740" y="1371" on="0"/>
        <pt x="751" y="1382" on="1"/>
        <pt x="761" y="1377" on="0"/>
        <pt x="793" y="1357" on="0"/>
        <pt x="803" y="1352" on="1"/>
        <pt x="829" y="1364" on="0"/>
        <pt x="851" y="1411" on="1"/>
        <pt x="889" y="1411" on="1"/>
        <pt x="889" y="1408" on="0"/>
        <pt x="900" y="1376" on="0"/>
      </contour>
      <contour>
        <pt x="1606" y="1130" on="1"/>
        <pt x="1606" y="1062" on="0"/>
        <pt x="1501" y="994" on="1"/>
        <pt x="1414" y="940" on="0"/>
        <pt x="1328" y="888" on="1"/>
        <pt x="1298" y="865" on="0"/>
        <pt x="1145" y="765" on="1"/>
        <pt x="1034" y="692" on="0"/>
        <pt x="961" y="618" on="1"/>
        <pt x="993" y="569" on="0"/>
        <pt x="1056" y="531" on="1"/>
        <pt x="1110" y="498" on="0"/>
        <pt x="1164" y="466" on="1"/>
        <pt x="1278" y="383" on="0"/>
        <pt x="1278" y="235" on="1"/>
        <pt x="1278" y="101" on="0"/>
        <pt x="1185" y="29" on="1"/>
        <pt x="1106" y="-31" on="0"/>
        <pt x="987" y="-31" on="1"/>
        <pt x="897" y="-31" on="0"/>
        <pt x="863" y="11" on="1"/>
        <pt x="842" y="37" on="0"/>
        <pt x="832" y="113" on="1"/>
        <pt x="820" y="202" on="0"/>
        <pt x="800" y="247" on="1"/>
        <pt x="765" y="240" on="0"/>
        <pt x="742" y="183" on="1"/>
        <pt x="704" y="89" on="0"/>
        <pt x="701" y="84" on="1"/>
        <pt x="635" y="-21" on="0"/>
        <pt x="517" y="-58" on="1"/>
        <pt x="450" y="-80" on="0"/>
        <pt x="336" y="-103" on="1"/>
        <pt x="233" y="-122" on="0"/>
        <pt x="209" y="-122" on="1"/>
        <pt x="194" y="-122" on="0"/>
        <pt x="177" y="-111" on="0"/>
        <pt x="174" y="-111" on="1"/>
        <pt x="174" y="-79" on="0"/>
        <pt x="196" y="-66" on="1"/>
        <pt x="304" y="-22" on="0"/>
        <pt x="413" y="20" on="1"/>
        <pt x="548" y="83" on="0"/>
        <pt x="631" y="183" on="1"/>
        <pt x="652" y="207" on="0"/>
        <pt x="698" y="334" on="1"/>
        <pt x="748" y="472" on="0"/>
        <pt x="757" y="663" on="1"/>
        <pt x="770" y="921" on="0"/>
        <pt x="780" y="978" on="1"/>
        <pt x="784" y="1008" on="0"/>
        <pt x="824" y="1044" on="1"/>
        <pt x="851" y="1008" on="0"/>
        <pt x="861" y="871" on="1"/>
        <pt x="870" y="745" on="0"/>
        <pt x="916" y="717" on="1"/>
        <pt x="1569" y="1166" on="1"/>
        <pt x="1606" y="1166" on="1"/>
      </contour>
      <contour>
        <pt x="624" y="312" on="1"/>
        <pt x="624" y="301" on="0"/>
        <pt x="613" y="269" on="0"/>
        <pt x="613" y="259" on="1"/>
        <pt x="612" y="257" on="0"/>
        <pt x="611" y="256" on="1"/>
        <pt x="601" y="246" on="0"/>
        <pt x="583" y="246" on="1"/>
        <pt x="565" y="246" on="0"/>
        <pt x="555" y="259" on="1"/>
        <pt x="523" y="359" on="0"/>
        <pt x="440" y="471" on="1"/>
        <pt x="351" y="589" on="0"/>
        <pt x="247" y="663" on="1"/>
        <pt x="194" y="676" on="0"/>
        <pt x="141" y="688" on="1"/>
        <pt x="51" y="714" on="0"/>
        <pt x="32" y="772" on="1"/>
        <pt x="30" y="780" on="0"/>
        <pt x="30" y="850" on="1"/>
        <pt x="30" y="904" on="0"/>
        <pt x="30" y="907" on="1"/>
        <pt x="38" y="952" on="0"/>
        <pt x="76" y="952" on="1"/>
        <pt x="102" y="952" on="0"/>
        <pt x="191" y="892" on="1"/>
        <pt x="326" y="802" on="0"/>
        <pt x="471" y="614" on="1"/>
        <pt x="624" y="416" on="0"/>
      </contour>
      <contour>
        <pt x="1197" y="210" on="1"/>
        <pt x="1197" y="254" on="0"/>
        <pt x="1082" y="339" on="1"/>
        <pt x="974" y="419" on="0"/>
        <pt x="941" y="419" on="1"/>
        <pt x="900" y="419" on="0"/>
        <pt x="900" y="287" on="1"/>
        <pt x="900" y="215" on="0"/>
        <pt x="910" y="187" on="1"/>
        <pt x="934" y="123" on="0"/>
        <pt x="1012" y="123" on="1"/>
        <pt x="1049" y="123" on="0"/>
        <pt x="1114" y="145" on="1"/>
        <pt x="1197" y="173" on="0"/>
      </contour>
    </TTGlyph>
    <TTGlyph name="irghizufinal" xMin="142" yMin="226" xMax="842" yMax="1588">
      <contour>
        <pt x="142" y="226" on="1"/>
        <pt x="142" y="1588" on="1"/>
        <pt x="842" y="1588" on="1"/>
        <pt x="842" y="226" on="1"/>
      </contour>
      <contour>
        <pt x="284" y="368" on="1"/>
        <pt x="700" y="368" on="1"/>
        <pt x="700" y="1447" on="1"/>
        <pt x="284" y="1447" on="1"/>
      </contour>
    </TTGlyph>
    <TTGlyph name="jehfinalarabic" xMin="142" yMin="226" xMax="842" yMax="1588">
      <contour>
        <pt x="142" y="226" on="1"/>
        <pt x="142" y="1588" on="1"/>
        <pt x="842" y="1588" on="1"/>
        <pt x="842" y="226" on="1"/>
      </contour>
      <contour>
        <pt x="284" y="368" on="1"/>
        <pt x="700" y="368" on="1"/>
        <pt x="700" y="1447" on="1"/>
        <pt x="284" y="1447" on="1"/>
      </contour>
    </TTGlyph>
    <TTGlyph name="kafringfinal" xMin="142" yMin="226" xMax="842" yMax="1588">
      <contour>
        <pt x="142" y="226" on="1"/>
        <pt x="142" y="1588" on="1"/>
        <pt x="842" y="1588" on="1"/>
        <pt x="842" y="226" on="1"/>
      </contour>
      <contour>
        <pt x="284" y="368" on="1"/>
        <pt x="700" y="368" on="1"/>
        <pt x="700" y="1447" on="1"/>
        <pt x="284" y="1447" on="1"/>
      </contour>
    </TTGlyph>
    <TTGlyph name="kafringinitial" xMin="142" yMin="226" xMax="842" yMax="1588">
      <contour>
        <pt x="142" y="226" on="1"/>
        <pt x="142" y="1588" on="1"/>
        <pt x="842" y="1588" on="1"/>
        <pt x="842" y="226" on="1"/>
      </contour>
      <contour>
        <pt x="284" y="368" on="1"/>
        <pt x="700" y="368" on="1"/>
        <pt x="700" y="1447" on="1"/>
        <pt x="284" y="1447" on="1"/>
      </contour>
    </TTGlyph>
    <TTGlyph name="kafringmedial" xMin="142" yMin="226" xMax="842" yMax="1588">
      <contour>
        <pt x="142" y="226" on="1"/>
        <pt x="142" y="1588" on="1"/>
        <pt x="842" y="1588" on="1"/>
        <pt x="842" y="226" on="1"/>
      </contour>
      <contour>
        <pt x="284" y="368" on="1"/>
        <pt x="700" y="368" on="1"/>
        <pt x="700" y="1447" on="1"/>
        <pt x="284" y="1447" on="1"/>
      </contour>
    </TTGlyph>
    <TTGlyph name="kashidaautoarabic" xMin="142" yMin="226" xMax="842" yMax="1588">
      <contour>
        <pt x="142" y="226" on="1"/>
        <pt x="142" y="1588" on="1"/>
        <pt x="842" y="1588" on="1"/>
        <pt x="842" y="226" on="1"/>
      </contour>
      <contour>
        <pt x="284" y="368" on="1"/>
        <pt x="700" y="368" on="1"/>
        <pt x="700" y="1447" on="1"/>
        <pt x="284" y="1447" on="1"/>
      </contour>
    </TTGlyph>
    <TTGlyph name="kashidaautonosidebearingarabic" xMin="142" yMin="226" xMax="842" yMax="1588">
      <contour>
        <pt x="142" y="226" on="1"/>
        <pt x="142" y="1588" on="1"/>
        <pt x="842" y="1588" on="1"/>
        <pt x="842" y="226" on="1"/>
      </contour>
      <contour>
        <pt x="284" y="368" on="1"/>
        <pt x="700" y="368" on="1"/>
        <pt x="700" y="1447" on="1"/>
        <pt x="284" y="1447" on="1"/>
      </contour>
    </TTGlyph>
    <TTGlyph name="kehehfinalarabic" xMin="142" yMin="226" xMax="842" yMax="1588">
      <contour>
        <pt x="142" y="226" on="1"/>
        <pt x="142" y="1588" on="1"/>
        <pt x="842" y="1588" on="1"/>
        <pt x="842" y="226" on="1"/>
      </contour>
      <contour>
        <pt x="284" y="368" on="1"/>
        <pt x="700" y="368" on="1"/>
        <pt x="700" y="1447" on="1"/>
        <pt x="284" y="1447" on="1"/>
      </contour>
    </TTGlyph>
    <TTGlyph name="kehehinitialarabic" xMin="142" yMin="226" xMax="842" yMax="1588">
      <contour>
        <pt x="142" y="226" on="1"/>
        <pt x="142" y="1588" on="1"/>
        <pt x="842" y="1588" on="1"/>
        <pt x="842" y="226" on="1"/>
      </contour>
      <contour>
        <pt x="284" y="368" on="1"/>
        <pt x="700" y="368" on="1"/>
        <pt x="700" y="1447" on="1"/>
        <pt x="284" y="1447" on="1"/>
      </contour>
    </TTGlyph>
    <TTGlyph name="kehehmedialarabic" xMin="142" yMin="226" xMax="842" yMax="1588">
      <contour>
        <pt x="142" y="226" on="1"/>
        <pt x="142" y="1588" on="1"/>
        <pt x="842" y="1588" on="1"/>
        <pt x="842" y="226" on="1"/>
      </contour>
      <contour>
        <pt x="284" y="368" on="1"/>
        <pt x="700" y="368" on="1"/>
        <pt x="700" y="1447" on="1"/>
        <pt x="284" y="1447" on="1"/>
      </contour>
    </TTGlyph>
    <TTGlyph name="kirghizyifinal" xMin="142" yMin="226" xMax="842" yMax="1588">
      <contour>
        <pt x="142" y="226" on="1"/>
        <pt x="142" y="1588" on="1"/>
        <pt x="842" y="1588" on="1"/>
        <pt x="842" y="226" on="1"/>
      </contour>
      <contour>
        <pt x="284" y="368" on="1"/>
        <pt x="700" y="368" on="1"/>
        <pt x="700" y="1447" on="1"/>
        <pt x="284" y="1447" on="1"/>
      </contour>
    </TTGlyph>
    <TTGlyph name="lammeemjeeminitialarabic" xMin="142" yMin="226" xMax="842" yMax="1588">
      <contour>
        <pt x="142" y="226" on="1"/>
        <pt x="142" y="1588" on="1"/>
        <pt x="842" y="1588" on="1"/>
        <pt x="842" y="226" on="1"/>
      </contour>
      <contour>
        <pt x="284" y="368" on="1"/>
        <pt x="700" y="368" on="1"/>
        <pt x="700" y="1447" on="1"/>
        <pt x="284" y="1447" on="1"/>
      </contour>
    </TTGlyph>
    <TTGlyph name="lammeemkhahinitialarabic" xMin="142" yMin="226" xMax="842" yMax="1588">
      <contour>
        <pt x="142" y="226" on="1"/>
        <pt x="142" y="1588" on="1"/>
        <pt x="842" y="1588" on="1"/>
        <pt x="842" y="226" on="1"/>
      </contour>
      <contour>
        <pt x="284" y="368" on="1"/>
        <pt x="700" y="368" on="1"/>
        <pt x="700" y="1447" on="1"/>
        <pt x="284" y="1447" on="1"/>
      </contour>
    </TTGlyph>
    <TTGlyph name="lamthreedotsabovefinal" xMin="142" yMin="226" xMax="842" yMax="1588">
      <contour>
        <pt x="142" y="226" on="1"/>
        <pt x="142" y="1588" on="1"/>
        <pt x="842" y="1588" on="1"/>
        <pt x="842" y="226" on="1"/>
      </contour>
      <contour>
        <pt x="284" y="368" on="1"/>
        <pt x="700" y="368" on="1"/>
        <pt x="700" y="1447" on="1"/>
        <pt x="284" y="1447" on="1"/>
      </contour>
    </TTGlyph>
    <TTGlyph name="lamthreedotsaboveinitial" xMin="142" yMin="226" xMax="842" yMax="1588">
      <contour>
        <pt x="142" y="226" on="1"/>
        <pt x="142" y="1588" on="1"/>
        <pt x="842" y="1588" on="1"/>
        <pt x="842" y="226" on="1"/>
      </contour>
      <contour>
        <pt x="284" y="368" on="1"/>
        <pt x="700" y="368" on="1"/>
        <pt x="700" y="1447" on="1"/>
        <pt x="284" y="1447" on="1"/>
      </contour>
    </TTGlyph>
    <TTGlyph name="lamthreedotsabovemedial" xMin="142" yMin="226" xMax="842" yMax="1588">
      <contour>
        <pt x="142" y="226" on="1"/>
        <pt x="142" y="1588" on="1"/>
        <pt x="842" y="1588" on="1"/>
        <pt x="842" y="226" on="1"/>
      </contour>
      <contour>
        <pt x="284" y="368" on="1"/>
        <pt x="700" y="368" on="1"/>
        <pt x="700" y="1447" on="1"/>
        <pt x="284" y="1447" on="1"/>
      </contour>
    </TTGlyph>
    <TTGlyph name="less" xMin="142" yMin="226" xMax="842" yMax="1588">
      <contour>
        <pt x="142" y="226" on="1"/>
        <pt x="142" y="1588" on="1"/>
        <pt x="842" y="1588" on="1"/>
        <pt x="842" y="226" on="1"/>
      </contour>
      <contour>
        <pt x="284" y="368" on="1"/>
        <pt x="700" y="368" on="1"/>
        <pt x="700" y="1447" on="1"/>
        <pt x="284" y="1447" on="1"/>
      </contour>
    </TTGlyph>
    <TTGlyph name="meemmeemisolatedarabic" xMin="142" yMin="226" xMax="842" yMax="1588">
      <contour>
        <pt x="142" y="226" on="1"/>
        <pt x="142" y="1588" on="1"/>
        <pt x="842" y="1588" on="1"/>
        <pt x="842" y="226" on="1"/>
      </contour>
      <contour>
        <pt x="284" y="368" on="1"/>
        <pt x="700" y="368" on="1"/>
        <pt x="700" y="1447" on="1"/>
        <pt x="284" y="1447" on="1"/>
      </contour>
    </TTGlyph>
    <TTGlyph name="multiply" xMin="142" yMin="226" xMax="842" yMax="1588">
      <contour>
        <pt x="142" y="226" on="1"/>
        <pt x="142" y="1588" on="1"/>
        <pt x="842" y="1588" on="1"/>
        <pt x="842" y="226" on="1"/>
      </contour>
      <contour>
        <pt x="284" y="368" on="1"/>
        <pt x="700" y="368" on="1"/>
        <pt x="700" y="1447" on="1"/>
        <pt x="284" y="1447" on="1"/>
      </contour>
    </TTGlyph>
    <TTGlyph name="noonghunnafinalarabic" xMin="142" yMin="226" xMax="842" yMax="1588">
      <contour>
        <pt x="142" y="226" on="1"/>
        <pt x="142" y="1588" on="1"/>
        <pt x="842" y="1588" on="1"/>
        <pt x="842" y="226" on="1"/>
      </contour>
      <contour>
        <pt x="284" y="368" on="1"/>
        <pt x="700" y="368" on="1"/>
        <pt x="700" y="1447" on="1"/>
        <pt x="284" y="1447" on="1"/>
      </contour>
    </TTGlyph>
    <TTGlyph name="noonjeemisolatedarabic" xMin="142" yMin="226" xMax="842" yMax="1588">
      <contour>
        <pt x="142" y="226" on="1"/>
        <pt x="142" y="1588" on="1"/>
        <pt x="842" y="1588" on="1"/>
        <pt x="842" y="226" on="1"/>
      </contour>
      <contour>
        <pt x="284" y="368" on="1"/>
        <pt x="700" y="368" on="1"/>
        <pt x="700" y="1447" on="1"/>
        <pt x="284" y="1447" on="1"/>
      </contour>
    </TTGlyph>
    <TTGlyph name="noonmeemisolatedarabic" xMin="142" yMin="226" xMax="842" yMax="1588">
      <contour>
        <pt x="142" y="226" on="1"/>
        <pt x="142" y="1588" on="1"/>
        <pt x="842" y="1588" on="1"/>
        <pt x="842" y="226" on="1"/>
      </contour>
      <contour>
        <pt x="284" y="368" on="1"/>
        <pt x="700" y="368" on="1"/>
        <pt x="700" y="1447" on="1"/>
        <pt x="284" y="1447" on="1"/>
      </contour>
    </TTGlyph>
    <TTGlyph name="noonringfinal" xMin="142" yMin="226" xMax="842" yMax="1588">
      <contour>
        <pt x="142" y="226" on="1"/>
        <pt x="142" y="1588" on="1"/>
        <pt x="842" y="1588" on="1"/>
        <pt x="842" y="226" on="1"/>
      </contour>
      <contour>
        <pt x="284" y="368" on="1"/>
        <pt x="700" y="368" on="1"/>
        <pt x="700" y="1447" on="1"/>
        <pt x="284" y="1447" on="1"/>
      </contour>
    </TTGlyph>
    <TTGlyph name="noonringinitial" xMin="142" yMin="226" xMax="842" yMax="1588">
      <contour>
        <pt x="142" y="226" on="1"/>
        <pt x="142" y="1588" on="1"/>
        <pt x="842" y="1588" on="1"/>
        <pt x="842" y="226" on="1"/>
      </contour>
      <contour>
        <pt x="284" y="368" on="1"/>
        <pt x="700" y="368" on="1"/>
        <pt x="700" y="1447" on="1"/>
        <pt x="284" y="1447" on="1"/>
      </contour>
    </TTGlyph>
    <TTGlyph name="noonringmedial" xMin="142" yMin="226" xMax="842" yMax="1588">
      <contour>
        <pt x="142" y="226" on="1"/>
        <pt x="142" y="1588" on="1"/>
        <pt x="842" y="1588" on="1"/>
        <pt x="842" y="226" on="1"/>
      </contour>
      <contour>
        <pt x="284" y="368" on="1"/>
        <pt x="700" y="368" on="1"/>
        <pt x="700" y="1447" on="1"/>
        <pt x="284" y="1447" on="1"/>
      </contour>
    </TTGlyph>
    <TTGlyph name="numbersign" xMin="142" yMin="226" xMax="842" yMax="1588">
      <contour>
        <pt x="142" y="226" on="1"/>
        <pt x="142" y="1588" on="1"/>
        <pt x="842" y="1588" on="1"/>
        <pt x="842" y="226" on="1"/>
      </contour>
      <contour>
        <pt x="284" y="368" on="1"/>
        <pt x="700" y="368" on="1"/>
        <pt x="700" y="1447" on="1"/>
        <pt x="284" y="1447" on="1"/>
      </contour>
    </TTGlyph>
    <TTGlyph name="parenleft" xMin="142" yMin="226" xMax="842" yMax="1588">
      <contour>
        <pt x="142" y="226" on="1"/>
        <pt x="142" y="1588" on="1"/>
        <pt x="842" y="1588" on="1"/>
        <pt x="842" y="226" on="1"/>
      </contour>
      <contour>
        <pt x="284" y="368" on="1"/>
        <pt x="700" y="368" on="1"/>
        <pt x="700" y="1447" on="1"/>
        <pt x="284" y="1447" on="1"/>
      </contour>
    </TTGlyph>
    <TTGlyph name="parenright" xMin="142" yMin="226" xMax="842" yMax="1588">
      <contour>
        <pt x="142" y="226" on="1"/>
        <pt x="142" y="1588" on="1"/>
        <pt x="842" y="1588" on="1"/>
        <pt x="842" y="226" on="1"/>
      </contour>
      <contour>
        <pt x="284" y="368" on="1"/>
        <pt x="700" y="368" on="1"/>
        <pt x="700" y="1447" on="1"/>
        <pt x="284" y="1447" on="1"/>
      </contour>
    </TTGlyph>
    <TTGlyph name="pashtoefinal" xMin="142" yMin="226" xMax="842" yMax="1588">
      <contour>
        <pt x="142" y="226" on="1"/>
        <pt x="142" y="1588" on="1"/>
        <pt x="842" y="1588" on="1"/>
        <pt x="842" y="226" on="1"/>
      </contour>
      <contour>
        <pt x="284" y="368" on="1"/>
        <pt x="700" y="368" on="1"/>
        <pt x="700" y="1447" on="1"/>
        <pt x="284" y="1447" on="1"/>
      </contour>
    </TTGlyph>
    <TTGlyph name="pashtoeinitial" xMin="142" yMin="226" xMax="842" yMax="1588">
      <contour>
        <pt x="142" y="226" on="1"/>
        <pt x="142" y="1588" on="1"/>
        <pt x="842" y="1588" on="1"/>
        <pt x="842" y="226" on="1"/>
      </contour>
      <contour>
        <pt x="284" y="368" on="1"/>
        <pt x="700" y="368" on="1"/>
        <pt x="700" y="1447" on="1"/>
        <pt x="284" y="1447" on="1"/>
      </contour>
    </TTGlyph>
    <TTGlyph name="pashtoemedial" xMin="142" yMin="226" xMax="842" yMax="1588">
      <contour>
        <pt x="142" y="226" on="1"/>
        <pt x="142" y="1588" on="1"/>
        <pt x="842" y="1588" on="1"/>
        <pt x="842" y="226" on="1"/>
      </contour>
      <contour>
        <pt x="284" y="368" on="1"/>
        <pt x="700" y="368" on="1"/>
        <pt x="700" y="1447" on="1"/>
        <pt x="284" y="1447" on="1"/>
      </contour>
    </TTGlyph>
    <TTGlyph name="pehfinalarabic" xMin="142" yMin="226" xMax="842" yMax="1588">
      <contour>
        <pt x="142" y="226" on="1"/>
        <pt x="142" y="1588" on="1"/>
        <pt x="842" y="1588" on="1"/>
        <pt x="842" y="226" on="1"/>
      </contour>
      <contour>
        <pt x="284" y="368" on="1"/>
        <pt x="700" y="368" on="1"/>
        <pt x="700" y="1447" on="1"/>
        <pt x="284" y="1447" on="1"/>
      </contour>
    </TTGlyph>
    <TTGlyph name="pehinitialarabic" xMin="142" yMin="226" xMax="842" yMax="1588">
      <contour>
        <pt x="142" y="226" on="1"/>
        <pt x="142" y="1588" on="1"/>
        <pt x="842" y="1588" on="1"/>
        <pt x="842" y="226" on="1"/>
      </contour>
      <contour>
        <pt x="284" y="368" on="1"/>
        <pt x="700" y="368" on="1"/>
        <pt x="700" y="1447" on="1"/>
        <pt x="284" y="1447" on="1"/>
      </contour>
    </TTGlyph>
    <TTGlyph name="pehmedialarabic" xMin="142" yMin="226" xMax="842" yMax="1588">
      <contour>
        <pt x="142" y="226" on="1"/>
        <pt x="142" y="1588" on="1"/>
        <pt x="842" y="1588" on="1"/>
        <pt x="842" y="226" on="1"/>
      </contour>
      <contour>
        <pt x="284" y="368" on="1"/>
        <pt x="700" y="368" on="1"/>
        <pt x="700" y="1447" on="1"/>
        <pt x="284" y="1447" on="1"/>
      </contour>
    </TTGlyph>
    <TTGlyph name="percent" xMin="142" yMin="226" xMax="842" yMax="1588">
      <contour>
        <pt x="142" y="226" on="1"/>
        <pt x="142" y="1588" on="1"/>
        <pt x="842" y="1588" on="1"/>
        <pt x="842" y="226" on="1"/>
      </contour>
      <contour>
        <pt x="284" y="368" on="1"/>
        <pt x="700" y="368" on="1"/>
        <pt x="700" y="1447" on="1"/>
        <pt x="284" y="1447" on="1"/>
      </contour>
    </TTGlyph>
    <TTGlyph name="period" xMin="142" yMin="226" xMax="842" yMax="1588">
      <contour>
        <pt x="142" y="226" on="1"/>
        <pt x="142" y="1588" on="1"/>
        <pt x="842" y="1588" on="1"/>
        <pt x="842" y="226" on="1"/>
      </contour>
      <contour>
        <pt x="284" y="368" on="1"/>
        <pt x="700" y="368" on="1"/>
        <pt x="700" y="1447" on="1"/>
        <pt x="284" y="1447" on="1"/>
      </contour>
    </TTGlyph>
    <TTGlyph name="plus" xMin="142" yMin="226" xMax="842" yMax="1588">
      <contour>
        <pt x="142" y="226" on="1"/>
        <pt x="142" y="1588" on="1"/>
        <pt x="842" y="1588" on="1"/>
        <pt x="842" y="226" on="1"/>
      </contour>
      <contour>
        <pt x="284" y="368" on="1"/>
        <pt x="700" y="368" on="1"/>
        <pt x="700" y="1447" on="1"/>
        <pt x="284" y="1447" on="1"/>
      </contour>
    </TTGlyph>
    <TTGlyph name="quotedbl" xMin="142" yMin="226" xMax="842" yMax="1588">
      <contour>
        <pt x="142" y="226" on="1"/>
        <pt x="142" y="1588" on="1"/>
        <pt x="842" y="1588" on="1"/>
        <pt x="842" y="226" on="1"/>
      </contour>
      <contour>
        <pt x="284" y="368" on="1"/>
        <pt x="700" y="368" on="1"/>
        <pt x="700" y="1447" on="1"/>
        <pt x="284" y="1447" on="1"/>
      </contour>
    </TTGlyph>
    <TTGlyph name="quotesingle" xMin="142" yMin="226" xMax="842" yMax="1588">
      <contour>
        <pt x="142" y="226" on="1"/>
        <pt x="142" y="1588" on="1"/>
        <pt x="842" y="1588" on="1"/>
        <pt x="842" y="226" on="1"/>
      </contour>
      <contour>
        <pt x="284" y="368" on="1"/>
        <pt x="700" y="368" on="1"/>
        <pt x="700" y="1447" on="1"/>
        <pt x="284" y="1447" on="1"/>
      </contour>
    </TTGlyph>
    <TTGlyph name="rehdotbelowdotabovefinal" xMin="142" yMin="226" xMax="842" yMax="1588">
      <contour>
        <pt x="142" y="226" on="1"/>
        <pt x="142" y="1588" on="1"/>
        <pt x="842" y="1588" on="1"/>
        <pt x="842" y="226" on="1"/>
      </contour>
      <contour>
        <pt x="284" y="368" on="1"/>
        <pt x="700" y="368" on="1"/>
        <pt x="700" y="1447" on="1"/>
        <pt x="284" y="1447" on="1"/>
      </contour>
    </TTGlyph>
    <TTGlyph name="rehringfinal" xMin="142" yMin="226" xMax="842" yMax="1588">
      <contour>
        <pt x="142" y="226" on="1"/>
        <pt x="142" y="1588" on="1"/>
        <pt x="842" y="1588" on="1"/>
        <pt x="842" y="226" on="1"/>
      </contour>
      <contour>
        <pt x="284" y="368" on="1"/>
        <pt x="700" y="368" on="1"/>
        <pt x="700" y="1447" on="1"/>
        <pt x="284" y="1447" on="1"/>
      </contour>
    </TTGlyph>
    <TTGlyph name="rrehfinalarabic" xMin="142" yMin="226" xMax="842" yMax="1588">
      <contour>
        <pt x="142" y="226" on="1"/>
        <pt x="142" y="1588" on="1"/>
        <pt x="842" y="1588" on="1"/>
        <pt x="842" y="226" on="1"/>
      </contour>
      <contour>
        <pt x="284" y="368" on="1"/>
        <pt x="700" y="368" on="1"/>
        <pt x="700" y="1447" on="1"/>
        <pt x="284" y="1447" on="1"/>
      </contour>
    </TTGlyph>
    <TTGlyph name="seendotbelowdotabovefinal" xMin="142" yMin="226" xMax="842" yMax="1588">
      <contour>
        <pt x="142" y="226" on="1"/>
        <pt x="142" y="1588" on="1"/>
        <pt x="842" y="1588" on="1"/>
        <pt x="842" y="226" on="1"/>
      </contour>
      <contour>
        <pt x="284" y="368" on="1"/>
        <pt x="700" y="368" on="1"/>
        <pt x="700" y="1447" on="1"/>
        <pt x="284" y="1447" on="1"/>
      </contour>
    </TTGlyph>
    <TTGlyph name="seendotbelowdotaboveinitial" xMin="142" yMin="226" xMax="842" yMax="1588">
      <contour>
        <pt x="142" y="226" on="1"/>
        <pt x="142" y="1588" on="1"/>
        <pt x="842" y="1588" on="1"/>
        <pt x="842" y="226" on="1"/>
      </contour>
      <contour>
        <pt x="284" y="368" on="1"/>
        <pt x="700" y="368" on="1"/>
        <pt x="700" y="1447" on="1"/>
        <pt x="284" y="1447" on="1"/>
      </contour>
    </TTGlyph>
    <TTGlyph name="seendotbelowdotabovemedial" xMin="142" yMin="226" xMax="842" yMax="1588">
      <contour>
        <pt x="142" y="226" on="1"/>
        <pt x="142" y="1588" on="1"/>
        <pt x="842" y="1588" on="1"/>
        <pt x="842" y="226" on="1"/>
      </contour>
      <contour>
        <pt x="284" y="368" on="1"/>
        <pt x="700" y="368" on="1"/>
        <pt x="700" y="1447" on="1"/>
        <pt x="284" y="1447" on="1"/>
      </contour>
    </TTGlyph>
    <TTGlyph name="shaddadammaarabic" xMin="142" yMin="226" xMax="842" yMax="1588">
      <contour>
        <pt x="142" y="226" on="1"/>
        <pt x="142" y="1588" on="1"/>
        <pt x="842" y="1588" on="1"/>
        <pt x="842" y="226" on="1"/>
      </contour>
      <contour>
        <pt x="284" y="368" on="1"/>
        <pt x="700" y="368" on="1"/>
        <pt x="700" y="1447" on="1"/>
        <pt x="284" y="1447" on="1"/>
      </contour>
    </TTGlyph>
    <TTGlyph name="shaddadammatanarabic" xMin="142" yMin="226" xMax="842" yMax="1588">
      <contour>
        <pt x="142" y="226" on="1"/>
        <pt x="142" y="1588" on="1"/>
        <pt x="842" y="1588" on="1"/>
        <pt x="842" y="226" on="1"/>
      </contour>
      <contour>
        <pt x="284" y="368" on="1"/>
        <pt x="700" y="368" on="1"/>
        <pt x="700" y="1447" on="1"/>
        <pt x="284" y="1447" on="1"/>
      </contour>
    </TTGlyph>
    <TTGlyph name="shaddafathaarabic" xMin="142" yMin="226" xMax="842" yMax="1588">
      <contour>
        <pt x="142" y="226" on="1"/>
        <pt x="142" y="1588" on="1"/>
        <pt x="842" y="1588" on="1"/>
        <pt x="842" y="226" on="1"/>
      </contour>
      <contour>
        <pt x="284" y="368" on="1"/>
        <pt x="700" y="368" on="1"/>
        <pt x="700" y="1447" on="1"/>
        <pt x="284" y="1447" on="1"/>
      </contour>
    </TTGlyph>
    <TTGlyph name="shaddakasraarabic" xMin="142" yMin="226" xMax="842" yMax="1588">
      <contour>
        <pt x="142" y="226" on="1"/>
        <pt x="142" y="1588" on="1"/>
        <pt x="842" y="1588" on="1"/>
        <pt x="842" y="226" on="1"/>
      </contour>
      <contour>
        <pt x="284" y="368" on="1"/>
        <pt x="700" y="368" on="1"/>
        <pt x="700" y="1447" on="1"/>
        <pt x="284" y="1447" on="1"/>
      </contour>
    </TTGlyph>
    <TTGlyph name="shaddakasratanarabic" xMin="142" yMin="226" xMax="842" yMax="1588">
      <contour>
        <pt x="142" y="226" on="1"/>
        <pt x="142" y="1588" on="1"/>
        <pt x="842" y="1588" on="1"/>
        <pt x="842" y="226" on="1"/>
      </contour>
      <contour>
        <pt x="284" y="368" on="1"/>
        <pt x="700" y="368" on="1"/>
        <pt x="700" y="1447" on="1"/>
        <pt x="284" y="1447" on="1"/>
      </contour>
    </TTGlyph>
    <TTGlyph name="slash" xMin="142" yMin="226" xMax="842" yMax="1588">
      <contour>
        <pt x="142" y="226" on="1"/>
        <pt x="142" y="1588" on="1"/>
        <pt x="842" y="1588" on="1"/>
        <pt x="842" y="226" on="1"/>
      </contour>
      <contour>
        <pt x="284" y="368" on="1"/>
        <pt x="700" y="368" on="1"/>
        <pt x="700" y="1447" on="1"/>
        <pt x="284" y="1447" on="1"/>
      </contour>
    </TTGlyph>
    <TTGlyph name="space" xMin="142" yMin="226" xMax="842" yMax="1588">
      <contour>
        <pt x="142" y="226" on="1"/>
        <pt x="142" y="1588" on="1"/>
        <pt x="842" y="1588" on="1"/>
        <pt x="842" y="226" on="1"/>
      </contour>
      <contour>
        <pt x="284" y="368" on="1"/>
        <pt x="700" y="368" on="1"/>
        <pt x="700" y="1447" on="1"/>
        <pt x="284" y="1447" on="1"/>
      </contour>
    </TTGlyph>
    <TTGlyph name="tchehfinalarabic" xMin="142" yMin="226" xMax="842" yMax="1588">
      <contour>
        <pt x="142" y="226" on="1"/>
        <pt x="142" y="1588" on="1"/>
        <pt x="842" y="1588" on="1"/>
        <pt x="842" y="226" on="1"/>
      </contour>
      <contour>
        <pt x="284" y="368" on="1"/>
        <pt x="700" y="368" on="1"/>
        <pt x="700" y="1447" on="1"/>
        <pt x="284" y="1447" on="1"/>
      </contour>
    </TTGlyph>
    <TTGlyph name="tchehinitialarabic" xMin="142" yMin="226" xMax="842" yMax="1588">
      <contour>
        <pt x="142" y="226" on="1"/>
        <pt x="142" y="1588" on="1"/>
        <pt x="842" y="1588" on="1"/>
        <pt x="842" y="226" on="1"/>
      </contour>
      <contour>
        <pt x="284" y="368" on="1"/>
        <pt x="700" y="368" on="1"/>
        <pt x="700" y="1447" on="1"/>
        <pt x="284" y="1447" on="1"/>
      </contour>
    </TTGlyph>
    <TTGlyph name="tchehmedialarabic" xMin="142" yMin="226" xMax="842" yMax="1588">
      <contour>
        <pt x="142" y="226" on="1"/>
        <pt x="142" y="1588" on="1"/>
        <pt x="842" y="1588" on="1"/>
        <pt x="842" y="226" on="1"/>
      </contour>
      <contour>
        <pt x="284" y="368" on="1"/>
        <pt x="700" y="368" on="1"/>
        <pt x="700" y="1447" on="1"/>
        <pt x="284" y="1447" on="1"/>
      </contour>
    </TTGlyph>
    <TTGlyph name="tehhahisolatedarabic" xMin="142" yMin="226" xMax="842" yMax="1588">
      <contour>
        <pt x="142" y="226" on="1"/>
        <pt x="142" y="1588" on="1"/>
        <pt x="842" y="1588" on="1"/>
        <pt x="842" y="226" on="1"/>
      </contour>
      <contour>
        <pt x="284" y="368" on="1"/>
        <pt x="700" y="368" on="1"/>
        <pt x="700" y="1447" on="1"/>
        <pt x="284" y="1447" on="1"/>
      </contour>
    </TTGlyph>
    <TTGlyph name="tehjeemisolatedarabic" xMin="142" yMin="226" xMax="842" yMax="1588">
      <contour>
        <pt x="142" y="226" on="1"/>
        <pt x="142" y="1588" on="1"/>
        <pt x="842" y="1588" on="1"/>
        <pt x="842" y="226" on="1"/>
      </contour>
      <contour>
        <pt x="284" y="368" on="1"/>
        <pt x="700" y="368" on="1"/>
        <pt x="700" y="1447" on="1"/>
        <pt x="284" y="1447" on="1"/>
      </contour>
    </TTGlyph>
    <TTGlyph name="tehmeemisolatedarabic" xMin="142" yMin="226" xMax="842" yMax="1588">
      <contour>
        <pt x="142" y="226" on="1"/>
        <pt x="142" y="1588" on="1"/>
        <pt x="842" y="1588" on="1"/>
        <pt x="842" y="226" on="1"/>
      </contour>
      <contour>
        <pt x="284" y="368" on="1"/>
        <pt x="700" y="368" on="1"/>
        <pt x="700" y="1447" on="1"/>
        <pt x="284" y="1447" on="1"/>
      </contour>
    </TTGlyph>
    <TTGlyph name="tehnoonfinalarabic" xMin="142" yMin="226" xMax="842" yMax="1588">
      <contour>
        <pt x="142" y="226" on="1"/>
        <pt x="142" y="1588" on="1"/>
        <pt x="842" y="1588" on="1"/>
        <pt x="842" y="226" on="1"/>
      </contour>
      <contour>
        <pt x="284" y="368" on="1"/>
        <pt x="700" y="368" on="1"/>
        <pt x="700" y="1447" on="1"/>
        <pt x="284" y="1447" on="1"/>
      </contour>
    </TTGlyph>
    <TTGlyph name="tehringfinal" xMin="142" yMin="226" xMax="842" yMax="1588">
      <contour>
        <pt x="142" y="226" on="1"/>
        <pt x="142" y="1588" on="1"/>
        <pt x="842" y="1588" on="1"/>
        <pt x="842" y="226" on="1"/>
      </contour>
      <contour>
        <pt x="284" y="368" on="1"/>
        <pt x="700" y="368" on="1"/>
        <pt x="700" y="1447" on="1"/>
        <pt x="284" y="1447" on="1"/>
      </contour>
    </TTGlyph>
    <TTGlyph name="tehringinitial" xMin="142" yMin="226" xMax="842" yMax="1588">
      <contour>
        <pt x="142" y="226" on="1"/>
        <pt x="142" y="1588" on="1"/>
        <pt x="842" y="1588" on="1"/>
        <pt x="842" y="226" on="1"/>
      </contour>
      <contour>
        <pt x="284" y="368" on="1"/>
        <pt x="700" y="368" on="1"/>
        <pt x="700" y="1447" on="1"/>
        <pt x="284" y="1447" on="1"/>
      </contour>
    </TTGlyph>
    <TTGlyph name="tehringmedial" xMin="142" yMin="226" xMax="842" yMax="1588">
      <contour>
        <pt x="142" y="226" on="1"/>
        <pt x="142" y="1588" on="1"/>
        <pt x="842" y="1588" on="1"/>
        <pt x="842" y="226" on="1"/>
      </contour>
      <contour>
        <pt x="284" y="368" on="1"/>
        <pt x="700" y="368" on="1"/>
        <pt x="700" y="1447" on="1"/>
        <pt x="284" y="1447" on="1"/>
      </contour>
    </TTGlyph>
    <TTGlyph name="ttehfinalarabic" xMin="142" yMin="226" xMax="842" yMax="1588">
      <contour>
        <pt x="142" y="226" on="1"/>
        <pt x="142" y="1588" on="1"/>
        <pt x="842" y="1588" on="1"/>
        <pt x="842" y="226" on="1"/>
      </contour>
      <contour>
        <pt x="284" y="368" on="1"/>
        <pt x="700" y="368" on="1"/>
        <pt x="700" y="1447" on="1"/>
        <pt x="284" y="1447" on="1"/>
      </contour>
    </TTGlyph>
    <TTGlyph name="ttehinitialarabic" xMin="142" yMin="226" xMax="842" yMax="1588">
      <contour>
        <pt x="142" y="226" on="1"/>
        <pt x="142" y="1588" on="1"/>
        <pt x="842" y="1588" on="1"/>
        <pt x="842" y="226" on="1"/>
      </contour>
      <contour>
        <pt x="284" y="368" on="1"/>
        <pt x="700" y="368" on="1"/>
        <pt x="700" y="1447" on="1"/>
        <pt x="284" y="1447" on="1"/>
      </contour>
    </TTGlyph>
    <TTGlyph name="ttehmedialarabic" xMin="142" yMin="226" xMax="842" yMax="1588">
      <contour>
        <pt x="142" y="226" on="1"/>
        <pt x="142" y="1588" on="1"/>
        <pt x="842" y="1588" on="1"/>
        <pt x="842" y="226" on="1"/>
      </contour>
      <contour>
        <pt x="284" y="368" on="1"/>
        <pt x="700" y="368" on="1"/>
        <pt x="700" y="1447" on="1"/>
        <pt x="284" y="1447" on="1"/>
      </contour>
    </TTGlyph>
    <TTGlyph name="uni000D" xMin="142" yMin="226" xMax="842" yMax="1588">
      <contour>
        <pt x="142" y="226" on="1"/>
        <pt x="142" y="1588" on="1"/>
        <pt x="842" y="1588" on="1"/>
        <pt x="842" y="226" on="1"/>
      </contour>
      <contour>
        <pt x="284" y="368" on="1"/>
        <pt x="700" y="368" on="1"/>
        <pt x="700" y="1447" on="1"/>
        <pt x="284" y="1447" on="1"/>
      </contour>
    </TTGlyph>
    <TTGlyph name="uni00A0" xMin="142" yMin="226" xMax="842" yMax="1588">
      <contour>
        <pt x="142" y="226" on="1"/>
        <pt x="142" y="1588" on="1"/>
        <pt x="842" y="1588" on="1"/>
        <pt x="842" y="226" on="1"/>
      </contour>
      <contour>
        <pt x="284" y="368" on="1"/>
        <pt x="700" y="368" on="1"/>
        <pt x="700" y="1447" on="1"/>
        <pt x="284" y="1447" on="1"/>
      </contour>
    </TTGlyph>
    <TTGlyph name="uni00AD" xMin="142" yMin="226" xMax="842" yMax="1588">
      <contour>
        <pt x="142" y="226" on="1"/>
        <pt x="142" y="1588" on="1"/>
        <pt x="842" y="1588" on="1"/>
        <pt x="842" y="226" on="1"/>
      </contour>
      <contour>
        <pt x="284" y="368" on="1"/>
        <pt x="700" y="368" on="1"/>
        <pt x="700" y="1447" on="1"/>
        <pt x="284" y="1447" on="1"/>
      </contour>
    </TTGlyph>
    <TTGlyph name="uni0653" xMin="142" yMin="226" xMax="842" yMax="1588">
      <contour>
        <pt x="142" y="226" on="1"/>
        <pt x="142" y="1588" on="1"/>
        <pt x="842" y="1588" on="1"/>
        <pt x="842" y="226" on="1"/>
      </contour>
      <contour>
        <pt x="284" y="368" on="1"/>
        <pt x="700" y="368" on="1"/>
        <pt x="700" y="1447" on="1"/>
        <pt x="284" y="1447" on="1"/>
      </contour>
    </TTGlyph>
    <TTGlyph name="uni0654" xMin="142" yMin="226" xMax="842" yMax="1588">
      <contour>
        <pt x="142" y="226" on="1"/>
        <pt x="142" y="1588" on="1"/>
        <pt x="842" y="1588" on="1"/>
        <pt x="842" y="226" on="1"/>
      </contour>
      <contour>
        <pt x="284" y="368" on="1"/>
        <pt x="700" y="368" on="1"/>
        <pt x="700" y="1447" on="1"/>
        <pt x="284" y="1447" on="1"/>
      </contour>
    </TTGlyph>
    <TTGlyph name="uni0655" xMin="142" yMin="226" xMax="842" yMax="1588">
      <contour>
        <pt x="142" y="226" on="1"/>
        <pt x="142" y="1588" on="1"/>
        <pt x="842" y="1588" on="1"/>
        <pt x="842" y="226" on="1"/>
      </contour>
      <contour>
        <pt x="284" y="368" on="1"/>
        <pt x="700" y="368" on="1"/>
        <pt x="700" y="1447" on="1"/>
        <pt x="284" y="1447" on="1"/>
      </contour>
    </TTGlyph>
    <TTGlyph name="uni066B" xMin="142" yMin="226" xMax="842" yMax="1588">
      <contour>
        <pt x="142" y="226" on="1"/>
        <pt x="142" y="1588" on="1"/>
        <pt x="842" y="1588" on="1"/>
        <pt x="842" y="226" on="1"/>
      </contour>
      <contour>
        <pt x="284" y="368" on="1"/>
        <pt x="700" y="368" on="1"/>
        <pt x="700" y="1447" on="1"/>
        <pt x="284" y="1447" on="1"/>
      </contour>
    </TTGlyph>
    <TTGlyph name="uni066C" xMin="142" yMin="226" xMax="842" yMax="1588">
      <contour>
        <pt x="142" y="226" on="1"/>
        <pt x="142" y="1588" on="1"/>
        <pt x="842" y="1588" on="1"/>
        <pt x="842" y="226" on="1"/>
      </contour>
      <contour>
        <pt x="284" y="368" on="1"/>
        <pt x="700" y="368" on="1"/>
        <pt x="700" y="1447" on="1"/>
        <pt x="284" y="1447" on="1"/>
      </contour>
    </TTGlyph>
    <TTGlyph name="uni0671" xMin="142" yMin="226" xMax="842" yMax="1588">
      <contour>
        <pt x="142" y="226" on="1"/>
        <pt x="142" y="1588" on="1"/>
        <pt x="842" y="1588" on="1"/>
        <pt x="842" y="226" on="1"/>
      </contour>
      <contour>
        <pt x="284" y="368" on="1"/>
        <pt x="700" y="368" on="1"/>
        <pt x="700" y="1447" on="1"/>
        <pt x="284" y="1447" on="1"/>
      </contour>
    </TTGlyph>
    <TTGlyph name="uni067C" xMin="142" yMin="226" xMax="842" yMax="1588">
      <contour>
        <pt x="142" y="226" on="1"/>
        <pt x="142" y="1588" on="1"/>
        <pt x="842" y="1588" on="1"/>
        <pt x="842" y="226" on="1"/>
      </contour>
      <contour>
        <pt x="284" y="368" on="1"/>
        <pt x="700" y="368" on="1"/>
        <pt x="700" y="1447" on="1"/>
        <pt x="284" y="1447" on="1"/>
      </contour>
    </TTGlyph>
    <TTGlyph name="uni0681" xMin="142" yMin="226" xMax="842" yMax="1588">
      <contour>
        <pt x="142" y="226" on="1"/>
        <pt x="142" y="1588" on="1"/>
        <pt x="842" y="1588" on="1"/>
        <pt x="842" y="226" on="1"/>
      </contour>
      <contour>
        <pt x="284" y="368" on="1"/>
        <pt x="700" y="368" on="1"/>
        <pt x="700" y="1447" on="1"/>
        <pt x="284" y="1447" on="1"/>
      </contour>
    </TTGlyph>
    <TTGlyph name="uni0685" xMin="142" yMin="226" xMax="842" yMax="1588">
      <contour>
        <pt x="142" y="226" on="1"/>
        <pt x="142" y="1588" on="1"/>
        <pt x="842" y="1588" on="1"/>
        <pt x="842" y="226" on="1"/>
      </contour>
      <contour>
        <pt x="284" y="368" on="1"/>
        <pt x="700" y="368" on="1"/>
        <pt x="700" y="1447" on="1"/>
        <pt x="284" y="1447" on="1"/>
      </contour>
    </TTGlyph>
    <TTGlyph name="uni0689" xMin="142" yMin="226" xMax="842" yMax="1588">
      <contour>
        <pt x="142" y="226" on="1"/>
        <pt x="142" y="1588" on="1"/>
        <pt x="842" y="1588" on="1"/>
        <pt x="842" y="226" on="1"/>
      </contour>
      <contour>
        <pt x="284" y="368" on="1"/>
        <pt x="700" y="368" on="1"/>
        <pt x="700" y="1447" on="1"/>
        <pt x="284" y="1447" on="1"/>
      </contour>
    </TTGlyph>
    <TTGlyph name="uni0693" xMin="142" yMin="226" xMax="842" yMax="1588">
      <contour>
        <pt x="142" y="226" on="1"/>
        <pt x="142" y="1588" on="1"/>
        <pt x="842" y="1588" on="1"/>
        <pt x="842" y="226" on="1"/>
      </contour>
      <contour>
        <pt x="284" y="368" on="1"/>
        <pt x="700" y="368" on="1"/>
        <pt x="700" y="1447" on="1"/>
        <pt x="284" y="1447" on="1"/>
      </contour>
    </TTGlyph>
    <TTGlyph name="uni0696" xMin="142" yMin="226" xMax="842" yMax="1588">
      <contour>
        <pt x="142" y="226" on="1"/>
        <pt x="142" y="1588" on="1"/>
        <pt x="842" y="1588" on="1"/>
        <pt x="842" y="226" on="1"/>
      </contour>
      <contour>
        <pt x="284" y="368" on="1"/>
        <pt x="700" y="368" on="1"/>
        <pt x="700" y="1447" on="1"/>
        <pt x="284" y="1447" on="1"/>
      </contour>
    </TTGlyph>
    <TTGlyph name="uni069A" xMin="142" yMin="226" xMax="842" yMax="1588">
      <contour>
        <pt x="142" y="226" on="1"/>
        <pt x="142" y="1588" on="1"/>
        <pt x="842" y="1588" on="1"/>
        <pt x="842" y="226" on="1"/>
      </contour>
      <contour>
        <pt x="284" y="368" on="1"/>
        <pt x="700" y="368" on="1"/>
        <pt x="700" y="1447" on="1"/>
        <pt x="284" y="1447" on="1"/>
      </contour>
    </TTGlyph>
    <TTGlyph name="uni06A9" xMin="142" yMin="226" xMax="842" yMax="1588">
      <contour>
        <pt x="142" y="226" on="1"/>
        <pt x="142" y="1588" on="1"/>
        <pt x="842" y="1588" on="1"/>
        <pt x="842" y="226" on="1"/>
      </contour>
      <contour>
        <pt x="284" y="368" on="1"/>
        <pt x="700" y="368" on="1"/>
        <pt x="700" y="1447" on="1"/>
        <pt x="284" y="1447" on="1"/>
      </contour>
    </TTGlyph>
    <TTGlyph name="uni06AB" xMin="142" yMin="226" xMax="842" yMax="1588">
      <contour>
        <pt x="142" y="226" on="1"/>
        <pt x="142" y="1588" on="1"/>
        <pt x="842" y="1588" on="1"/>
        <pt x="842" y="226" on="1"/>
      </contour>
      <contour>
        <pt x="284" y="368" on="1"/>
        <pt x="700" y="368" on="1"/>
        <pt x="700" y="1447" on="1"/>
        <pt x="284" y="1447" on="1"/>
      </contour>
    </TTGlyph>
    <TTGlyph name="uni06B7" xMin="142" yMin="226" xMax="842" yMax="1588">
      <contour>
        <pt x="142" y="226" on="1"/>
        <pt x="142" y="1588" on="1"/>
        <pt x="842" y="1588" on="1"/>
        <pt x="842" y="226" on="1"/>
      </contour>
      <contour>
        <pt x="284" y="368" on="1"/>
        <pt x="700" y="368" on="1"/>
        <pt x="700" y="1447" on="1"/>
        <pt x="284" y="1447" on="1"/>
      </contour>
    </TTGlyph>
    <TTGlyph name="uni06BC" xMin="142" yMin="226" xMax="842" yMax="1588">
      <contour>
        <pt x="142" y="226" on="1"/>
        <pt x="142" y="1588" on="1"/>
        <pt x="842" y="1588" on="1"/>
        <pt x="842" y="226" on="1"/>
      </contour>
      <contour>
        <pt x="284" y="368" on="1"/>
        <pt x="700" y="368" on="1"/>
        <pt x="700" y="1447" on="1"/>
        <pt x="284" y="1447" on="1"/>
      </contour>
    </TTGlyph>
    <TTGlyph name="uni06BE" xMin="142" yMin="226" xMax="842" yMax="1588">
      <contour>
        <pt x="142" y="226" on="1"/>
        <pt x="142" y="1588" on="1"/>
        <pt x="842" y="1588" on="1"/>
        <pt x="842" y="226" on="1"/>
      </contour>
      <contour>
        <pt x="284" y="368" on="1"/>
        <pt x="700" y="368" on="1"/>
        <pt x="700" y="1447" on="1"/>
        <pt x="284" y="1447" on="1"/>
      </contour>
    </TTGlyph>
    <TTGlyph name="uni06C2" xMin="142" yMin="226" xMax="842" yMax="1588">
      <contour>
        <pt x="142" y="226" on="1"/>
        <pt x="142" y="1588" on="1"/>
        <pt x="842" y="1588" on="1"/>
        <pt x="842" y="226" on="1"/>
      </contour>
      <contour>
        <pt x="284" y="368" on="1"/>
        <pt x="700" y="368" on="1"/>
        <pt x="700" y="1447" on="1"/>
        <pt x="284" y="1447" on="1"/>
      </contour>
    </TTGlyph>
    <TTGlyph name="uni06C7" xMin="142" yMin="226" xMax="842" yMax="1588">
      <contour>
        <pt x="142" y="226" on="1"/>
        <pt x="142" y="1588" on="1"/>
        <pt x="842" y="1588" on="1"/>
        <pt x="842" y="226" on="1"/>
      </contour>
      <contour>
        <pt x="284" y="368" on="1"/>
        <pt x="700" y="368" on="1"/>
        <pt x="700" y="1447" on="1"/>
        <pt x="284" y="1447" on="1"/>
      </contour>
    </TTGlyph>
    <TTGlyph name="uni06C9" xMin="142" yMin="226" xMax="842" yMax="1588">
      <contour>
        <pt x="142" y="226" on="1"/>
        <pt x="142" y="1588" on="1"/>
        <pt x="842" y="1588" on="1"/>
        <pt x="842" y="226" on="1"/>
      </contour>
      <contour>
        <pt x="284" y="368" on="1"/>
        <pt x="700" y="368" on="1"/>
        <pt x="700" y="1447" on="1"/>
        <pt x="284" y="1447" on="1"/>
      </contour>
    </TTGlyph>
    <TTGlyph name="uni06CC" xMin="142" yMin="226" xMax="842" yMax="1588">
      <contour>
        <pt x="142" y="226" on="1"/>
        <pt x="142" y="1588" on="1"/>
        <pt x="842" y="1588" on="1"/>
        <pt x="842" y="226" on="1"/>
      </contour>
      <contour>
        <pt x="284" y="368" on="1"/>
        <pt x="700" y="368" on="1"/>
        <pt x="700" y="1447" on="1"/>
        <pt x="284" y="1447" on="1"/>
      </contour>
    </TTGlyph>
    <TTGlyph name="uni06CD" xMin="142" yMin="226" xMax="842" yMax="1588">
      <contour>
        <pt x="142" y="226" on="1"/>
        <pt x="142" y="1588" on="1"/>
        <pt x="842" y="1588" on="1"/>
        <pt x="842" y="226" on="1"/>
      </contour>
      <contour>
        <pt x="284" y="368" on="1"/>
        <pt x="700" y="368" on="1"/>
        <pt x="700" y="1447" on="1"/>
        <pt x="284" y="1447" on="1"/>
      </contour>
    </TTGlyph>
    <TTGlyph name="uni06D0" xMin="142" yMin="226" xMax="842" yMax="1588">
      <contour>
        <pt x="142" y="226" on="1"/>
        <pt x="142" y="1588" on="1"/>
        <pt x="842" y="1588" on="1"/>
        <pt x="842" y="226" on="1"/>
      </contour>
      <contour>
        <pt x="284" y="368" on="1"/>
        <pt x="700" y="368" on="1"/>
        <pt x="700" y="1447" on="1"/>
        <pt x="284" y="1447" on="1"/>
      </contour>
    </TTGlyph>
    <TTGlyph name="uni06D1" xMin="142" yMin="226" xMax="842" yMax="1588">
      <contour>
        <pt x="142" y="226" on="1"/>
        <pt x="142" y="1588" on="1"/>
        <pt x="842" y="1588" on="1"/>
        <pt x="842" y="226" on="1"/>
      </contour>
      <contour>
        <pt x="284" y="368" on="1"/>
        <pt x="700" y="368" on="1"/>
        <pt x="700" y="1447" on="1"/>
        <pt x="284" y="1447" on="1"/>
      </contour>
    </TTGlyph>
    <TTGlyph name="uni06D3" xMin="142" yMin="226" xMax="842" yMax="1588">
      <contour>
        <pt x="142" y="226" on="1"/>
        <pt x="142" y="1588" on="1"/>
        <pt x="842" y="1588" on="1"/>
        <pt x="842" y="226" on="1"/>
      </contour>
      <contour>
        <pt x="284" y="368" on="1"/>
        <pt x="700" y="368" on="1"/>
        <pt x="700" y="1447" on="1"/>
        <pt x="284" y="1447" on="1"/>
      </contour>
    </TTGlyph>
    <TTGlyph name="uni06D4" xMin="142" yMin="226" xMax="842" yMax="1588">
      <contour>
        <pt x="142" y="226" on="1"/>
        <pt x="142" y="1588" on="1"/>
        <pt x="842" y="1588" on="1"/>
        <pt x="842" y="226" on="1"/>
      </contour>
      <contour>
        <pt x="284" y="368" on="1"/>
        <pt x="700" y="368" on="1"/>
        <pt x="700" y="1447" on="1"/>
        <pt x="284" y="1447" on="1"/>
      </contour>
    </TTGlyph>
    <TTGlyph name="uni06F0" xMin="142" yMin="226" xMax="842" yMax="1588">
      <contour>
        <pt x="142" y="226" on="1"/>
        <pt x="142" y="1588" on="1"/>
        <pt x="842" y="1588" on="1"/>
        <pt x="842" y="226" on="1"/>
      </contour>
      <contour>
        <pt x="284" y="368" on="1"/>
        <pt x="700" y="368" on="1"/>
        <pt x="700" y="1447" on="1"/>
        <pt x="284" y="1447" on="1"/>
      </contour>
    </TTGlyph>
    <TTGlyph name="uni06F1" xMin="142" yMin="226" xMax="842" yMax="1588">
      <contour>
        <pt x="142" y="226" on="1"/>
        <pt x="142" y="1588" on="1"/>
        <pt x="842" y="1588" on="1"/>
        <pt x="842" y="226" on="1"/>
      </contour>
      <contour>
        <pt x="284" y="368" on="1"/>
        <pt x="700" y="368" on="1"/>
        <pt x="700" y="1447" on="1"/>
        <pt x="284" y="1447" on="1"/>
      </contour>
    </TTGlyph>
    <TTGlyph name="uni06F2" xMin="142" yMin="226" xMax="842" yMax="1588">
      <contour>
        <pt x="142" y="226" on="1"/>
        <pt x="142" y="1588" on="1"/>
        <pt x="842" y="1588" on="1"/>
        <pt x="842" y="226" on="1"/>
      </contour>
      <contour>
        <pt x="284" y="368" on="1"/>
        <pt x="700" y="368" on="1"/>
        <pt x="700" y="1447" on="1"/>
        <pt x="284" y="1447" on="1"/>
      </contour>
    </TTGlyph>
    <TTGlyph name="uni06F3" xMin="142" yMin="226" xMax="842" yMax="1588">
      <contour>
        <pt x="142" y="226" on="1"/>
        <pt x="142" y="1588" on="1"/>
        <pt x="842" y="1588" on="1"/>
        <pt x="842" y="226" on="1"/>
      </contour>
      <contour>
        <pt x="284" y="368" on="1"/>
        <pt x="700" y="368" on="1"/>
        <pt x="700" y="1447" on="1"/>
        <pt x="284" y="1447" on="1"/>
      </contour>
    </TTGlyph>
    <TTGlyph name="uni06F4" xMin="142" yMin="226" xMax="842" yMax="1588">
      <contour>
        <pt x="142" y="226" on="1"/>
        <pt x="142" y="1588" on="1"/>
        <pt x="842" y="1588" on="1"/>
        <pt x="842" y="226" on="1"/>
      </contour>
      <contour>
        <pt x="284" y="368" on="1"/>
        <pt x="700" y="368" on="1"/>
        <pt x="700" y="1447" on="1"/>
        <pt x="284" y="1447" on="1"/>
      </contour>
    </TTGlyph>
    <TTGlyph name="uni06F5" xMin="142" yMin="226" xMax="842" yMax="1588">
      <contour>
        <pt x="142" y="226" on="1"/>
        <pt x="142" y="1588" on="1"/>
        <pt x="842" y="1588" on="1"/>
        <pt x="842" y="226" on="1"/>
      </contour>
      <contour>
        <pt x="284" y="368" on="1"/>
        <pt x="700" y="368" on="1"/>
        <pt x="700" y="1447" on="1"/>
        <pt x="284" y="1447" on="1"/>
      </contour>
    </TTGlyph>
    <TTGlyph name="uni06F6" xMin="142" yMin="226" xMax="842" yMax="1588">
      <contour>
        <pt x="142" y="226" on="1"/>
        <pt x="142" y="1588" on="1"/>
        <pt x="842" y="1588" on="1"/>
        <pt x="842" y="226" on="1"/>
      </contour>
      <contour>
        <pt x="284" y="368" on="1"/>
        <pt x="700" y="368" on="1"/>
        <pt x="700" y="1447" on="1"/>
        <pt x="284" y="1447" on="1"/>
      </contour>
    </TTGlyph>
    <TTGlyph name="uni06F7" xMin="142" yMin="226" xMax="842" yMax="1588">
      <contour>
        <pt x="142" y="226" on="1"/>
        <pt x="142" y="1588" on="1"/>
        <pt x="842" y="1588" on="1"/>
        <pt x="842" y="226" on="1"/>
      </contour>
      <contour>
        <pt x="284" y="368" on="1"/>
        <pt x="700" y="368" on="1"/>
        <pt x="700" y="1447" on="1"/>
        <pt x="284" y="1447" on="1"/>
      </contour>
    </TTGlyph>
    <TTGlyph name="uni06F8" xMin="142" yMin="226" xMax="842" yMax="1588">
      <contour>
        <pt x="142" y="226" on="1"/>
        <pt x="142" y="1588" on="1"/>
        <pt x="842" y="1588" on="1"/>
        <pt x="842" y="226" on="1"/>
      </contour>
      <contour>
        <pt x="284" y="368" on="1"/>
        <pt x="700" y="368" on="1"/>
        <pt x="700" y="1447" on="1"/>
        <pt x="284" y="1447" on="1"/>
      </contour>
    </TTGlyph>
    <TTGlyph name="uni06F9" xMin="142" yMin="226" xMax="842" yMax="1588">
      <contour>
        <pt x="142" y="226" on="1"/>
        <pt x="142" y="1588" on="1"/>
        <pt x="842" y="1588" on="1"/>
        <pt x="842" y="226" on="1"/>
      </contour>
      <contour>
        <pt x="284" y="368" on="1"/>
        <pt x="700" y="368" on="1"/>
        <pt x="700" y="1447" on="1"/>
        <pt x="284" y="1447" on="1"/>
      </contour>
    </TTGlyph>
    <TTGlyph name="uni2010" xMin="30" yMin="-122" xMax="1606" yMax="1781">
      <contour>
        <pt x="1401" y="1443" on="1"/>
        <pt x="1401" y="1410" on="0"/>
        <pt x="1238" y="1306" on="1"/>
        <pt x="1123" y="1232" on="0"/>
        <pt x="1039" y="1189" on="1"/>
        <pt x="993" y="1189" on="1"/>
        <pt x="1003" y="1217" on="0"/>
        <pt x="1016" y="1257" on="1"/>
        <pt x="1184" y="1392" on="0"/>
        <pt x="1387" y="1474" on="1"/>
        <pt x="1401" y="1460" on="0"/>
      </contour>
      <contour>
        <pt x="920" y="1751" on="1"/>
        <pt x="920" y="1706" on="0"/>
        <pt x="725" y="1602" on="1"/>
        <pt x="590" y="1534" on="0"/>
        <pt x="456" y="1466" on="1"/>
        <pt x="409" y="1466" on="1"/>
        <pt x="427" y="1538" on="0"/>
        <pt x="452" y="1552" on="1"/>
        <pt x="651" y="1662" on="0"/>
        <pt x="906" y="1781" on="1"/>
        <pt x="920" y="1767" on="0"/>
      </contour>
      <contour>
        <pt x="900" y="1362" on="1"/>
        <pt x="900" y="1280" on="0"/>
        <pt x="795" y="1223" on="1"/>
        <pt x="711" y="1177" on="0"/>
        <pt x="644" y="1177" on="1"/>
        <pt x="611" y="1177" on="0"/>
        <pt x="590" y="1202" on="1"/>
        <pt x="572" y="1221" on="0"/>
        <pt x="572" y="1244" on="1"/>
        <pt x="572" y="1275" on="0"/>
        <pt x="616" y="1340" on="1"/>
        <pt x="626" y="1340" on="0"/>
        <pt x="677" y="1311" on="0"/>
        <pt x="689" y="1310" on="1"/>
        <pt x="697" y="1319" on="0"/>
        <pt x="740" y="1371" on="0"/>
        <pt x="751" y="1382" on="1"/>
        <pt x="761" y="1377" on="0"/>
        <pt x="793" y="1357" on="0"/>
        <pt x="803" y="1352" on="1"/>
        <pt x="829" y="1364" on="0"/>
        <pt x="851" y="1411" on="1"/>
        <pt x="889" y="1411" on="1"/>
        <pt x="889" y="1408" on="0"/>
        <pt x="900" y="1376" on="0"/>
      </contour>
      <contour>
        <pt x="1606" y="1130" on="1"/>
        <pt x="1606" y="1062" on="0"/>
        <pt x="1501" y="994" on="1"/>
        <pt x="1414" y="940" on="0"/>
        <pt x="1328" y="888" on="1"/>
        <pt x="1298" y="865" on="0"/>
        <pt x="1145" y="765" on="1"/>
        <pt x="1034" y="692" on="0"/>
        <pt x="961" y="618" on="1"/>
        <pt x="993" y="569" on="0"/>
        <pt x="1056" y="531" on="1"/>
        <pt x="1110" y="498" on="0"/>
        <pt x="1164" y="466" on="1"/>
        <pt x="1278" y="383" on="0"/>
        <pt x="1278" y="235" on="1"/>
        <pt x="1278" y="101" on="0"/>
        <pt x="1185" y="29" on="1"/>
        <pt x="1106" y="-31" on="0"/>
        <pt x="987" y="-31" on="1"/>
        <pt x="897" y="-31" on="0"/>
        <pt x="863" y="11" on="1"/>
        <pt x="842" y="37" on="0"/>
        <pt x="832" y="113" on="1"/>
        <pt x="820" y="202" on="0"/>
        <pt x="800" y="247" on="1"/>
        <pt x="765" y="240" on="0"/>
        <pt x="742" y="183" on="1"/>
        <pt x="704" y="89" on="0"/>
        <pt x="701" y="84" on="1"/>
        <pt x="635" y="-21" on="0"/>
        <pt x="517" y="-58" on="1"/>
        <pt x="450" y="-80" on="0"/>
        <pt x="336" y="-103" on="1"/>
        <pt x="233" y="-122" on="0"/>
        <pt x="209" y="-122" on="1"/>
        <pt x="194" y="-122" on="0"/>
        <pt x="177" y="-111" on="0"/>
        <pt x="174" y="-111" on="1"/>
        <pt x="174" y="-79" on="0"/>
        <pt x="196" y="-66" on="1"/>
        <pt x="304" y="-22" on="0"/>
        <pt x="413" y="20" on="1"/>
        <pt x="548" y="83" on="0"/>
        <pt x="631" y="183" on="1"/>
        <pt x="652" y="207" on="0"/>
        <pt x="698" y="334" on="1"/>
        <pt x="748" y="472" on="0"/>
        <pt x="757" y="663" on="1"/>
        <pt x="770" y="921" on="0"/>
        <pt x="780" y="978" on="1"/>
        <pt x="784" y="1008" on="0"/>
        <pt x="824" y="1044" on="1"/>
        <pt x="851" y="1008" on="0"/>
        <pt x="861" y="871" on="1"/>
        <pt x="870" y="745" on="0"/>
        <pt x="916" y="717" on="1"/>
        <pt x="1569" y="1166" on="1"/>
        <pt x="1606" y="1166" on="1"/>
      </contour>
      <contour>
        <pt x="624" y="312" on="1"/>
        <pt x="624" y="301" on="0"/>
        <pt x="613" y="269" on="0"/>
        <pt x="613" y="259" on="1"/>
        <pt x="612" y="257" on="0"/>
        <pt x="611" y="256" on="1"/>
        <pt x="601" y="246" on="0"/>
        <pt x="583" y="246" on="1"/>
        <pt x="565" y="246" on="0"/>
        <pt x="555" y="259" on="1"/>
        <pt x="523" y="359" on="0"/>
        <pt x="440" y="471" on="1"/>
        <pt x="351" y="589" on="0"/>
        <pt x="247" y="663" on="1"/>
        <pt x="194" y="676" on="0"/>
        <pt x="141" y="688" on="1"/>
        <pt x="51" y="714" on="0"/>
        <pt x="32" y="772" on="1"/>
        <pt x="30" y="780" on="0"/>
        <pt x="30" y="850" on="1"/>
        <pt x="30" y="904" on="0"/>
        <pt x="30" y="907" on="1"/>
        <pt x="38" y="952" on="0"/>
        <pt x="76" y="952" on="1"/>
        <pt x="102" y="952" on="0"/>
        <pt x="191" y="892" on="1"/>
        <pt x="326" y="802" on="0"/>
        <pt x="471" y="614" on="1"/>
        <pt x="624" y="416" on="0"/>
      </contour>
      <contour>
        <pt x="1197" y="210" on="1"/>
        <pt x="1197" y="254" on="0"/>
        <pt x="1082" y="339" on="1"/>
        <pt x="974" y="419" on="0"/>
        <pt x="941" y="419" on="1"/>
        <pt x="900" y="419" on="0"/>
        <pt x="900" y="287" on="1"/>
        <pt x="900" y="215" on="0"/>
        <pt x="910" y="187" on="1"/>
        <pt x="934" y="123" on="0"/>
        <pt x="1012" y="123" on="1"/>
        <pt x="1049" y="123" on="0"/>
        <pt x="1114" y="145" on="1"/>
        <pt x="1197" y="173" on="0"/>
      </contour>
    </TTGlyph>
    <TTGlyph name="uni2011" xMin="30" yMin="-122" xMax="1606" yMax="1781">
      <contour>
        <pt x="1401" y="1443" on="1"/>
        <pt x="1401" y="1410" on="0"/>
        <pt x="1238" y="1306" on="1"/>
        <pt x="1123" y="1232" on="0"/>
        <pt x="1039" y="1189" on="1"/>
        <pt x="993" y="1189" on="1"/>
        <pt x="1003" y="1217" on="0"/>
        <pt x="1016" y="1257" on="1"/>
        <pt x="1184" y="1392" on="0"/>
        <pt x="1387" y="1474" on="1"/>
        <pt x="1401" y="1460" on="0"/>
      </contour>
      <contour>
        <pt x="920" y="1751" on="1"/>
        <pt x="920" y="1706" on="0"/>
        <pt x="725" y="1602" on="1"/>
        <pt x="590" y="1534" on="0"/>
        <pt x="456" y="1466" on="1"/>
        <pt x="409" y="1466" on="1"/>
        <pt x="427" y="1538" on="0"/>
        <pt x="452" y="1552" on="1"/>
        <pt x="651" y="1662" on="0"/>
        <pt x="906" y="1781" on="1"/>
        <pt x="920" y="1767" on="0"/>
      </contour>
      <contour>
        <pt x="900" y="1362" on="1"/>
        <pt x="900" y="1280" on="0"/>
        <pt x="795" y="1223" on="1"/>
        <pt x="711" y="1177" on="0"/>
        <pt x="644" y="1177" on="1"/>
        <pt x="611" y="1177" on="0"/>
        <pt x="590" y="1202" on="1"/>
        <pt x="572" y="1221" on="0"/>
        <pt x="572" y="1244" on="1"/>
        <pt x="572" y="1275" on="0"/>
        <pt x="616" y="1340" on="1"/>
        <pt x="626" y="1340" on="0"/>
        <pt x="677" y="1311" on="0"/>
        <pt x="689" y="1310" on="1"/>
        <pt x="697" y="1319" on="0"/>
        <pt x="740" y="1371" on="0"/>
        <pt x="751" y="1382" on="1"/>
        <pt x="761" y="1377" on="0"/>
        <pt x="793" y="1357" on="0"/>
        <pt x="803" y="1352" on="1"/>
        <pt x="829" y="1364" on="0"/>
        <pt x="851" y="1411" on="1"/>
        <pt x="889" y="1411" on="1"/>
        <pt x="889" y="1408" on="0"/>
        <pt x="900" y="1376" on="0"/>
      </contour>
      <contour>
        <pt x="1606" y="1130" on="1"/>
        <pt x="1606" y="1062" on="0"/>
        <pt x="1501" y="994" on="1"/>
        <pt x="1414" y="940" on="0"/>
        <pt x="1328" y="888" on="1"/>
        <pt x="1298" y="865" on="0"/>
        <pt x="1145" y="765" on="1"/>
        <pt x="1034" y="692" on="0"/>
        <pt x="961" y="618" on="1"/>
        <pt x="993" y="569" on="0"/>
        <pt x="1056" y="531" on="1"/>
        <pt x="1110" y="498" on="0"/>
        <pt x="1164" y="466" on="1"/>
        <pt x="1278" y="383" on="0"/>
        <pt x="1278" y="235" on="1"/>
        <pt x="1278" y="101" on="0"/>
        <pt x="1185" y="29" on="1"/>
        <pt x="1106" y="-31" on="0"/>
        <pt x="987" y="-31" on="1"/>
        <pt x="897" y="-31" on="0"/>
        <pt x="863" y="11" on="1"/>
        <pt x="842" y="37" on="0"/>
        <pt x="832" y="113" on="1"/>
        <pt x="820" y="202" on="0"/>
        <pt x="800" y="247" on="1"/>
        <pt x="765" y="240" on="0"/>
        <pt x="742" y="183" on="1"/>
        <pt x="704" y="89" on="0"/>
        <pt x="701" y="84" on="1"/>
        <pt x="635" y="-21" on="0"/>
        <pt x="517" y="-58" on="1"/>
        <pt x="450" y="-80" on="0"/>
        <pt x="336" y="-103" on="1"/>
        <pt x="233" y="-122" on="0"/>
        <pt x="209" y="-122" on="1"/>
        <pt x="194" y="-122" on="0"/>
        <pt x="177" y="-111" on="0"/>
        <pt x="174" y="-111" on="1"/>
        <pt x="174" y="-79" on="0"/>
        <pt x="196" y="-66" on="1"/>
        <pt x="304" y="-22" on="0"/>
        <pt x="413" y="20" on="1"/>
        <pt x="548" y="83" on="0"/>
        <pt x="631" y="183" on="1"/>
        <pt x="652" y="207" on="0"/>
        <pt x="698" y="334" on="1"/>
        <pt x="748" y="472" on="0"/>
        <pt x="757" y="663" on="1"/>
        <pt x="770" y="921" on="0"/>
        <pt x="780" y="978" on="1"/>
        <pt x="784" y="1008" on="0"/>
        <pt x="824" y="1044" on="1"/>
        <pt x="851" y="1008" on="0"/>
        <pt x="861" y="871" on="1"/>
        <pt x="870" y="745" on="0"/>
        <pt x="916" y="717" on="1"/>
        <pt x="1569" y="1166" on="1"/>
        <pt x="1606" y="1166" on="1"/>
      </contour>
      <contour>
        <pt x="624" y="312" on="1"/>
        <pt x="624" y="301" on="0"/>
        <pt x="613" y="269" on="0"/>
        <pt x="613" y="259" on="1"/>
        <pt x="612" y="257" on="0"/>
        <pt x="611" y="256" on="1"/>
        <pt x="601" y="246" on="0"/>
        <pt x="583" y="246" on="1"/>
        <pt x="565" y="246" on="0"/>
        <pt x="555" y="259" on="1"/>
        <pt x="523" y="359" on="0"/>
        <pt x="440" y="471" on="1"/>
        <pt x="351" y="589" on="0"/>
        <pt x="247" y="663" on="1"/>
        <pt x="194" y="676" on="0"/>
        <pt x="141" y="688" on="1"/>
        <pt x="51" y="714" on="0"/>
        <pt x="32" y="772" on="1"/>
        <pt x="30" y="780" on="0"/>
        <pt x="30" y="850" on="1"/>
        <pt x="30" y="904" on="0"/>
        <pt x="30" y="907" on="1"/>
        <pt x="38" y="952" on="0"/>
        <pt x="76" y="952" on="1"/>
        <pt x="102" y="952" on="0"/>
        <pt x="191" y="892" on="1"/>
        <pt x="326" y="802" on="0"/>
        <pt x="471" y="614" on="1"/>
        <pt x="624" y="416" on="0"/>
      </contour>
      <contour>
        <pt x="1197" y="210" on="1"/>
        <pt x="1197" y="254" on="0"/>
        <pt x="1082" y="339" on="1"/>
        <pt x="974" y="419" on="0"/>
        <pt x="941" y="419" on="1"/>
        <pt x="900" y="419" on="0"/>
        <pt x="900" y="287" on="1"/>
        <pt x="900" y="215" on="0"/>
        <pt x="910" y="187" on="1"/>
        <pt x="934" y="123" on="0"/>
        <pt x="1012" y="123" on="1"/>
        <pt x="1049" y="123" on="0"/>
        <pt x="1114" y="145" on="1"/>
        <pt x="1197" y="173" on="0"/>
      </contour>
    </TTGlyph>
    <TTGlyph name="uniE000" xMin="0" yMin="0" xMax="1785" yMax="1785">
      <contour>
        <pt x="0" y="1785" on="1"/>
        <pt x="1785" y="1785" on="1"/>
        <pt x="1785" y="0" on="1"/>
        <pt x="0" y="0" on="1"/>
      </contour>
    </TTGlyph>
    <TTGlyph name="uniFB51" xMin="185" yMin="-686" xMax="1496" yMax="1453">
      <contour>
        <pt x="1362" y="1213" on="1"/>
        <pt x="1362" y="1176" on="0"/>
        <pt x="1184" y="1076" on="1"/>
        <pt x="1016" y="982" on="0"/>
        <pt x="998" y="984" on="1"/>
        <pt x="944" y="984" on="1"/>
        <pt x="952" y="1040" on="0"/>
        <pt x="1032" y="1090" on="1"/>
        <pt x="1091" y="1119" on="0"/>
        <pt x="1150" y="1149" on="1"/>
        <pt x="1207" y="1178" on="0"/>
        <pt x="1315" y="1238" on="1"/>
        <pt x="1350" y="1238" on="1"/>
        <pt x="1362" y="1237" on="0"/>
      </contour>
      <contour>
        <pt x="736" y="1406" on="1"/>
        <pt x="713" y="1384" on="0"/>
        <pt x="556" y="1303" on="1"/>
        <pt x="393" y="1219" on="0"/>
        <pt x="363" y="1220" on="1"/>
        <pt x="309" y="1220" on="1"/>
        <pt x="319" y="1248" on="0"/>
        <pt x="332" y="1288" on="1"/>
        <pt x="686" y="1453" on="0"/>
        <pt x="693" y="1452" on="1"/>
        <pt x="736" y="1452" on="1"/>
      </contour>
      <contour>
        <pt x="686" y="1049" on="1"/>
        <pt x="686" y="961" on="0"/>
        <pt x="599" y="910" on="1"/>
        <pt x="531" y="870" on="0"/>
        <pt x="456" y="870" on="1"/>
        <pt x="428" y="870" on="0"/>
        <pt x="402" y="886" on="1"/>
        <pt x="369" y="904" on="0"/>
        <pt x="369" y="936" on="1"/>
        <pt x="369" y="958" on="0"/>
        <pt x="413" y="1023" on="1"/>
        <pt x="421" y="1023" on="0"/>
        <pt x="463" y="1004" on="0"/>
        <pt x="477" y="1004" on="1"/>
        <pt x="489" y="1004" on="0"/>
        <pt x="545" y="1065" on="0"/>
        <pt x="559" y="1065" on="1"/>
        <pt x="571" y="1065" on="0"/>
        <pt x="581" y="1054" on="0"/>
        <pt x="594" y="1054" on="1"/>
        <pt x="605" y="1054" on="0"/>
        <pt x="629" y="1076" on="1"/>
        <pt x="657" y="1100" on="0"/>
        <pt x="672" y="1105" on="1"/>
        <pt x="686" y="1091" on="0"/>
      </contour>
      <contour>
        <pt x="1495" y="198" on="1"/>
        <pt x="1496" y="161" on="0"/>
        <pt x="1432" y="106" on="1"/>
        <pt x="1291" y="-13" on="0"/>
        <pt x="989" y="-38" on="1"/>
        <pt x="988" y="-38" on="0"/>
        <pt x="865" y="-37" on="1"/>
        <pt x="783" y="-37" on="0"/>
        <pt x="745" y="-54" on="1"/>
        <pt x="728" y="-62" on="0"/>
        <pt x="699" y="-136" on="1"/>
        <pt x="672" y="-204" on="0"/>
        <pt x="635" y="-204" on="1"/>
        <pt x="564" y="-204" on="0"/>
        <pt x="489" y="61" on="0"/>
        <pt x="436" y="61" on="1"/>
        <pt x="283" y="61" on="0"/>
        <pt x="283" y="-106" on="1"/>
        <pt x="283" y="-136" on="0"/>
        <pt x="287" y="-189" on="1"/>
        <pt x="296" y="-328" on="0"/>
        <pt x="296" y="-433" on="1"/>
        <pt x="296" y="-539" on="0"/>
        <pt x="277" y="-675" on="0"/>
        <pt x="277" y="-662" on="1"/>
        <pt x="271" y="-667" on="0"/>
        <pt x="246" y="-680" on="0"/>
        <pt x="241" y="-686" on="1"/>
        <pt x="233" y="-679" on="0"/>
        <pt x="219" y="-661" on="1"/>
        <pt x="218" y="-634" on="0"/>
        <pt x="201" y="-312" on="1"/>
        <pt x="200" y="-287" on="0"/>
        <pt x="192" y="-226" on="1"/>
        <pt x="185" y="-170" on="0"/>
        <pt x="185" y="-154" on="1"/>
        <pt x="185" y="79" on="0"/>
        <pt x="320" y="159" on="1"/>
        <pt x="353" y="179" on="0"/>
        <pt x="506" y="217" on="1"/>
        <pt x="524" y="222" on="0"/>
        <pt x="579" y="276" on="1"/>
        <pt x="672" y="184" on="0"/>
        <pt x="710" y="157" on="1"/>
        <pt x="778" y="111" on="0"/>
        <pt x="858" y="111" on="1"/>
        <pt x="871" y="111" on="0"/>
        <pt x="884" y="112" on="1"/>
        <pt x="905" y="128" on="0"/>
        <pt x="906" y="169" on="1"/>
        <pt x="906" y="201" on="0"/>
        <pt x="906" y="233" on="1"/>
        <pt x="908" y="249" on="0"/>
        <pt x="915" y="263" on="1"/>
        <pt x="1035" y="522" on="0"/>
        <pt x="1167" y="522" on="1"/>
        <pt x="1308" y="522" on="0"/>
        <pt x="1372" y="382" on="1"/>
        <pt x="1341" y="375" on="0"/>
        <pt x="1286" y="382" on="1"/>
        <pt x="1216" y="389" on="0"/>
        <pt x="1219" y="389" on="1"/>
        <pt x="1157" y="389" on="0"/>
        <pt x="1099" y="365" on="1"/>
        <pt x="1024" y="334" on="0"/>
        <pt x="1024" y="282" on="1"/>
        <pt x="1024" y="219" on="0"/>
        <pt x="1075" y="174" on="1"/>
        <pt x="1124" y="133" on="0"/>
        <pt x="1183" y="133" on="1"/>
        <pt x="1307" y="133" on="0"/>
        <pt x="1458" y="245" on="1"/>
        <pt x="1495" y="245" on="1"/>
      </contour>
    </TTGlyph>
    <TTGlyph name="uniFB52" xMin="16" yMin="-481" xMax="4151" yMax="1669">
      <contour>
        <pt x="4151" y="1405" on="1"/>
        <pt x="4042" y="1337" on="0"/>
        <pt x="3831" y="1219" on="1"/>
        <pt x="3784" y="1219" on="1"/>
        <pt x="3784" y="1266" on="1"/>
        <pt x="3826" y="1310" on="0"/>
        <pt x="3961" y="1385" on="1"/>
        <pt x="4086" y="1454" on="0"/>
        <pt x="4097" y="1453" on="1"/>
        <pt x="4151" y="1453" on="1"/>
      </contour>
      <contour>
        <pt x="3733" y="1454" on="1"/>
        <pt x="3733" y="1430" on="0"/>
        <pt x="3563" y="1331" on="1"/>
        <pt x="3457" y="1270" on="0"/>
        <pt x="3350" y="1208" on="1"/>
        <pt x="3304" y="1208" on="1"/>
        <pt x="3292" y="1210" on="0"/>
        <pt x="3292" y="1234" on="1"/>
        <pt x="3292" y="1294" on="0"/>
        <pt x="3685" y="1484" on="1"/>
        <pt x="3721" y="1484" on="1"/>
        <pt x="3721" y="1479" on="0"/>
        <pt x="3733" y="1468" on="0"/>
      </contour>
      <contour>
        <pt x="3722" y="870" on="1"/>
        <pt x="3722" y="831" on="0"/>
        <pt x="3679" y="806" on="1"/>
        <pt x="3649" y="788" on="0"/>
        <pt x="3630" y="788" on="1"/>
        <pt x="3620" y="788" on="0"/>
        <pt x="3565" y="809" on="0"/>
        <pt x="3548" y="809" on="1"/>
        <pt x="3535" y="809" on="0"/>
        <pt x="3464" y="778" on="0"/>
        <pt x="3451" y="778" on="1"/>
        <pt x="3421" y="778" on="0"/>
        <pt x="3374" y="815" on="0"/>
        <pt x="3374" y="834" on="1"/>
        <pt x="3374" y="863" on="0"/>
        <pt x="3407" y="888" on="1"/>
        <pt x="3438" y="911" on="0"/>
        <pt x="3462" y="911" on="1"/>
        <pt x="3472" y="911" on="0"/>
        <pt x="3504" y="901" on="0"/>
        <pt x="3517" y="901" on="1"/>
        <pt x="3530" y="901" on="0"/>
        <pt x="3617" y="942" on="0"/>
        <pt x="3630" y="942" on="1"/>
        <pt x="3657" y="942" on="0"/>
        <pt x="3722" y="889" on="0"/>
      </contour>
      <contour>
        <pt x="3190" y="1423" on="1"/>
        <pt x="3190" y="1374" on="0"/>
        <pt x="2859" y="1225" on="1"/>
        <pt x="2791" y="1186" on="0"/>
        <pt x="2662" y="1116" on="1"/>
        <pt x="2647" y="1130" on="0"/>
        <pt x="2647" y="1147" on="1"/>
        <pt x="2647" y="1222" on="0"/>
        <pt x="3143" y="1453" on="1"/>
        <pt x="3176" y="1453" on="1"/>
        <pt x="3190" y="1440" on="0"/>
      </contour>
      <contour>
        <pt x="4070" y="230" on="1"/>
        <pt x="4070" y="115" on="0"/>
        <pt x="4045" y="71" on="1"/>
        <pt x="4008" y="10" on="0"/>
        <pt x="3897" y="10" on="1"/>
        <pt x="3821" y="10" on="0"/>
        <pt x="3677" y="92" on="0"/>
        <pt x="3676" y="92" on="1"/>
        <pt x="3665" y="92" on="0"/>
        <pt x="3625" y="66" on="1"/>
        <pt x="3582" y="38" on="0"/>
        <pt x="3565" y="34" on="1"/>
        <pt x="3513" y="20" on="0"/>
        <pt x="3471" y="20" on="1"/>
        <pt x="3458" y="20" on="0"/>
        <pt x="3335" y="61" on="0"/>
        <pt x="3323" y="61" on="1"/>
        <pt x="3309" y="61" on="0"/>
        <pt x="3285" y="42" on="1"/>
        <pt x="3251" y="15" on="0"/>
        <pt x="3249" y="13" on="1"/>
        <pt x="3208" y="-10" on="0"/>
        <pt x="3144" y="-10" on="1"/>
        <pt x="3132" y="-10" on="0"/>
        <pt x="3068" y="0" on="0"/>
        <pt x="3057" y="0" on="1"/>
        <pt x="3044" y="0" on="0"/>
        <pt x="2906" y="-40" on="0"/>
        <pt x="2893" y="-40" on="1"/>
        <pt x="2875" y="-40" on="0"/>
        <pt x="2769" y="0" on="0"/>
        <pt x="2760" y="0" on="1"/>
        <pt x="2747" y="0" on="0"/>
        <pt x="2573" y="-40" on="0"/>
        <pt x="2560" y="-40" on="1"/>
        <pt x="2503" y="-40" on="0"/>
        <pt x="2442" y="-15" on="1"/>
        <pt x="2362" y="17" on="0"/>
        <pt x="2343" y="75" on="1"/>
        <pt x="2319" y="149" on="0"/>
        <pt x="2312" y="271" on="1"/>
        <pt x="2313" y="349" on="0"/>
        <pt x="2310" y="506" on="1"/>
        <pt x="2302" y="599" on="0"/>
        <pt x="2279" y="801" on="1"/>
        <pt x="2258" y="984" on="0"/>
        <pt x="2258" y="993" on="1"/>
        <pt x="2258" y="1030" on="0"/>
        <pt x="2302" y="1094" on="1"/>
        <pt x="2338" y="1094" on="1"/>
        <pt x="2371" y="1043" on="0"/>
        <pt x="2372" y="953" on="1"/>
        <pt x="2371" y="878" on="0"/>
        <pt x="2370" y="804" on="1"/>
        <pt x="2380" y="732" on="0"/>
        <pt x="2397" y="589" on="1"/>
        <pt x="2401" y="563" on="0"/>
        <pt x="2397" y="393" on="1"/>
        <pt x="2396" y="272" on="0"/>
        <pt x="2424" y="202" on="1"/>
        <pt x="2465" y="102" on="0"/>
        <pt x="2642" y="102" on="1"/>
        <pt x="2707" y="102" on="0"/>
        <pt x="2761" y="152" on="1"/>
        <pt x="2831" y="214" on="0"/>
        <pt x="2859" y="224" on="1"/>
        <pt x="2860" y="197" on="0"/>
        <pt x="2864" y="139" on="1"/>
        <pt x="2884" y="102" on="0"/>
        <pt x="2944" y="102" on="1"/>
        <pt x="3013" y="102" on="0"/>
        <pt x="3068" y="170" on="1"/>
        <pt x="3126" y="241" on="0"/>
        <pt x="3146" y="245" on="1"/>
        <pt x="3154" y="226" on="0"/>
        <pt x="3161" y="171" on="1"/>
        <pt x="3187" y="143" on="0"/>
        <pt x="3210" y="143" on="1"/>
        <pt x="3281" y="143" on="0"/>
        <pt x="3346" y="265" on="1"/>
        <pt x="3383" y="265" on="1"/>
        <pt x="3404" y="164" on="0"/>
        <pt x="3517" y="164" on="1"/>
        <pt x="3640" y="164" on="0"/>
        <pt x="3640" y="256" on="1"/>
        <pt x="3640" y="269" on="0"/>
        <pt x="3589" y="499" on="0"/>
        <pt x="3589" y="512" on="1"/>
        <pt x="3589" y="573" on="0"/>
        <pt x="3634" y="614" on="1"/>
        <pt x="3661" y="614" on="0"/>
        <pt x="3677" y="581" on="1"/>
        <pt x="3702" y="459" on="0"/>
        <pt x="3729" y="338" on="1"/>
        <pt x="3780" y="153" on="0"/>
        <pt x="3906" y="153" on="1"/>
        <pt x="3963" y="153" on="0"/>
        <pt x="3988" y="190" on="1"/>
        <pt x="3981" y="207" on="0"/>
        <pt x="3910" y="310" on="1"/>
        <pt x="3906" y="322" on="0"/>
        <pt x="3906" y="353" on="1"/>
        <pt x="3906" y="430" on="0"/>
        <pt x="3952" y="430" on="1"/>
        <pt x="4008" y="430" on="0"/>
        <pt x="4042" y="356" on="1"/>
        <pt x="4070" y="295" on="0"/>
      </contour>
      <contour>
        <pt x="2615" y="1407" on="1"/>
        <pt x="2616" y="1384" on="0"/>
        <pt x="2539" y="1333" on="1"/>
        <pt x="2470" y="1288" on="0"/>
        <pt x="2449" y="1282" on="1"/>
        <pt x="2275" y="1239" on="0"/>
        <pt x="2269" y="1239" on="1"/>
        <pt x="2257" y="1239" on="0"/>
        <pt x="2131" y="1259" on="0"/>
        <pt x="2120" y="1259" on="1"/>
        <pt x="2078" y="1259" on="0"/>
        <pt x="2009" y="1209" on="1"/>
        <pt x="1973" y="1209" on="1"/>
        <pt x="1966" y="1248" on="0"/>
        <pt x="2081" y="1372" on="0"/>
        <pt x="2125" y="1372" on="1"/>
        <pt x="2138" y="1372" on="0"/>
        <pt x="2302" y="1341" on="0"/>
        <pt x="2315" y="1341" on="1"/>
        <pt x="2334" y="1341" on="0"/>
        <pt x="2615" y="1443" on="1"/>
      </contour>
      <contour>
        <pt x="4122" y="-384" on="1"/>
        <pt x="4122" y="-416" on="0"/>
        <pt x="4073" y="-461" on="0"/>
        <pt x="4040" y="-461" on="1"/>
        <pt x="4025" y="-461" on="0"/>
        <pt x="3982" y="-440" on="0"/>
        <pt x="3968" y="-440" on="1"/>
        <pt x="3956" y="-440" on="0"/>
        <pt x="3879" y="-481" on="0"/>
        <pt x="3865" y="-481" on="1"/>
        <pt x="3840" y="-481" on="0"/>
        <pt x="3808" y="-462" on="1"/>
        <pt x="3774" y="-441" on="0"/>
        <pt x="3774" y="-420" on="1"/>
        <pt x="3774" y="-403" on="0"/>
        <pt x="3851" y="-327" on="0"/>
        <pt x="3870" y="-327" on="1"/>
        <pt x="3883" y="-327" on="0"/>
        <pt x="3940" y="-358" on="0"/>
        <pt x="3952" y="-358" on="1"/>
        <pt x="3965" y="-358" on="0"/>
        <pt x="4037" y="-307" on="0"/>
        <pt x="4050" y="-307" on="1"/>
        <pt x="4081" y="-307" on="0"/>
        <pt x="4104" y="-339" on="1"/>
        <pt x="4122" y="-364" on="0"/>
      </contour>
      <contour>
        <pt x="2115" y="886" on="1"/>
        <pt x="2115" y="853" on="0"/>
        <pt x="1948" y="762" on="1"/>
        <pt x="1789" y="673" on="0"/>
        <pt x="1781" y="677" on="1"/>
        <pt x="1717" y="677" on="1"/>
        <pt x="1726" y="706" on="0"/>
        <pt x="1740" y="745" on="1"/>
        <pt x="1743" y="747" on="0"/>
        <pt x="1926" y="847" on="1"/>
        <pt x="2043" y="911" on="0"/>
        <pt x="2060" y="911" on="1"/>
        <pt x="2103" y="911" on="1"/>
        <pt x="2115" y="909" on="0"/>
      </contour>
      <contour>
        <pt x="1500" y="1332" on="1"/>
        <pt x="1475" y="1311" on="0"/>
        <pt x="1455" y="1311" on="1"/>
        <pt x="1444" y="1311" on="0"/>
        <pt x="1391" y="1331" on="0"/>
        <pt x="1378" y="1331" on="1"/>
        <pt x="1359" y="1331" on="0"/>
        <pt x="1289" y="1267" on="1"/>
        <pt x="1210" y="1195" on="0"/>
        <pt x="1201" y="1191" on="1"/>
        <pt x="1088" y="1126" on="0"/>
        <pt x="983" y="1095" on="1"/>
        <pt x="968" y="1108" on="0"/>
        <pt x="958" y="1108" on="1"/>
        <pt x="973" y="1124" on="0"/>
        <pt x="1128" y="1234" on="1"/>
        <pt x="1255" y="1325" on="0"/>
        <pt x="1255" y="1357" on="1"/>
        <pt x="1255" y="1369" on="0"/>
        <pt x="1226" y="1399" on="1"/>
        <pt x="1187" y="1441" on="0"/>
        <pt x="1176" y="1457" on="1"/>
        <pt x="1173" y="1469" on="0"/>
        <pt x="1173" y="1500" on="1"/>
        <pt x="1173" y="1551" on="0"/>
        <pt x="1209" y="1605" on="1"/>
        <pt x="1251" y="1669" on="0"/>
        <pt x="1311" y="1669" on="1"/>
        <pt x="1373" y="1669" on="0"/>
        <pt x="1382" y="1584" on="1"/>
        <pt x="1387" y="1534" on="0"/>
        <pt x="1390" y="1482" on="1"/>
        <pt x="1405" y="1459" on="0"/>
        <pt x="1500" y="1391" on="1"/>
      </contour>
      <contour>
        <pt x="2226" y="183" on="1"/>
        <pt x="2206" y="100" on="0"/>
        <pt x="2173" y="85" on="1"/>
        <pt x="2104" y="65" on="0"/>
        <pt x="2036" y="45" on="1"/>
        <pt x="1944" y="18" on="0"/>
        <pt x="1876" y="-49" on="1"/>
        <pt x="1840" y="-49" on="1"/>
        <pt x="1844" y="16" on="0"/>
        <pt x="1826" y="43" on="1"/>
        <pt x="1822" y="48" on="0"/>
        <pt x="1775" y="88" on="1"/>
        <pt x="1746" y="113" on="0"/>
        <pt x="1746" y="148" on="1"/>
        <pt x="1746" y="199" on="0"/>
        <pt x="1841" y="302" on="1"/>
        <pt x="1939" y="410" on="0"/>
        <pt x="1997" y="410" on="1"/>
        <pt x="2029" y="410" on="0"/>
        <pt x="2057" y="376" on="1"/>
        <pt x="2084" y="346" on="0"/>
        <pt x="2084" y="317" on="1"/>
        <pt x="2084" y="280" on="0"/>
        <pt x="2051" y="250" on="1"/>
        <pt x="2023" y="225" on="0"/>
        <pt x="2003" y="225" on="1"/>
        <pt x="1996" y="225" on="0"/>
        <pt x="1935" y="256" on="1"/>
        <pt x="1896" y="256" on="1"/>
        <pt x="1893" y="248" on="0"/>
        <pt x="1879" y="229" on="1"/>
        <pt x="1912" y="164" on="0"/>
        <pt x="2028" y="164" on="1"/>
        <pt x="2002" y="164" on="0"/>
      </contour>
      <contour>
        <pt x="548" y="1366" on="1"/>
        <pt x="548" y="1296" on="0"/>
        <pt x="135" y="1085" on="1"/>
        <pt x="100" y="1085" on="1"/>
        <pt x="87" y="1087" on="0"/>
        <pt x="87" y="1111" on="1"/>
        <pt x="87" y="1145" on="0"/>
        <pt x="239" y="1236" on="1"/>
        <pt x="370" y="1314" on="0"/>
        <pt x="501" y="1392" on="1"/>
        <pt x="536" y="1392" on="1"/>
        <pt x="548" y="1390" on="0"/>
      </contour>
      <contour>
        <pt x="1532" y="348" on="1"/>
        <pt x="1532" y="215" on="0"/>
        <pt x="1475" y="145" on="1"/>
        <pt x="1460" y="127" on="0"/>
        <pt x="1398" y="106" on="1"/>
        <pt x="1332" y="85" on="0"/>
        <pt x="1314" y="69" on="1"/>
        <pt x="1290" y="46" on="0"/>
        <pt x="1210" y="-101" on="1"/>
        <pt x="1140" y="-229" on="0"/>
        <pt x="1047" y="-283" on="1"/>
        <pt x="972" y="-327" on="0"/>
        <pt x="861" y="-327" on="1"/>
        <pt x="854" y="-327" on="0"/>
        <pt x="761" y="-316" on="1"/>
        <pt x="666" y="-305" on="0"/>
        <pt x="624" y="-304" on="1"/>
        <pt x="607" y="-293" on="0"/>
        <pt x="579" y="-271" on="1"/>
        <pt x="593" y="-253" on="1"/>
        <pt x="676" y="-251" on="0"/>
        <pt x="839" y="-233" on="1"/>
        <pt x="924" y="-215" on="0"/>
        <pt x="1022" y="-152" on="1"/>
        <pt x="1058" y="-128" on="0"/>
        <pt x="1173" y="-3" on="0"/>
        <pt x="1173" y="16" on="1"/>
        <pt x="1173" y="48" on="0"/>
        <pt x="1115" y="57" on="1"/>
        <pt x="1026" y="70" on="0"/>
        <pt x="1006" y="79" on="1"/>
        <pt x="947" y="106" on="0"/>
        <pt x="947" y="184" on="1"/>
        <pt x="947" y="251" on="0"/>
        <pt x="999" y="336" on="1"/>
        <pt x="1056" y="430" on="0"/>
        <pt x="1122" y="430" on="1"/>
        <pt x="1161" y="430" on="0"/>
        <pt x="1273" y="225" on="0"/>
        <pt x="1332" y="225" on="1"/>
        <pt x="1394" y="225" on="0"/>
        <pt x="1450" y="272" on="1"/>
        <pt x="1441" y="384" on="0"/>
        <pt x="1395" y="680" on="1"/>
        <pt x="1386" y="736" on="0"/>
        <pt x="1349" y="876" on="1"/>
        <pt x="1316" y="1003" on="0"/>
        <pt x="1316" y="1013" on="1"/>
        <pt x="1316" y="1048" on="0"/>
        <pt x="1354" y="1110" on="1"/>
        <pt x="1387" y="1166" on="0"/>
        <pt x="1404" y="1177" on="1"/>
        <pt x="1410" y="1171" on="0"/>
        <pt x="1424" y="1162" on="1"/>
        <pt x="1422" y="1135" on="0"/>
        <pt x="1431" y="1093" on="1"/>
        <pt x="1440" y="1078" on="0"/>
        <pt x="1473" y="1050" on="1"/>
        <pt x="1500" y="1027" on="0"/>
        <pt x="1500" y="1013" on="1"/>
        <pt x="1500" y="1000" on="0"/>
        <pt x="1459" y="888" on="0"/>
        <pt x="1459" y="875" on="1"/>
        <pt x="1459" y="863" on="0"/>
        <pt x="1532" y="360" on="0"/>
      </contour>
      <contour>
        <pt x="364" y="737" on="1"/>
        <pt x="364" y="706" on="0"/>
        <pt x="344" y="677" on="1"/>
        <pt x="324" y="645" on="0"/>
        <pt x="298" y="645" on="1"/>
        <pt x="268" y="645" on="0"/>
        <pt x="200" y="696" on="0"/>
        <pt x="200" y="717" on="1"/>
        <pt x="200" y="747" on="0"/>
        <pt x="234" y="774" on="1"/>
        <pt x="264" y="799" on="0"/>
        <pt x="287" y="799" on="1"/>
        <pt x="314" y="799" on="0"/>
        <pt x="340" y="777" on="1"/>
        <pt x="364" y="755" on="0"/>
      </contour>
      <contour>
        <pt x="712" y="225" on="1"/>
        <pt x="712" y="47" on="0"/>
        <pt x="557" y="-56" on="1"/>
        <pt x="426" y="-143" on="0"/>
        <pt x="257" y="-143" on="1"/>
        <pt x="163" y="-143" on="0"/>
        <pt x="16" y="-13" on="0"/>
        <pt x="16" y="77" on="1"/>
        <pt x="16" y="240" on="0"/>
        <pt x="133" y="338" on="1"/>
        <pt x="141" y="336" on="0"/>
        <pt x="159" y="324" on="1"/>
        <pt x="108" y="193" on="0"/>
        <pt x="108" y="164" on="1"/>
        <pt x="108" y="84" on="0"/>
        <pt x="182" y="43" on="1"/>
        <pt x="242" y="10" on="0"/>
        <pt x="328" y="10" on="1"/>
        <pt x="397" y="10" on="0"/>
        <pt x="500" y="48" on="1"/>
        <pt x="630" y="97" on="0"/>
        <pt x="630" y="164" on="1"/>
        <pt x="630" y="176" on="0"/>
        <pt x="517" y="463" on="0"/>
        <pt x="517" y="476" on="1"/>
        <pt x="517" y="506" on="0"/>
        <pt x="540" y="552" on="1"/>
        <pt x="576" y="552" on="1"/>
        <pt x="712" y="343" on="0"/>
      </contour>
    </TTGlyph>
    <TTGlyph name="uniFB53" xMin="2" yMin="-574" xMax="2546" yMax="1785">
      <contour>
        <pt x="2404" y="1042" on="1"/>
        <pt x="2364" y="1018" on="1"/>
        <pt x="2364" y="1029" on="0"/>
        <pt x="2351" y="1055" on="1"/>
        <pt x="2332" y="1080" on="0"/>
        <pt x="2188" y="1203" on="0"/>
        <pt x="2172" y="1226" on="1"/>
        <pt x="2094" y="1335" on="0"/>
        <pt x="2087" y="1449" on="1"/>
        <pt x="2002" y="1431" on="0"/>
        <pt x="2002" y="1248" on="1"/>
        <pt x="2002" y="1160" on="0"/>
        <pt x="2022" y="1110" on="1"/>
        <pt x="1997" y="1131" on="0"/>
        <pt x="1971" y="1153" on="1"/>
        <pt x="1962" y="1201" on="0"/>
        <pt x="1962" y="1248" on="1"/>
        <pt x="1962" y="1351" on="0"/>
        <pt x="2046" y="1502" on="0"/>
        <pt x="2118" y="1523" on="1"/>
        <pt x="2121" y="1372" on="0"/>
        <pt x="2209" y="1254" on="1"/>
        <pt x="2226" y="1230" on="0"/>
        <pt x="2310" y="1158" on="1"/>
        <pt x="2383" y="1094" on="0"/>
        <pt x="2397" y="1063" on="1"/>
        <pt x="2404" y="1033" on="0"/>
      </contour>
      <contour>
        <pt x="2181" y="576" on="1"/>
        <pt x="2181" y="202" on="0"/>
        <pt x="1649" y="-330" on="0"/>
        <pt x="1274" y="-330" on="1"/>
        <pt x="900" y="-330" on="0"/>
        <pt x="367" y="202" on="0"/>
        <pt x="367" y="576" on="1"/>
        <pt x="367" y="939" on="0"/>
        <pt x="623" y="1202" on="1"/>
        <pt x="838" y="1423" on="0"/>
        <pt x="1086" y="1461" on="1"/>
        <pt x="1139" y="1469" on="0"/>
        <pt x="1182" y="1505" on="1"/>
        <pt x="1232" y="1547" on="0"/>
        <pt x="1232" y="1602" on="1"/>
        <pt x="1232" y="1662" on="0"/>
        <pt x="1146" y="1748" on="0"/>
        <pt x="1086" y="1748" on="1"/>
        <pt x="1027" y="1748" on="0"/>
        <pt x="938" y="1662" on="0"/>
        <pt x="938" y="1602" on="1"/>
        <pt x="938" y="1534" on="0"/>
        <pt x="994" y="1488" on="1"/>
        <pt x="882" y="1475" on="0"/>
        <pt x="745" y="1418" on="1"/>
        <pt x="652" y="1380" on="0"/>
        <pt x="584" y="1315" on="1"/>
        <pt x="539" y="1321" on="1"/>
        <pt x="602" y="1394" on="0"/>
        <pt x="739" y="1457" on="1"/>
        <pt x="806" y="1487" on="0"/>
        <pt x="931" y="1512" on="1"/>
        <pt x="901" y="1556" on="0"/>
        <pt x="901" y="1614" on="1"/>
        <pt x="901" y="1688" on="0"/>
        <pt x="960" y="1738" on="1"/>
        <pt x="1015" y="1785" on="0"/>
        <pt x="1086" y="1785" on="1"/>
        <pt x="1160" y="1785" on="0"/>
        <pt x="1216" y="1736" on="1"/>
        <pt x="1274" y="1684" on="0"/>
        <pt x="1274" y="1610" on="1"/>
        <pt x="1274" y="1531" on="0"/>
        <pt x="1214" y="1479" on="1"/>
        <pt x="1236" y="1481" on="0"/>
        <pt x="1274" y="1481" on="1"/>
        <pt x="1314" y="1481" on="0"/>
        <pt x="1335" y="1479" on="1"/>
        <pt x="1274" y="1531" on="0"/>
        <pt x="1274" y="1610" on="1"/>
        <pt x="1274" y="1684" on="0"/>
        <pt x="1332" y="1736" on="1"/>
        <pt x="1387" y="1785" on="0"/>
        <pt x="1462" y="1785" on="1"/>
        <pt x="1534" y="1785" on="0"/>
        <pt x="1589" y="1738" on="1"/>
        <pt x="1649" y="1689" on="0"/>
        <pt x="1649" y="1614" on="1"/>
        <pt x="1649" y="1556" on="0"/>
        <pt x="1619" y="1512" on="1"/>
        <pt x="1740" y="1488" on="0"/>
        <pt x="1808" y="1457" on="1"/>
        <pt x="1944" y="1396" on="0"/>
        <pt x="2010" y="1321" on="1"/>
        <pt x="1966" y="1315" on="1"/>
        <pt x="1892" y="1382" on="0"/>
        <pt x="1803" y="1418" on="1"/>
        <pt x="1663" y="1476" on="0"/>
        <pt x="1554" y="1488" on="1"/>
        <pt x="1608" y="1532" on="0"/>
        <pt x="1608" y="1602" on="1"/>
        <pt x="1608" y="1662" on="0"/>
        <pt x="1522" y="1748" on="0"/>
        <pt x="1462" y="1748" on="1"/>
        <pt x="1403" y="1748" on="0"/>
        <pt x="1317" y="1662" on="0"/>
        <pt x="1317" y="1602" on="1"/>
        <pt x="1317" y="1547" on="0"/>
        <pt x="1367" y="1505" on="1"/>
        <pt x="1409" y="1469" on="0"/>
        <pt x="1462" y="1461" on="1"/>
        <pt x="1712" y="1423" on="0"/>
        <pt x="1926" y="1202" on="1"/>
        <pt x="2181" y="940" on="0"/>
      </contour>
      <contour>
        <pt x="580" y="1153" on="1"/>
        <pt x="524" y="1105" on="0"/>
        <pt x="525" y="1110" on="1"/>
        <pt x="546" y="1161" on="0"/>
        <pt x="546" y="1249" on="1"/>
        <pt x="546" y="1431" on="0"/>
        <pt x="463" y="1449" on="1"/>
        <pt x="456" y="1333" on="0"/>
        <pt x="378" y="1226" on="1"/>
        <pt x="362" y="1203" on="0"/>
        <pt x="217" y="1081" on="0"/>
        <pt x="198" y="1055" on="1"/>
        <pt x="185" y="1029" on="0"/>
        <pt x="185" y="1018" on="1"/>
        <pt x="146" y="1042" on="1"/>
        <pt x="146" y="1053" on="0"/>
        <pt x="154" y="1063" on="1"/>
        <pt x="167" y="1094" on="0"/>
        <pt x="240" y="1158" on="1"/>
        <pt x="324" y="1230" on="0"/>
        <pt x="341" y="1254" on="1"/>
        <pt x="426" y="1368" on="0"/>
        <pt x="432" y="1523" on="1"/>
        <pt x="503" y="1502" on="0"/>
        <pt x="589" y="1350" on="0"/>
        <pt x="589" y="1247" on="1"/>
        <pt x="589" y="1200" on="0"/>
      </contour>
      <contour>
        <pt x="2546" y="1105" on="1"/>
        <pt x="2478" y="1004" on="0"/>
        <pt x="2485" y="819" on="1"/>
        <pt x="2487" y="784" on="0"/>
        <pt x="2532" y="637" on="0"/>
        <pt x="2533" y="605" on="1"/>
        <pt x="2535" y="569" on="0"/>
        <pt x="2472" y="496" on="0"/>
        <pt x="2439" y="496" on="1"/>
        <pt x="2391" y="496" on="0"/>
        <pt x="2369" y="520" on="1"/>
        <pt x="2369" y="67" on="0"/>
        <pt x="1729" y="-574" on="0"/>
        <pt x="1274" y="-574" on="1"/>
        <pt x="820" y="-574" on="0"/>
        <pt x="179" y="67" on="0"/>
        <pt x="179" y="520" on="1"/>
        <pt x="158" y="496" on="0"/>
        <pt x="111" y="496" on="1"/>
        <pt x="78" y="496" on="0"/>
        <pt x="13" y="569" on="0"/>
        <pt x="15" y="605" on="1"/>
        <pt x="17" y="637" on="0"/>
        <pt x="62" y="785" on="0"/>
        <pt x="63" y="819" on="1"/>
        <pt x="71" y="1004" on="0"/>
        <pt x="2" y="1105" on="1"/>
        <pt x="202" y="1092" on="0"/>
        <pt x="263" y="945" on="1"/>
        <pt x="258" y="822" on="1"/>
        <pt x="253" y="895" on="0"/>
        <pt x="209" y="962" on="1"/>
        <pt x="154" y="1046" on="0"/>
        <pt x="67" y="1049" on="1"/>
        <pt x="105" y="992" on="0"/>
        <pt x="105" y="819" on="1"/>
        <pt x="105" y="787" on="0"/>
        <pt x="85" y="718" on="1"/>
        <pt x="63" y="646" on="0"/>
        <pt x="61" y="618" on="1"/>
        <pt x="58" y="542" on="0"/>
        <pt x="131" y="542" on="1"/>
        <pt x="170" y="542" on="0"/>
        <pt x="204" y="594" on="1"/>
        <pt x="214" y="609" on="0"/>
        <pt x="226" y="623" on="1"/>
        <pt x="220" y="561" on="0"/>
        <pt x="220" y="520" on="1"/>
        <pt x="220" y="91" on="0"/>
        <pt x="842" y="-521" on="0"/>
        <pt x="1274" y="-521" on="1"/>
        <pt x="1707" y="-521" on="0"/>
        <pt x="2330" y="91" on="0"/>
        <pt x="2330" y="520" on="1"/>
        <pt x="2330" y="561" on="0"/>
        <pt x="2324" y="623" on="1"/>
        <pt x="2336" y="609" on="0"/>
        <pt x="2347" y="595" on="1"/>
        <pt x="2380" y="542" on="0"/>
        <pt x="2417" y="542" on="1"/>
        <pt x="2493" y="542" on="0"/>
        <pt x="2489" y="618" on="1"/>
        <pt x="2487" y="646" on="0"/>
        <pt x="2465" y="718" on="1"/>
        <pt x="2442" y="787" on="0"/>
        <pt x="2442" y="819" on="1"/>
        <pt x="2442" y="990" on="0"/>
        <pt x="2483" y="1049" on="1"/>
        <pt x="2397" y="1046" on="0"/>
        <pt x="2340" y="962" on="1"/>
        <pt x="2295" y="895" on="0"/>
        <pt x="2290" y="822" on="1"/>
        <pt x="2288" y="945" on="1"/>
        <pt x="2348" y="1092" on="0"/>
      </contour>
      <contour>
        <pt x="2135" y="576" on="1"/>
        <pt x="2135" y="930" on="0"/>
        <pt x="1895" y="1173" on="1"/>
        <pt x="1708" y="1362" on="0"/>
        <pt x="1466" y="1418" on="1"/>
        <pt x="1386" y="1437" on="0"/>
        <pt x="1274" y="1437" on="1"/>
        <pt x="1164" y="1437" on="0"/>
        <pt x="1084" y="1418" on="1"/>
        <pt x="841" y="1362" on="0"/>
        <pt x="654" y="1173" on="1"/>
        <pt x="415" y="931" on="0"/>
        <pt x="415" y="576" on="1"/>
        <pt x="415" y="218" on="0"/>
        <pt x="916" y="-285" on="0"/>
        <pt x="1274" y="-285" on="1"/>
        <pt x="1633" y="-285" on="0"/>
        <pt x="2135" y="218" on="0"/>
      </contour>
      <contour>
        <pt x="1440" y="303" on="1"/>
        <pt x="1440" y="243" on="0"/>
        <pt x="1405" y="227" on="1"/>
        <pt x="1370" y="227" on="1"/>
        <pt x="1337" y="319" on="0"/>
        <pt x="1273" y="474" on="1"/>
        <pt x="1260" y="499" on="0"/>
        <pt x="1192" y="618" on="1"/>
        <pt x="1143" y="703" on="0"/>
        <pt x="1143" y="718" on="1"/>
        <pt x="1143" y="763" on="0"/>
        <pt x="1177" y="819" on="1"/>
        <pt x="1212" y="819" on="1"/>
        <pt x="1271" y="760" on="0"/>
        <pt x="1313" y="684" on="1"/>
        <pt x="1329" y="655" on="0"/>
        <pt x="1380" y="514" on="1"/>
        <pt x="1440" y="350" on="0"/>
      </contour>
    </TTGlyph>
    <TTGlyph name="uniFB54" xMin="261" yMin="-629" xMax="1725" yMax="1355">
      <contour>
        <pt x="1540" y="1295" on="1"/>
        <pt x="1538" y="1294" on="0"/>
        <pt x="1107" y="1049" on="1"/>
        <pt x="1061" y="1049" on="1"/>
        <pt x="1049" y="1050" on="0"/>
        <pt x="1049" y="1074" on="1"/>
        <pt x="1049" y="1115" on="0"/>
        <pt x="1206" y="1200" on="1"/>
        <pt x="1490" y="1353" on="0"/>
        <pt x="1494" y="1355" on="1"/>
        <pt x="1540" y="1344" on="1"/>
      </contour>
      <contour>
        <pt x="712" y="567" on="1"/>
        <pt x="712" y="536" on="0"/>
        <pt x="678" y="509" on="1"/>
        <pt x="650" y="485" on="0"/>
        <pt x="635" y="485" on="1"/>
        <pt x="605" y="485" on="0"/>
        <pt x="580" y="509" on="1"/>
        <pt x="558" y="530" on="0"/>
        <pt x="558" y="551" on="1"/>
        <pt x="558" y="577" on="0"/>
        <pt x="580" y="606" on="1"/>
        <pt x="603" y="639" on="0"/>
        <pt x="630" y="639" on="1"/>
        <pt x="662" y="639" on="0"/>
        <pt x="689" y="608" on="1"/>
        <pt x="712" y="582" on="0"/>
      </contour>
      <contour>
        <pt x="1725" y="306" on="1"/>
        <pt x="1725" y="269" on="0"/>
        <pt x="1672" y="223" on="1"/>
        <pt x="1541" y="109" on="0"/>
        <pt x="1270" y="58" on="1"/>
        <pt x="1260" y="56" on="0"/>
        <pt x="1171" y="57" on="1"/>
        <pt x="1109" y="58" on="0"/>
        <pt x="1079" y="32" on="1"/>
        <pt x="1065" y="20" on="0"/>
        <pt x="1029" y="-74" on="1"/>
        <pt x="992" y="-177" on="0"/>
        <pt x="952" y="-226" on="1"/>
        <pt x="942" y="-240" on="0"/>
        <pt x="811" y="-306" on="1"/>
        <pt x="736" y="-344" on="0"/>
        <pt x="694" y="-351" on="1"/>
        <pt x="677" y="-354" on="0"/>
        <pt x="594" y="-354" on="1"/>
        <pt x="482" y="-354" on="0"/>
        <pt x="390" y="-308" on="1"/>
        <pt x="261" y="-244" on="0"/>
        <pt x="261" y="-113" on="1"/>
        <pt x="261" y="-74" on="0"/>
        <pt x="307" y="23" on="1"/>
        <pt x="355" y="126" on="0"/>
        <pt x="388" y="136" on="1"/>
        <pt x="424" y="136" on="1"/>
        <pt x="424" y="100" on="1"/>
        <pt x="425" y="87" on="0"/>
        <pt x="363" y="-24" on="0"/>
        <pt x="363" y="-36" on="1"/>
        <pt x="363" y="-131" on="0"/>
        <pt x="470" y="-182" on="1"/>
        <pt x="548" y="-221" on="0"/>
        <pt x="630" y="-221" on="1"/>
        <pt x="707" y="-221" on="0"/>
        <pt x="820" y="-180" on="1"/>
        <pt x="967" y="-126" on="0"/>
        <pt x="967" y="-47" on="1"/>
        <pt x="967" y="-33" on="0"/>
        <pt x="943" y="70" on="1"/>
        <pt x="938" y="91" on="0"/>
        <pt x="900" y="145" on="1"/>
        <pt x="865" y="197" on="0"/>
        <pt x="865" y="209" on="1"/>
        <pt x="865" y="238" on="0"/>
        <pt x="904" y="301" on="0"/>
        <pt x="926" y="301" on="1"/>
        <pt x="944" y="301" on="0"/>
        <pt x="1038" y="198" on="0"/>
        <pt x="1080" y="198" on="1"/>
        <pt x="1116" y="198" on="0"/>
        <pt x="1138" y="225" on="1"/>
        <pt x="1136" y="239" on="0"/>
        <pt x="1136" y="255" on="1"/>
        <pt x="1136" y="367" on="0"/>
        <pt x="1209" y="478" on="1"/>
        <pt x="1288" y="598" on="0"/>
        <pt x="1387" y="598" on="1"/>
        <pt x="1427" y="598" on="0"/>
        <pt x="1491" y="556" on="1"/>
        <pt x="1552" y="516" on="0"/>
        <pt x="1591" y="468" on="1"/>
        <pt x="1558" y="463" on="0"/>
        <pt x="1502" y="468" on="1"/>
        <pt x="1435" y="475" on="0"/>
        <pt x="1438" y="475" on="1"/>
        <pt x="1386" y="475" on="0"/>
        <pt x="1322" y="446" on="1"/>
        <pt x="1244" y="411" on="0"/>
        <pt x="1244" y="362" on="1"/>
        <pt x="1244" y="314" on="0"/>
        <pt x="1313" y="267" on="1"/>
        <pt x="1370" y="229" on="0"/>
        <pt x="1397" y="229" on="1"/>
        <pt x="1446" y="229" on="0"/>
        <pt x="1555" y="273" on="1"/>
        <pt x="1650" y="311" on="0"/>
        <pt x="1677" y="331" on="1"/>
        <pt x="1713" y="331" on="1"/>
        <pt x="1725" y="330" on="0"/>
      </contour>
      <contour>
        <pt x="1059" y="-432" on="1"/>
        <pt x="1059" y="-462" on="0"/>
        <pt x="909" y="-523" on="1"/>
        <pt x="707" y="-606" on="0"/>
        <pt x="667" y="-629" on="1"/>
        <pt x="620" y="-629" on="1"/>
        <pt x="620" y="-582" on="1"/>
        <pt x="664" y="-534" on="0"/>
        <pt x="770" y="-493" on="1"/>
        <pt x="849" y="-463" on="0"/>
        <pt x="929" y="-434" on="1"/>
        <pt x="932" y="-433" on="0"/>
        <pt x="966" y="-412" on="1"/>
        <pt x="991" y="-395" on="0"/>
        <pt x="1005" y="-396" on="1"/>
        <pt x="1059" y="-396" on="1"/>
      </contour>
    </TTGlyph>
    <TTGlyph name="uniFB55" xMin="241" yMin="-620" xMax="2391" yMax="1497">
      <contour>
        <pt x="2391" y="1350" on="1"/>
        <pt x="2391" y="1259" on="0"/>
        <pt x="2310" y="1192" on="1"/>
        <pt x="2235" y="1130" on="0"/>
        <pt x="2151" y="1130" on="1"/>
        <pt x="2137" y="1130" on="0"/>
        <pt x="2122" y="1140" on="0"/>
        <pt x="2110" y="1140" on="1"/>
        <pt x="2097" y="1140" on="0"/>
        <pt x="2036" y="1110" on="1"/>
        <pt x="2023" y="1112" on="0"/>
        <pt x="2023" y="1135" on="1"/>
        <pt x="2023" y="1175" on="0"/>
        <pt x="2085" y="1238" on="1"/>
        <pt x="2092" y="1244" on="0"/>
        <pt x="2155" y="1262" on="0"/>
        <pt x="2167" y="1275" on="1"/>
        <pt x="2204" y="1320" on="0"/>
        <pt x="2278" y="1407" on="0"/>
        <pt x="2335" y="1407" on="1"/>
        <pt x="2383" y="1407" on="0"/>
        <pt x="2389" y="1379" on="1"/>
        <pt x="2391" y="1369" on="0"/>
      </contour>
      <contour>
        <pt x="2258" y="286" on="1"/>
        <pt x="2258" y="227" on="0"/>
        <pt x="2214" y="77" on="1"/>
        <pt x="2178" y="77" on="1"/>
        <pt x="2083" y="915" on="1"/>
        <pt x="2083" y="955" on="0"/>
        <pt x="2139" y="1052" on="0"/>
        <pt x="2164" y="1058" on="1"/>
      </contour>
      <contour>
        <pt x="1612" y="1497" on="1"/>
        <pt x="1597" y="1452" on="0"/>
        <pt x="1587" y="1431" on="1"/>
        <pt x="1399" y="1316" on="0"/>
        <pt x="1156" y="1212" on="1"/>
        <pt x="1142" y="1226" on="0"/>
        <pt x="1142" y="1243" on="1"/>
        <pt x="1142" y="1281" on="0"/>
        <pt x="1332" y="1382" on="1"/>
        <pt x="1449" y="1440" on="0"/>
        <pt x="1566" y="1497" on="1"/>
      </contour>
      <contour>
        <pt x="1520" y="1063" on="1"/>
        <pt x="1521" y="1007" on="0"/>
        <pt x="1417" y="952" on="1"/>
        <pt x="1328" y="905" on="0"/>
        <pt x="1280" y="905" on="1"/>
        <pt x="1213" y="905" on="0"/>
        <pt x="1213" y="987" on="1"/>
        <pt x="1213" y="1018" on="0"/>
        <pt x="1229" y="1046" on="1"/>
        <pt x="1247" y="1079" on="0"/>
        <pt x="1275" y="1079" on="1"/>
        <pt x="1286" y="1079" on="0"/>
        <pt x="1303" y="1058" on="0"/>
        <pt x="1316" y="1058" on="1"/>
        <pt x="1331" y="1058" on="0"/>
        <pt x="1370" y="1099" on="0"/>
        <pt x="1382" y="1099" on="1"/>
        <pt x="1394" y="1099" on="0"/>
        <pt x="1426" y="1068" on="1"/>
        <pt x="1453" y="1068" on="1"/>
        <pt x="1462" y="1094" on="0"/>
        <pt x="1482" y="1140" on="1"/>
        <pt x="1520" y="1140" on="1"/>
      </contour>
      <contour>
        <pt x="1059" y="1425" on="1"/>
        <pt x="1054" y="1407" on="0"/>
        <pt x="1034" y="1357" on="1"/>
        <pt x="916" y="1295" on="0"/>
        <pt x="674" y="1161" on="1"/>
        <pt x="660" y="1162" on="0"/>
        <pt x="660" y="1186" on="1"/>
        <pt x="660" y="1244" on="0"/>
        <pt x="1013" y="1425" on="1"/>
      </contour>
      <contour>
        <pt x="1500" y="573" on="1"/>
        <pt x="1442" y="496" on="0"/>
        <pt x="1413" y="496" on="1"/>
        <pt x="1336" y="496" on="0"/>
        <pt x="1336" y="557" on="1"/>
        <pt x="1336" y="575" on="0"/>
        <pt x="1360" y="605" on="1"/>
        <pt x="1385" y="639" on="0"/>
        <pt x="1408" y="639" on="1"/>
        <pt x="1435" y="639" on="0"/>
        <pt x="1466" y="609" on="1"/>
        <pt x="1483" y="591" on="0"/>
      </contour>
      <contour>
        <pt x="1869" y="260" on="1"/>
        <pt x="1869" y="161" on="0"/>
        <pt x="1807" y="79" on="1"/>
        <pt x="1745" y="-6" on="0"/>
        <pt x="1664" y="-6" on="1"/>
        <pt x="1652" y="-6" on="0"/>
        <pt x="1485" y="45" on="0"/>
        <pt x="1475" y="45" on="1"/>
        <pt x="1462" y="45" on="0"/>
        <pt x="1408" y="20" on="1"/>
        <pt x="1344" y="-8" on="0"/>
        <pt x="1322" y="-13" on="1"/>
        <pt x="1235" y="-36" on="0"/>
        <pt x="1122" y="-36" on="1"/>
        <pt x="1028" y="-36" on="0"/>
        <pt x="901" y="45" on="0"/>
        <pt x="886" y="45" on="1"/>
        <pt x="869" y="45" on="0"/>
        <pt x="656" y="-57" on="0"/>
        <pt x="579" y="-57" on="1"/>
        <pt x="513" y="-57" on="0"/>
        <pt x="444" y="-23" on="1"/>
        <pt x="351" y="21" on="0"/>
        <pt x="346" y="101" on="1"/>
        <pt x="334" y="330" on="0"/>
        <pt x="298" y="827" on="1"/>
        <pt x="296" y="859" on="0"/>
        <pt x="278" y="945" on="1"/>
        <pt x="261" y="1026" on="0"/>
        <pt x="261" y="1038" on="1"/>
        <pt x="261" y="1085" on="0"/>
        <pt x="317" y="1140" on="1"/>
        <pt x="369" y="1112" on="0"/>
        <pt x="381" y="1017" on="1"/>
        <pt x="386" y="938" on="0"/>
        <pt x="391" y="859" on="1"/>
        <pt x="406" y="735" on="0"/>
        <pt x="421" y="347" on="1"/>
        <pt x="425" y="270" on="0"/>
        <pt x="425" y="258" on="1"/>
        <pt x="431" y="201" on="0"/>
        <pt x="447" y="165" on="1"/>
        <pt x="474" y="106" on="0"/>
        <pt x="646" y="106" on="1"/>
        <pt x="752" y="106" on="0"/>
        <pt x="787" y="119" on="1"/>
        <pt x="816" y="129" on="0"/>
        <pt x="878" y="184" on="1"/>
        <pt x="918" y="198" on="0"/>
        <pt x="922" y="198" on="1"/>
        <pt x="930" y="198" on="0"/>
        <pt x="975" y="169" on="1"/>
        <pt x="1025" y="136" on="0"/>
        <pt x="1046" y="129" on="1"/>
        <pt x="1117" y="106" on="0"/>
        <pt x="1204" y="106" on="1"/>
        <pt x="1296" y="106" on="0"/>
        <pt x="1412" y="139" on="1"/>
        <pt x="1458" y="152" on="0"/>
        <pt x="1503" y="237" on="1"/>
        <pt x="1513" y="250" on="0"/>
        <pt x="1534" y="269" on="1"/>
        <pt x="1571" y="269" on="1"/>
        <pt x="1568" y="252" on="0"/>
        <pt x="1568" y="238" on="1"/>
        <pt x="1568" y="137" on="0"/>
        <pt x="1695" y="137" on="1"/>
        <pt x="1750" y="137" on="0"/>
        <pt x="1766" y="154" on="1"/>
        <pt x="1777" y="166" on="0"/>
        <pt x="1777" y="209" on="1"/>
        <pt x="1777" y="218" on="0"/>
        <pt x="1757" y="334" on="1"/>
        <pt x="1734" y="464" on="0"/>
        <pt x="1728" y="520" on="1"/>
        <pt x="1723" y="608" on="0"/>
        <pt x="1711" y="787" on="1"/>
        <pt x="1711" y="799" on="0"/>
        <pt x="1675" y="886" on="0"/>
        <pt x="1675" y="899" on="1"/>
        <pt x="1675" y="931" on="0"/>
        <pt x="1748" y="1078" on="1"/>
        <pt x="1786" y="1078" on="1"/>
        <pt x="1783" y="999" on="0"/>
        <pt x="1797" y="967" on="0"/>
        <pt x="1830" y="936" on="1"/>
        <pt x="1859" y="908" on="0"/>
        <pt x="1859" y="895" on="1"/>
        <pt x="1859" y="882" on="0"/>
        <pt x="1838" y="839" on="1"/>
        <pt x="1814" y="790" on="0"/>
        <pt x="1810" y="776" on="1"/>
        <pt x="1807" y="767" on="0"/>
        <pt x="1807" y="700" on="1"/>
        <pt x="1807" y="687" on="0"/>
        <pt x="1869" y="273" on="0"/>
      </contour>
      <contour>
        <pt x="917" y="-236" on="1"/>
        <pt x="917" y="-266" on="0"/>
        <pt x="874" y="-297" on="1"/>
        <pt x="838" y="-323" on="0"/>
        <pt x="824" y="-323" on="1"/>
        <pt x="753" y="-323" on="0"/>
        <pt x="753" y="-257" on="1"/>
        <pt x="753" y="-226" on="0"/>
        <pt x="794" y="-170" on="0"/>
        <pt x="819" y="-170" on="1"/>
        <pt x="853" y="-170" on="0"/>
        <pt x="887" y="-197" on="1"/>
        <pt x="917" y="-221" on="0"/>
      </contour>
      <contour>
        <pt x="599" y="-317" on="1"/>
        <pt x="584" y="-361" on="0"/>
        <pt x="488" y="-389" on="1"/>
        <pt x="397" y="-412" on="0"/>
        <pt x="307" y="-436" on="1"/>
        <pt x="293" y="-423" on="0"/>
        <pt x="283" y="-423" on="1"/>
        <pt x="289" y="-405" on="0"/>
        <pt x="281" y="-361" on="1"/>
        <pt x="271" y="-308" on="0"/>
        <pt x="271" y="-303" on="1"/>
        <pt x="271" y="-253" on="0"/>
        <pt x="366" y="-149" on="0"/>
        <pt x="420" y="-149" on="1"/>
        <pt x="493" y="-149" on="0"/>
        <pt x="507" y="-206" on="1"/>
        <pt x="483" y="-252" on="0"/>
        <pt x="446" y="-252" on="1"/>
        <pt x="434" y="-252" on="0"/>
        <pt x="397" y="-241" on="0"/>
        <pt x="381" y="-241" on="1"/>
        <pt x="364" y="-257" on="1"/>
        <pt x="403" y="-299" on="0"/>
        <pt x="458" y="-299" on="1"/>
        <pt x="474" y="-299" on="0"/>
        <pt x="535" y="-291" on="0"/>
        <pt x="551" y="-291" on="1"/>
        <pt x="564" y="-291" on="0"/>
        <pt x="576" y="-293" on="1"/>
      </contour>
      <contour>
        <pt x="669" y="-447" on="1"/>
        <pt x="669" y="-513" on="0"/>
        <pt x="637" y="-525" on="1"/>
        <pt x="561" y="-553" on="0"/>
        <pt x="431" y="-588" on="1"/>
        <pt x="309" y="-620" on="0"/>
        <pt x="287" y="-620" on="1"/>
        <pt x="255" y="-620" on="0"/>
        <pt x="241" y="-606" on="1"/>
        <pt x="257" y="-558" on="0"/>
        <pt x="345" y="-524" on="1"/>
        <pt x="355" y="-521" on="0"/>
        <pt x="480" y="-484" on="1"/>
        <pt x="612" y="-447" on="0"/>
        <pt x="606" y="-447" on="1"/>
      </contour>
    </TTGlyph>
    <TTGlyph name="uniFB56" xMin="-62" yMin="-593" xMax="3502" yMax="1515">
      <contour>
        <pt x="3502" y="1366" on="1"/>
        <pt x="3502" y="1295" on="0"/>
        <pt x="3408" y="1231" on="1"/>
        <pt x="3329" y="1177" on="0"/>
        <pt x="3286" y="1177" on="1"/>
        <pt x="3275" y="1177" on="0"/>
        <pt x="3212" y="1188" on="0"/>
        <pt x="3199" y="1188" on="1"/>
        <pt x="3156" y="1188" on="0"/>
        <pt x="3095" y="1147" on="1"/>
        <pt x="3091" y="1172" on="0"/>
        <pt x="3160" y="1267" on="0"/>
        <pt x="3197" y="1285" on="1"/>
        <pt x="3220" y="1288" on="0"/>
        <pt x="3257" y="1302" on="1"/>
        <pt x="3280" y="1317" on="0"/>
        <pt x="3339" y="1390" on="1"/>
        <pt x="3375" y="1434" on="0"/>
        <pt x="3429" y="1434" on="1"/>
        <pt x="3502" y="1434" on="0"/>
      </contour>
      <contour>
        <pt x="3061" y="1423" on="1"/>
        <pt x="3061" y="1381" on="0"/>
        <pt x="2950" y="1324" on="1"/>
        <pt x="2891" y="1297" on="0"/>
        <pt x="2832" y="1270" on="1"/>
        <pt x="2795" y="1270" on="0"/>
        <pt x="2754" y="1282" on="0"/>
        <pt x="2754" y="1282" on="1"/>
        <pt x="2790" y="1314" on="0"/>
        <pt x="2867" y="1387" on="1"/>
        <pt x="2854" y="1402" on="0"/>
        <pt x="2821" y="1402" on="1"/>
        <pt x="2781" y="1402" on="0"/>
        <pt x="2735" y="1393" on="1"/>
        <pt x="2735" y="1427" on="1"/>
        <pt x="2734" y="1460" on="0"/>
        <pt x="2798" y="1490" on="1"/>
        <pt x="2850" y="1515" on="0"/>
        <pt x="2877" y="1515" on="1"/>
        <pt x="2920" y="1515" on="0"/>
        <pt x="2987" y="1486" on="1"/>
        <pt x="3061" y="1453" on="0"/>
      </contour>
      <contour>
        <pt x="3368" y="194" on="1"/>
        <pt x="3368" y="134" on="0"/>
        <pt x="3325" y="73" on="1"/>
        <pt x="3288" y="73" on="1"/>
        <pt x="3204" y="942" on="1"/>
        <pt x="3204" y="987" on="0"/>
        <pt x="3248" y="1074" on="1"/>
        <pt x="3289" y="1074" on="0"/>
        <pt x="3293" y="1040" on="1"/>
        <pt x="3301" y="917" on="0"/>
        <pt x="3317" y="671" on="1"/>
        <pt x="3323" y="582" on="0"/>
        <pt x="3347" y="384" on="1"/>
        <pt x="3368" y="202" on="0"/>
      </contour>
      <contour>
        <pt x="2528" y="1409" on="1"/>
        <pt x="2520" y="1368" on="0"/>
        <pt x="2386" y="1294" on="1"/>
        <pt x="2137" y="1154" on="0"/>
        <pt x="2126" y="1147" on="1"/>
        <pt x="2091" y="1147" on="1"/>
        <pt x="2079" y="1149" on="0"/>
        <pt x="2079" y="1172" on="1"/>
        <pt x="2079" y="1256" on="0"/>
        <pt x="2505" y="1433" on="1"/>
      </contour>
      <contour>
        <pt x="1945" y="747" on="1"/>
        <pt x="1945" y="721" on="0"/>
        <pt x="1895" y="655" on="0"/>
        <pt x="1868" y="655" on="1"/>
        <pt x="1847" y="655" on="0"/>
        <pt x="1816" y="677" on="1"/>
        <pt x="1781" y="701" on="0"/>
        <pt x="1781" y="722" on="1"/>
        <pt x="1781" y="739" on="0"/>
        <pt x="1805" y="775" on="1"/>
        <pt x="1833" y="819" on="0"/>
        <pt x="1863" y="819" on="1"/>
        <pt x="1893" y="819" on="0"/>
        <pt x="1921" y="788" on="1"/>
        <pt x="1945" y="762" on="0"/>
      </contour>
      <contour>
        <pt x="2969" y="251" on="1"/>
        <pt x="2969" y="185" on="0"/>
        <pt x="2962" y="161" on="1"/>
        <pt x="2953" y="123" on="0"/>
        <pt x="2913" y="64" on="1"/>
        <pt x="2870" y="0" on="0"/>
        <pt x="2703" y="0" on="1"/>
        <pt x="2588" y="0" on="0"/>
        <pt x="2562" y="13" on="1"/>
        <pt x="2559" y="15" on="0"/>
        <pt x="2491" y="56" on="1"/>
        <pt x="2447" y="82" on="0"/>
        <pt x="2432" y="82" on="1"/>
        <pt x="2392" y="82" on="0"/>
        <pt x="2079" y="-20" on="0"/>
        <pt x="2000" y="-20" on="1"/>
        <pt x="1368" y="-20" on="1"/>
        <pt x="1380" y="-20" on="0"/>
        <pt x="1284" y="-4" on="1"/>
        <pt x="1247" y="1" on="0"/>
        <pt x="1181" y="13" on="1"/>
        <pt x="1166" y="16" on="0"/>
        <pt x="1107" y="51" on="1"/>
        <pt x="1053" y="82" on="0"/>
        <pt x="1039" y="82" on="1"/>
        <pt x="1028" y="82" on="0"/>
        <pt x="998" y="52" on="1"/>
        <pt x="966" y="20" on="0"/>
        <pt x="949" y="13" on="1"/>
        <pt x="914" y="0" on="0"/>
        <pt x="842" y="-4" on="1"/>
        <pt x="752" y="-10" on="0"/>
        <pt x="712" y="-18" on="0"/>
        <pt x="667" y="-35" on="1"/>
        <pt x="627" y="-51" on="0"/>
        <pt x="614" y="-51" on="1"/>
        <pt x="602" y="-51" on="0"/>
        <pt x="467" y="-20" on="0"/>
        <pt x="456" y="-20" on="1"/>
        <pt x="434" y="-20" on="0"/>
        <pt x="375" y="-73" on="1"/>
        <pt x="299" y="-140" on="0"/>
        <pt x="263" y="-160" on="1"/>
        <pt x="222" y="-184" on="0"/>
        <pt x="150" y="-199" on="1"/>
        <pt x="88" y="-212" on="0"/>
        <pt x="26" y="-225" on="1"/>
        <pt x="-11" y="-225" on="0"/>
        <pt x="-62" y="-212" on="0"/>
        <pt x="-60" y="-212" on="1"/>
        <pt x="-48" y="-186" on="0"/>
        <pt x="55" y="-145" on="1"/>
        <pt x="185" y="-94" on="0"/>
        <pt x="227" y="-66" on="1"/>
        <pt x="262" y="-46" on="0"/>
        <pt x="297" y="-27" on="1"/>
        <pt x="343" y="1" on="0"/>
        <pt x="355" y="28" on="1"/>
        <pt x="363" y="46" on="0"/>
        <pt x="355" y="92" on="1"/>
        <pt x="346" y="147" on="0"/>
        <pt x="348" y="170" on="1"/>
        <pt x="355" y="234" on="0"/>
        <pt x="424" y="301" on="1"/>
        <pt x="471" y="348" on="0"/>
        <pt x="527" y="348" on="1"/>
        <pt x="555" y="348" on="0"/>
        <pt x="580" y="307" on="1"/>
        <pt x="603" y="265" on="0"/>
        <pt x="626" y="223" on="1"/>
        <pt x="648" y="186" on="0"/>
        <pt x="733" y="153" on="1"/>
        <pt x="812" y="123" on="0"/>
        <pt x="865" y="123" on="1"/>
        <pt x="929" y="123" on="0"/>
        <pt x="1048" y="246" on="0"/>
        <pt x="1070" y="246" on="1"/>
        <pt x="1090" y="246" on="0"/>
        <pt x="1234" y="143" on="0"/>
        <pt x="1305" y="143" on="1"/>
        <pt x="1423" y="143" on="0"/>
        <pt x="1492" y="253" on="1"/>
        <pt x="1505" y="274" on="0"/>
        <pt x="1505" y="399" on="1"/>
        <pt x="1505" y="494" on="0"/>
        <pt x="1501" y="516" on="1"/>
        <pt x="1466" y="725" on="0"/>
        <pt x="1450" y="885" on="1"/>
        <pt x="1447" y="915" on="0"/>
        <pt x="1424" y="996" on="1"/>
        <pt x="1403" y="1074" on="0"/>
        <pt x="1403" y="1085" on="1"/>
        <pt x="1403" y="1126" on="0"/>
        <pt x="1429" y="1178" on="1"/>
        <pt x="1458" y="1236" on="0"/>
        <pt x="1492" y="1238" on="1"/>
        <pt x="1500" y="1211" on="0"/>
        <pt x="1517" y="1164" on="1"/>
        <pt x="1522" y="1156" on="0"/>
        <pt x="1556" y="1122" on="1"/>
        <pt x="1587" y="1093" on="0"/>
        <pt x="1587" y="1080" on="1"/>
        <pt x="1587" y="1067" on="0"/>
        <pt x="1546" y="934" on="0"/>
        <pt x="1546" y="922" on="1"/>
        <pt x="1546" y="908" on="0"/>
        <pt x="1587" y="654" on="0"/>
        <pt x="1587" y="641" on="1"/>
        <pt x="1587" y="365" on="1"/>
        <pt x="1604" y="347" on="1"/>
        <pt x="1631" y="347" on="1"/>
        <pt x="1671" y="378" on="0"/>
        <pt x="1710" y="410" on="1"/>
        <pt x="1789" y="471" on="0"/>
        <pt x="1868" y="471" on="1"/>
        <pt x="2079" y="471" on="0"/>
        <pt x="2079" y="348" on="1"/>
        <pt x="2079" y="300" on="0"/>
        <pt x="1986" y="138" on="1"/>
        <pt x="2015" y="112" on="0"/>
        <pt x="2058" y="112" on="1"/>
        <pt x="2116" y="112" on="0"/>
        <pt x="2213" y="138" on="1"/>
        <pt x="2314" y="165" on="0"/>
        <pt x="2345" y="192" on="1"/>
        <pt x="2347" y="227" on="0"/>
        <pt x="2317" y="242" on="1"/>
        <pt x="2292" y="254" on="0"/>
        <pt x="2235" y="259" on="1"/>
        <pt x="2222" y="269" on="0"/>
        <pt x="2222" y="287" on="1"/>
        <pt x="2222" y="347" on="0"/>
        <pt x="2328" y="399" on="1"/>
        <pt x="2411" y="440" on="0"/>
        <pt x="2447" y="440" on="1"/>
        <pt x="2527" y="440" on="0"/>
        <pt x="2601" y="399" on="1"/>
        <pt x="2682" y="355" on="0"/>
        <pt x="2682" y="297" on="1"/>
        <pt x="2682" y="251" on="0"/>
        <pt x="2632" y="179" on="1"/>
        <pt x="2666" y="148" on="0"/>
        <pt x="2685" y="143" on="1"/>
        <pt x="2686" y="143" on="0"/>
        <pt x="2739" y="143" on="1"/>
        <pt x="2857" y="143" on="0"/>
        <pt x="2887" y="189" on="1"/>
        <pt x="2867" y="377" on="0"/>
        <pt x="2822" y="721" on="1"/>
        <pt x="2816" y="762" on="0"/>
        <pt x="2784" y="869" on="1"/>
        <pt x="2754" y="968" on="0"/>
        <pt x="2754" y="977" on="1"/>
        <pt x="2754" y="1009" on="0"/>
        <pt x="2789" y="1081" on="1"/>
        <pt x="2826" y="1157" on="0"/>
        <pt x="2853" y="1167" on="1"/>
        <pt x="2859" y="1133" on="0"/>
        <pt x="2879" y="1072" on="1"/>
        <pt x="2887" y="1056" on="0"/>
        <pt x="2921" y="1023" on="1"/>
        <pt x="2949" y="996" on="0"/>
        <pt x="2949" y="983" on="1"/>
        <pt x="2949" y="970" on="0"/>
        <pt x="2908" y="837" on="0"/>
        <pt x="2908" y="824" on="1"/>
      </contour>
      <contour>
        <pt x="1914" y="-287" on="1"/>
        <pt x="1893" y="-373" on="0"/>
        <pt x="1860" y="-386" on="1"/>
        <pt x="1546" y="-512" on="0"/>
        <pt x="1529" y="-511" on="1"/>
        <pt x="1475" y="-511" on="1"/>
        <pt x="1491" y="-444" on="0"/>
        <pt x="1508" y="-434" on="1"/>
        <pt x="1582" y="-391" on="0"/>
        <pt x="1714" y="-337" on="1"/>
        <pt x="1839" y="-286" on="0"/>
        <pt x="1860" y="-287" on="1"/>
      </contour>
      <contour>
        <pt x="1218" y="-291" on="1"/>
        <pt x="1218" y="-329" on="0"/>
        <pt x="1178" y="-357" on="1"/>
        <pt x="1147" y="-379" on="0"/>
        <pt x="1132" y="-379" on="1"/>
        <pt x="1120" y="-379" on="0"/>
        <pt x="1057" y="-348" on="0"/>
        <pt x="1044" y="-348" on="1"/>
        <pt x="1032" y="-348" on="0"/>
        <pt x="955" y="-409" on="0"/>
        <pt x="942" y="-409" on="1"/>
        <pt x="905" y="-409" on="0"/>
        <pt x="875" y="-376" on="1"/>
        <pt x="850" y="-347" on="0"/>
        <pt x="850" y="-327" on="1"/>
        <pt x="850" y="-297" on="0"/>
        <pt x="882" y="-270" on="1"/>
        <pt x="910" y="-245" on="0"/>
        <pt x="932" y="-245" on="1"/>
        <pt x="943" y="-245" on="0"/>
        <pt x="1001" y="-276" on="0"/>
        <pt x="1014" y="-276" on="1"/>
        <pt x="1024" y="-276" on="0"/>
        <pt x="1108" y="-204" on="0"/>
        <pt x="1121" y="-204" on="1"/>
        <pt x="1146" y="-204" on="0"/>
        <pt x="1184" y="-244" on="1"/>
        <pt x="1218" y="-280" on="0"/>
      </contour>
      <contour>
        <pt x="461" y="-363" on="1"/>
        <pt x="461" y="-421" on="0"/>
        <pt x="281" y="-500" on="1"/>
        <pt x="164" y="-547" on="0"/>
        <pt x="47" y="-593" on="1"/>
        <pt x="13" y="-593" on="1"/>
        <pt x="0" y="-592" on="0"/>
        <pt x="0" y="-568" on="1"/>
        <pt x="0" y="-512" on="0"/>
        <pt x="229" y="-427" on="1"/>
        <pt x="243" y="-422" on="0"/>
        <pt x="413" y="-338" on="1"/>
        <pt x="448" y="-338" on="1"/>
        <pt x="461" y="-339" on="0"/>
      </contour>
      <contour>
        <pt x="1945" y="272" on="1"/>
        <pt x="1912" y="293" on="0"/>
        <pt x="1879" y="315" on="1"/>
        <pt x="1855" y="328" on="0"/>
        <pt x="1817" y="328" on="1"/>
        <pt x="1784" y="328" on="0"/>
        <pt x="1692" y="287" on="1"/>
        <pt x="1576" y="235" on="0"/>
        <pt x="1576" y="179" on="1"/>
        <pt x="1576" y="155" on="0"/>
        <pt x="1590" y="154" on="1"/>
        <pt x="1713" y="154" on="1"/>
        <pt x="1743" y="153" on="0"/>
        <pt x="1922" y="243" on="0"/>
      </contour>
    </TTGlyph>
    <TTGlyph name="uniFB57" xMin="2" yMin="-574" xMax="2546" yMax="1785">
      <contour>
        <pt x="2404" y="1042" on="1"/>
        <pt x="2364" y="1018" on="1"/>
        <pt x="2364" y="1029" on="0"/>
        <pt x="2351" y="1055" on="1"/>
        <pt x="2332" y="1080" on="0"/>
        <pt x="2188" y="1203" on="0"/>
        <pt x="2172" y="1226" on="1"/>
        <pt x="2094" y="1335" on="0"/>
        <pt x="2087" y="1449" on="1"/>
        <pt x="2002" y="1431" on="0"/>
        <pt x="2002" y="1248" on="1"/>
        <pt x="2002" y="1160" on="0"/>
        <pt x="2022" y="1110" on="1"/>
        <pt x="1997" y="1131" on="0"/>
        <pt x="1971" y="1153" on="1"/>
        <pt x="1962" y="1201" on="0"/>
        <pt x="1962" y="1248" on="1"/>
        <pt x="1962" y="1351" on="0"/>
        <pt x="2046" y="1502" on="0"/>
        <pt x="2118" y="1523" on="1"/>
        <pt x="2121" y="1372" on="0"/>
        <pt x="2209" y="1254" on="1"/>
        <pt x="2226" y="1230" on="0"/>
        <pt x="2310" y="1158" on="1"/>
        <pt x="2383" y="1094" on="0"/>
        <pt x="2397" y="1063" on="1"/>
        <pt x="2404" y="1033" on="0"/>
      </contour>
      <contour>
        <pt x="2181" y="576" on="1"/>
        <pt x="2181" y="202" on="0"/>
        <pt x="1649" y="-330" on="0"/>
        <pt x="1274" y="-330" on="1"/>
        <pt x="900" y="-330" on="0"/>
        <pt x="367" y="202" on="0"/>
        <pt x="367" y="576" on="1"/>
        <pt x="367" y="939" on="0"/>
        <pt x="623" y="1202" on="1"/>
        <pt x="838" y="1423" on="0"/>
        <pt x="1086" y="1461" on="1"/>
        <pt x="1139" y="1469" on="0"/>
        <pt x="1182" y="1505" on="1"/>
        <pt x="1232" y="1547" on="0"/>
        <pt x="1232" y="1602" on="1"/>
        <pt x="1232" y="1662" on="0"/>
        <pt x="1146" y="1748" on="0"/>
        <pt x="1086" y="1748" on="1"/>
        <pt x="1027" y="1748" on="0"/>
        <pt x="938" y="1662" on="0"/>
        <pt x="938" y="1602" on="1"/>
        <pt x="938" y="1534" on="0"/>
        <pt x="994" y="1488" on="1"/>
        <pt x="882" y="1475" on="0"/>
        <pt x="745" y="1418" on="1"/>
        <pt x="652" y="1380" on="0"/>
        <pt x="584" y="1315" on="1"/>
        <pt x="539" y="1321" on="1"/>
        <pt x="602" y="1394" on="0"/>
        <pt x="739" y="1457" on="1"/>
        <pt x="806" y="1487" on="0"/>
        <pt x="931" y="1512" on="1"/>
        <pt x="901" y="1556" on="0"/>
        <pt x="901" y="1614" on="1"/>
        <pt x="901" y="1688" on="0"/>
        <pt x="960" y="1738" on="1"/>
        <pt x="1015" y="1785" on="0"/>
        <pt x="1086" y="1785" on="1"/>
        <pt x="1160" y="1785" on="0"/>
        <pt x="1216" y="1736" on="1"/>
        <pt x="1274" y="1684" on="0"/>
        <pt x="1274" y="1610" on="1"/>
        <pt x="1274" y="1531" on="0"/>
        <pt x="1214" y="1479" on="1"/>
        <pt x="1236" y="1481" on="0"/>
        <pt x="1274" y="1481" on="1"/>
        <pt x="1314" y="1481" on="0"/>
        <pt x="1335" y="1479" on="1"/>
        <pt x="1274" y="1531" on="0"/>
        <pt x="1274" y="1610" on="1"/>
        <pt x="1274" y="1684" on="0"/>
        <pt x="1332" y="1736" on="1"/>
        <pt x="1387" y="1785" on="0"/>
        <pt x="1462" y="1785" on="1"/>
        <pt x="1534" y="1785" on="0"/>
        <pt x="1589" y="1738" on="1"/>
        <pt x="1649" y="1689" on="0"/>
        <pt x="1649" y="1614" on="1"/>
        <pt x="1649" y="1556" on="0"/>
        <pt x="1619" y="1512" on="1"/>
        <pt x="1740" y="1488" on="0"/>
        <pt x="1808" y="1457" on="1"/>
        <pt x="1944" y="1396" on="0"/>
        <pt x="2010" y="1321" on="1"/>
        <pt x="1966" y="1315" on="1"/>
        <pt x="1892" y="1382" on="0"/>
        <pt x="1803" y="1418" on="1"/>
        <pt x="1663" y="1476" on="0"/>
        <pt x="1554" y="1488" on="1"/>
        <pt x="1608" y="1532" on="0"/>
        <pt x="1608" y="1602" on="1"/>
        <pt x="1608" y="1662" on="0"/>
        <pt x="1522" y="1748" on="0"/>
        <pt x="1462" y="1748" on="1"/>
        <pt x="1403" y="1748" on="0"/>
        <pt x="1317" y="1662" on="0"/>
        <pt x="1317" y="1602" on="1"/>
        <pt x="1317" y="1547" on="0"/>
        <pt x="1367" y="1505" on="1"/>
        <pt x="1409" y="1469" on="0"/>
        <pt x="1462" y="1461" on="1"/>
        <pt x="1712" y="1423" on="0"/>
        <pt x="1926" y="1202" on="1"/>
        <pt x="2181" y="940" on="0"/>
      </contour>
      <contour>
        <pt x="580" y="1153" on="1"/>
        <pt x="524" y="1105" on="0"/>
        <pt x="525" y="1110" on="1"/>
        <pt x="546" y="1161" on="0"/>
        <pt x="546" y="1249" on="1"/>
        <pt x="546" y="1431" on="0"/>
        <pt x="463" y="1449" on="1"/>
        <pt x="456" y="1333" on="0"/>
        <pt x="378" y="1226" on="1"/>
        <pt x="362" y="1203" on="0"/>
        <pt x="217" y="1081" on="0"/>
        <pt x="198" y="1055" on="1"/>
        <pt x="185" y="1029" on="0"/>
        <pt x="185" y="1018" on="1"/>
        <pt x="146" y="1042" on="1"/>
        <pt x="146" y="1053" on="0"/>
        <pt x="154" y="1063" on="1"/>
        <pt x="167" y="1094" on="0"/>
        <pt x="240" y="1158" on="1"/>
        <pt x="324" y="1230" on="0"/>
        <pt x="341" y="1254" on="1"/>
        <pt x="426" y="1368" on="0"/>
        <pt x="432" y="1523" on="1"/>
        <pt x="503" y="1502" on="0"/>
        <pt x="589" y="1350" on="0"/>
        <pt x="589" y="1247" on="1"/>
        <pt x="589" y="1200" on="0"/>
      </contour>
      <contour>
        <pt x="2546" y="1105" on="1"/>
        <pt x="2478" y="1004" on="0"/>
        <pt x="2485" y="819" on="1"/>
        <pt x="2487" y="784" on="0"/>
        <pt x="2532" y="637" on="0"/>
        <pt x="2533" y="605" on="1"/>
        <pt x="2535" y="569" on="0"/>
        <pt x="2472" y="496" on="0"/>
        <pt x="2439" y="496" on="1"/>
        <pt x="2391" y="496" on="0"/>
        <pt x="2369" y="520" on="1"/>
        <pt x="2369" y="67" on="0"/>
        <pt x="1729" y="-574" on="0"/>
        <pt x="1274" y="-574" on="1"/>
        <pt x="820" y="-574" on="0"/>
        <pt x="179" y="67" on="0"/>
        <pt x="179" y="520" on="1"/>
        <pt x="158" y="496" on="0"/>
        <pt x="111" y="496" on="1"/>
        <pt x="78" y="496" on="0"/>
        <pt x="13" y="569" on="0"/>
        <pt x="15" y="605" on="1"/>
        <pt x="17" y="637" on="0"/>
        <pt x="62" y="785" on="0"/>
        <pt x="63" y="819" on="1"/>
        <pt x="71" y="1004" on="0"/>
        <pt x="2" y="1105" on="1"/>
        <pt x="202" y="1092" on="0"/>
        <pt x="263" y="945" on="1"/>
        <pt x="258" y="822" on="1"/>
        <pt x="253" y="895" on="0"/>
        <pt x="209" y="962" on="1"/>
        <pt x="154" y="1046" on="0"/>
        <pt x="67" y="1049" on="1"/>
        <pt x="105" y="992" on="0"/>
        <pt x="105" y="819" on="1"/>
        <pt x="105" y="787" on="0"/>
        <pt x="85" y="718" on="1"/>
        <pt x="63" y="646" on="0"/>
        <pt x="61" y="618" on="1"/>
        <pt x="58" y="542" on="0"/>
        <pt x="131" y="542" on="1"/>
        <pt x="170" y="542" on="0"/>
        <pt x="204" y="594" on="1"/>
        <pt x="214" y="609" on="0"/>
        <pt x="226" y="623" on="1"/>
        <pt x="220" y="561" on="0"/>
        <pt x="220" y="520" on="1"/>
        <pt x="220" y="91" on="0"/>
        <pt x="842" y="-521" on="0"/>
        <pt x="1274" y="-521" on="1"/>
        <pt x="1707" y="-521" on="0"/>
        <pt x="2330" y="91" on="0"/>
        <pt x="2330" y="520" on="1"/>
        <pt x="2330" y="561" on="0"/>
        <pt x="2324" y="623" on="1"/>
        <pt x="2336" y="609" on="0"/>
        <pt x="2347" y="595" on="1"/>
        <pt x="2380" y="542" on="0"/>
        <pt x="2417" y="542" on="1"/>
        <pt x="2493" y="542" on="0"/>
        <pt x="2489" y="618" on="1"/>
        <pt x="2487" y="646" on="0"/>
        <pt x="2465" y="718" on="1"/>
        <pt x="2442" y="787" on="0"/>
        <pt x="2442" y="819" on="1"/>
        <pt x="2442" y="990" on="0"/>
        <pt x="2483" y="1049" on="1"/>
        <pt x="2397" y="1046" on="0"/>
        <pt x="2340" y="962" on="1"/>
        <pt x="2295" y="895" on="0"/>
        <pt x="2290" y="822" on="1"/>
        <pt x="2288" y="945" on="1"/>
        <pt x="2348" y="1092" on="0"/>
      </contour>
      <contour>
        <pt x="2135" y="576" on="1"/>
        <pt x="2135" y="930" on="0"/>
        <pt x="1895" y="1173" on="1"/>
        <pt x="1708" y="1362" on="0"/>
        <pt x="1466" y="1418" on="1"/>
        <pt x="1386" y="1437" on="0"/>
        <pt x="1274" y="1437" on="1"/>
        <pt x="1164" y="1437" on="0"/>
        <pt x="1084" y="1418" on="1"/>
        <pt x="841" y="1362" on="0"/>
        <pt x="654" y="1173" on="1"/>
        <pt x="415" y="931" on="0"/>
        <pt x="415" y="576" on="1"/>
        <pt x="415" y="218" on="0"/>
        <pt x="916" y="-285" on="0"/>
        <pt x="1274" y="-285" on="1"/>
        <pt x="1633" y="-285" on="0"/>
        <pt x="2135" y="218" on="0"/>
      </contour>
      <contour>
        <pt x="1411" y="735" on="1"/>
        <pt x="1411" y="682" on="0"/>
        <pt x="1331" y="668" on="1"/>
        <pt x="1277" y="664" on="0"/>
        <pt x="1223" y="659" on="1"/>
        <pt x="1216" y="655" on="0"/>
        <pt x="1196" y="637" on="1"/>
        <pt x="1211" y="591" on="0"/>
        <pt x="1264" y="474" on="1"/>
        <pt x="1309" y="375" on="0"/>
        <pt x="1309" y="362" on="1"/>
        <pt x="1309" y="194" on="1"/>
        <pt x="1299" y="191" on="0"/>
        <pt x="1283" y="182" on="1"/>
        <pt x="1255" y="209" on="0"/>
        <pt x="1203" y="359" on="1"/>
        <pt x="1188" y="401" on="0"/>
        <pt x="1137" y="507" on="1"/>
        <pt x="1094" y="599" on="0"/>
        <pt x="1094" y="612" on="1"/>
        <pt x="1094" y="650" on="0"/>
        <pt x="1123" y="709" on="1"/>
        <pt x="1155" y="771" on="0"/>
        <pt x="1187" y="786" on="1"/>
        <pt x="1232" y="806" on="0"/>
        <pt x="1304" y="806" on="1"/>
        <pt x="1411" y="806" on="0"/>
      </contour>
    </TTGlyph>
    <TTGlyph name="uniFB58" xMin="79" yMin="-425" xMax="2536" yMax="1846">
      <contour>
        <pt x="2536" y="1422" on="1"/>
        <pt x="2536" y="1353" on="0"/>
        <pt x="2462" y="1286" on="1"/>
        <pt x="2392" y="1222" on="0"/>
        <pt x="2331" y="1222" on="1"/>
        <pt x="2193" y="1222" on="0"/>
        <pt x="2154" y="1213" on="1"/>
        <pt x="2152" y="1266" on="0"/>
        <pt x="2198" y="1303" on="1"/>
        <pt x="2200" y="1303" on="0"/>
        <pt x="2293" y="1357" on="1"/>
        <pt x="2324" y="1375" on="0"/>
        <pt x="2387" y="1446" on="1"/>
        <pt x="2434" y="1499" on="0"/>
        <pt x="2474" y="1499" on="1"/>
        <pt x="2536" y="1499" on="0"/>
      </contour>
      <contour>
        <pt x="2014" y="1821" on="1"/>
        <pt x="2014" y="1794" on="0"/>
        <pt x="1817" y="1689" on="1"/>
        <pt x="1672" y="1612" on="0"/>
        <pt x="1580" y="1571" on="1"/>
        <pt x="1545" y="1571" on="1"/>
        <pt x="1538" y="1586" on="0"/>
        <pt x="1546" y="1619" on="1"/>
        <pt x="1599" y="1671" on="0"/>
        <pt x="1736" y="1737" on="1"/>
        <pt x="1923" y="1826" on="0"/>
        <pt x="1957" y="1846" on="1"/>
        <pt x="2002" y="1846" on="1"/>
        <pt x="2014" y="1845" on="0"/>
      </contour>
      <contour>
        <pt x="1983" y="1432" on="1"/>
        <pt x="1983" y="1362" on="0"/>
        <pt x="1889" y="1294" on="1"/>
        <pt x="1804" y="1233" on="0"/>
        <pt x="1748" y="1233" on="1"/>
        <pt x="1676" y="1233" on="0"/>
        <pt x="1676" y="1299" on="1"/>
        <pt x="1676" y="1312" on="0"/>
        <pt x="1732" y="1397" on="1"/>
        <pt x="1762" y="1366" on="0"/>
        <pt x="1778" y="1366" on="1"/>
        <pt x="1795" y="1366" on="0"/>
        <pt x="1843" y="1437" on="1"/>
        <pt x="1833" y="1437" on="0"/>
        <pt x="1914" y="1416" on="1"/>
        <pt x="1928" y="1448" on="0"/>
        <pt x="1957" y="1478" on="1"/>
        <pt x="1983" y="1465" on="0"/>
      </contour>
      <contour>
        <pt x="2403" y="215" on="1"/>
        <pt x="2402" y="227" on="0"/>
        <pt x="2388" y="72" on="1"/>
        <pt x="2401" y="57" on="1"/>
        <pt x="2343" y="57" on="1"/>
        <pt x="2229" y="950" on="1"/>
        <pt x="2228" y="985" on="0"/>
        <pt x="2252" y="1058" on="1"/>
        <pt x="2289" y="1058" on="1"/>
      </contour>
      <contour>
        <pt x="1543" y="951" on="1"/>
        <pt x="1543" y="928" on="0"/>
        <pt x="1520" y="898" on="1"/>
        <pt x="1495" y="864" on="0"/>
        <pt x="1466" y="864" on="1"/>
        <pt x="1449" y="864" on="0"/>
        <pt x="1390" y="918" on="0"/>
        <pt x="1390" y="936" on="1"/>
        <pt x="1390" y="956" on="0"/>
        <pt x="1413" y="985" on="1"/>
        <pt x="1441" y="1017" on="0"/>
        <pt x="1466" y="1017" on="1"/>
        <pt x="1494" y="1017" on="0"/>
        <pt x="1520" y="991" on="1"/>
        <pt x="1543" y="968" on="0"/>
      </contour>
      <contour>
        <pt x="2024" y="245" on="1"/>
        <pt x="2024" y="52" on="0"/>
        <pt x="1977" y="16" on="1"/>
        <pt x="1925" y="-27" on="0"/>
        <pt x="1866" y="-27" on="1"/>
        <pt x="1788" y="-27" on="0"/>
        <pt x="1652" y="137" on="0"/>
        <pt x="1635" y="137" on="1"/>
        <pt x="1622" y="137" on="0"/>
        <pt x="1591" y="106" on="1"/>
        <pt x="1553" y="66" on="0"/>
        <pt x="1540" y="58" on="1"/>
        <pt x="1492" y="26" on="0"/>
        <pt x="1392" y="0" on="1"/>
        <pt x="1297" y="-27" on="0"/>
        <pt x="1236" y="-27" on="1"/>
        <pt x="1196" y="-27" on="0"/>
        <pt x="1123" y="32" on="0"/>
        <pt x="1123" y="61" on="1"/>
        <pt x="1123" y="96" on="0"/>
        <pt x="1157" y="147" on="1"/>
        <pt x="1309" y="116" on="0"/>
        <pt x="1292" y="116" on="1"/>
        <pt x="1374" y="116" on="0"/>
        <pt x="1481" y="158" on="1"/>
        <pt x="1625" y="213" on="0"/>
        <pt x="1625" y="301" on="1"/>
        <pt x="1625" y="312" on="0"/>
        <pt x="1574" y="581" on="0"/>
        <pt x="1574" y="592" on="1"/>
        <pt x="1574" y="613" on="0"/>
        <pt x="1619" y="680" on="1"/>
        <pt x="1641" y="662" on="0"/>
        <pt x="1654" y="614" on="1"/>
        <pt x="1663" y="573" on="0"/>
        <pt x="1672" y="532" on="1"/>
        <pt x="1692" y="419" on="0"/>
        <pt x="1712" y="306" on="1"/>
        <pt x="1761" y="127" on="0"/>
        <pt x="1876" y="127" on="1"/>
        <pt x="1930" y="127" on="0"/>
        <pt x="1941" y="165" on="1"/>
        <pt x="1942" y="171" on="0"/>
        <pt x="1942" y="234" on="1"/>
        <pt x="1942" y="247" on="0"/>
        <pt x="1934" y="294" on="1"/>
        <pt x="1926" y="350" on="0"/>
        <pt x="1925" y="367" on="1"/>
        <pt x="1898" y="625" on="0"/>
        <pt x="1866" y="776" on="1"/>
        <pt x="1862" y="796" on="0"/>
        <pt x="1839" y="884" on="1"/>
        <pt x="1819" y="955" on="0"/>
        <pt x="1819" y="972" on="1"/>
        <pt x="1819" y="1077" on="0"/>
        <pt x="1886" y="1130" on="1"/>
        <pt x="1891" y="1126" on="0"/>
        <pt x="1914" y="1044" on="1"/>
        <pt x="1918" y="1028" on="0"/>
        <pt x="1946" y="1004" on="1"/>
        <pt x="1982" y="972" on="0"/>
        <pt x="1989" y="963" on="1"/>
        <pt x="1989" y="954" on="0"/>
        <pt x="1973" y="884" on="1"/>
        <pt x="1960" y="823" on="0"/>
        <pt x="1962" y="787" on="1"/>
        <pt x="1971" y="688" on="0"/>
        <pt x="1998" y="460" on="1"/>
        <pt x="2024" y="253" on="0"/>
      </contour>
      <contour>
        <pt x="1574" y="-205" on="1"/>
        <pt x="1574" y="-250" on="0"/>
        <pt x="1452" y="-308" on="1"/>
        <pt x="1368" y="-347" on="0"/>
        <pt x="1324" y="-357" on="1"/>
        <pt x="1262" y="-381" on="0"/>
        <pt x="1138" y="-425" on="1"/>
        <pt x="1123" y="-414" on="0"/>
        <pt x="1114" y="-414" on="1"/>
        <pt x="1114" y="-380" on="1"/>
        <pt x="1113" y="-353" on="0"/>
        <pt x="1277" y="-283" on="1"/>
        <pt x="1401" y="-232" on="0"/>
        <pt x="1527" y="-181" on="1"/>
        <pt x="1561" y="-181" on="1"/>
        <pt x="1574" y="-181" on="0"/>
      </contour>
      <contour>
        <pt x="1103" y="731" on="1"/>
        <pt x="1103" y="705" on="0"/>
        <pt x="1067" y="659" on="0"/>
        <pt x="1046" y="659" on="1"/>
        <pt x="1033" y="659" on="0"/>
        <pt x="951" y="700" on="0"/>
        <pt x="939" y="700" on="1"/>
        <pt x="875" y="700" on="0"/>
        <pt x="783" y="600" on="1"/>
        <pt x="693" y="504" on="0"/>
        <pt x="693" y="449" on="1"/>
        <pt x="693" y="368" on="0"/>
        <pt x="808" y="340" on="1"/>
        <pt x="892" y="324" on="0"/>
        <pt x="977" y="307" on="1"/>
        <pt x="993" y="300" on="0"/>
        <pt x="1031" y="242" on="0"/>
        <pt x="1031" y="224" on="1"/>
        <pt x="1031" y="54" on="0"/>
        <pt x="773" y="-54" on="1"/>
        <pt x="571" y="-139" on="0"/>
        <pt x="391" y="-139" on="1"/>
        <pt x="266" y="-139" on="0"/>
        <pt x="174" y="-62" on="1"/>
        <pt x="79" y="18" on="0"/>
        <pt x="79" y="137" on="1"/>
        <pt x="79" y="214" on="0"/>
        <pt x="112" y="283" on="1"/>
        <pt x="118" y="296" on="0"/>
        <pt x="194" y="422" on="1"/>
        <pt x="231" y="422" on="1"/>
        <pt x="161" y="254" on="0"/>
        <pt x="161" y="204" on="1"/>
        <pt x="161" y="91" on="0"/>
        <pt x="302" y="43" on="1"/>
        <pt x="385" y="14" on="0"/>
        <pt x="483" y="14" on="1"/>
        <pt x="707" y="14" on="0"/>
        <pt x="888" y="144" on="1"/>
        <pt x="888" y="160" on="0"/>
        <pt x="880" y="165" on="1"/>
        <pt x="711" y="211" on="0"/>
        <pt x="704" y="214" on="1"/>
        <pt x="601" y="260" on="0"/>
        <pt x="601" y="352" on="1"/>
        <pt x="601" y="344" on="0"/>
        <pt x="624" y="471" on="1"/>
        <pt x="643" y="577" on="0"/>
        <pt x="707" y="647" on="1"/>
        <pt x="893" y="854" on="0"/>
        <pt x="974" y="854" on="1"/>
        <pt x="1015" y="854" on="0"/>
        <pt x="1103" y="768" on="0"/>
      </contour>
      <contour>
        <pt x="2442" y="1385" on="1"/>
        <pt x="2397" y="1385" on="1"/>
        <pt x="2364" y="1370" on="0"/>
        <pt x="2364" y="1336" on="1"/>
        <pt x="2420" y="1336" on="1"/>
        <pt x="2442" y="1357" on="0"/>
      </contour>
    </TTGlyph>
</ttFont>
